<svg width="500" height="500" viewBox="0 0 500 500" xmlns="http://www.w3.org/2000/svg">
  <path d="M250 450c-83.183 0-150-66.817-150-150 0-83.183 66.817-150 150-150 83.183 0 150 66.817 150 150 0 83.183-66.817 150-150 150zm0-240c-41.353 0-75 33.647-75 75 0 41.353 33.647 75 75 75 41.353 0 75-33.647 75-75 0-41.353-33.647-75-75-75z" fill="#F0E3CA"/>
  <path d="M250 390c-74.439 0-135-60.561-135-135S175.561 120 250 120s135 60.561 135 135-60.561 135-135 135zM250 150c-57.897 0-105 47.103-105 105s47.103 105 105 105 105-47.103 105-105-47.103-105-105-105z" fill="#E2BA7C"/>
  <path d="M142.5 57.5h215v15h-215zM142.5 80.5h215v15h-215zM142.5 103.5h215v15h-215zM142.5 126.5h215v15h-215zM142.5 149.5h215v15h-215zM142.5 172.5h215v15h-215zM142.5 195.5h215v15h-215zM142.5 218.5h215v15h-215zM142.5 241.5h215v15h-215zM142.5 264.5h215v15h-215zM142.5 287.5h215v15h-215zM142.5 310.5h215v15h-215zM142.5 333.5h215v15h-215zM142.5 356.5h215v15h-215z" fill="#BD7D1A"/>
</svg>