<svg width="140" height="111" viewBox="0 0 140 111" fill="none" xmlns="http://www.w3.org/2000/svg">
<path d="M65.922 22.773C56.261 20.237 46.583 23.867 44.789 30.701C44.322 32.482 44.408 34.359 45.046 36.281L47.087 42.433L40.667 43.322C32.547 44.447 26.522 48.882 24.943 54.896C22.494 64.226 30.998 74.572 43.901 77.959C50.983 79.818 58.24 79.2319 63.812 76.3499L67.953 74.208L70.671 77.995C74.193 82.902 80.073 86.73 86.804 88.497C99.774 91.901 112.33 87.039 114.793 77.656C116.123 72.589 114.216 66.968 109.561 62.234L104.613 57.203L110.766 53.75C112.743 52.64 115.283 50.617 116.159 47.28C117.953 40.447 111.307 32.531 101.646 29.995C95.688 28.431 89.563 29.121 85.259 31.84L81.048 34.5L78.062 30.513C75.364 26.911 70.939 24.09 65.922 22.773ZM33.526 95.672C22.822 92.862 13.563 86.941 7.455 78.999C1.03 70.647 -1.20098 61.067 1.17302 52.025C4.00002 41.256 13.027 33.057 25.303 29.749C25.078 27.052 25.303 24.362 25.98 21.78C29.96 6.619 48.458 -1.709 67.214 3.215C74.568 5.145 81.08 8.84696 85.976 13.818C93.601 10.454 102.789 9.85898 111.869 12.242C130.626 17.166 142.647 33.507 138.667 48.668C137.482 53.183 134.953 57.244 131.359 60.505C137.229 68.577 139.269 77.841 136.96 86.637C134.578 95.711 127.905 102.985 118.171 107.12C108.915 111.053 97.899 111.665 87.154 108.844C77.478 106.304 69.052 101.283 62.995 94.52C54.139 97.884 43.643 98.328 33.526 95.672Z" fill="#339900"/>
<path d="M86.06 86.907C77.771 84.731 71.021 80.054 66.916 74.334C60.424 77.692 51.852 78.652 43.157 76.37C27.353 72.221 17.143 58.947 20.352 46.721C22.567 38.284 30.596 32.553 40.552 31.173C39.617 28.355 39.442 25.404 40.198 22.525C42.782 12.682 55.192 7.41001 67.917 10.75C74.389 12.449 79.692 16.051 83.004 20.474C88.366 17.087 95.944 15.952 103.641 17.972C116.365 21.313 124.586 32 122.001 41.844C120.896 46.055 117.989 49.425 114.032 51.646C119.792 57.503 122.52 65.04 120.635 72.219C117.412 84.498 101.932 91.074 86.06 86.907ZM124.114 52.745C129.06 49.969 132.695 45.756 134.076 40.492C137.306 28.188 127.031 14.828 111.125 10.653C101.504 8.12702 92.032 9.54504 85.33 13.78C81.189 8.25104 74.561 3.74901 66.471 1.62501C50.565 -2.54999 35.053 4.039 31.822 16.344C30.878 19.943 31.096 23.631 32.265 27.154C19.819 28.878 9.784 36.042 7.015 46.588C3.003 61.871 15.766 78.463 35.521 83.65C46.39 86.503 57.105 85.302 65.219 81.105C70.351 88.254 78.789 94.101 89.15 96.821C108.99 102.029 128.34 93.81 132.369 78.462C134.725 69.487 131.314 60.066 124.114 52.745Z" fill="#72EF43"/>
</svg>
