<svg width="141" height="103" viewBox="0 0 141 103" fill="none" xmlns="http://www.w3.org/2000/svg">
<path d="M55.471 23.27C45.482 23.27 37.044 29.239 37.044 36.304C37.044 38.145 37.604 39.939 38.709 41.636L42.245 47.068L36.261 49.558C28.693 52.708 23.992 58.527 23.992 64.746C23.992 74.392 34.845 82.239 48.184 82.239C55.506 82.239 62.377 79.829 67.034 75.627L70.496 72.504L74.087 75.476C78.739 79.328 85.398 81.537 92.357 81.537C105.766 81.537 116.676 73.646 116.676 63.945C116.676 58.707 113.404 53.754 107.699 50.357L101.637 46.748L106.711 41.845C108.341 40.269 110.285 37.668 110.285 34.218C110.285 27.153 101.846 21.185 91.858 21.185C85.698 21.185 79.949 23.407 76.477 27.13L73.079 30.772L69.178 27.674C65.654 24.875 60.658 23.27 55.471 23.27ZM42.647 102.006C31.58 102.006 21.121 98.63 13.197 92.499C4.86199 86.052 0.272003 77.353 0.272003 68.004C0.272003 56.87 6.92001 46.648 17.954 40.332C17.052 37.779 16.586 35.121 16.586 32.452C16.586 16.777 32.363 4.02499 51.755 4.02499C59.357 4.02499 66.596 5.952 72.594 9.517C79.115 4.327 87.85 1.418 97.238 1.418C116.631 1.418 132.407 14.17 132.407 29.845C132.407 34.513 130.992 39.083 128.344 43.15C136.072 49.467 140.397 57.91 140.397 67.004C140.397 76.385 135.79 85.115 127.425 91.586C119.47 97.74 108.971 101.129 97.862 101.129C87.858 101.129 78.433 98.412 70.857 93.408C63.146 98.912 53.107 102.006 42.647 102.006Z" fill="#339900"/>
<path d="M91.233 80.189C82.664 80.189 74.947 77.379 69.524 72.889C64.098 77.785 56.05 80.891 47.06 80.891C30.721 80.891 17.475 70.644 17.475 58.004C17.475 49.281 23.785 41.699 33.065 37.837C31.445 35.348 30.527 32.539 30.527 29.562C30.527 19.385 41.192 11.135 54.347 11.135C61.039 11.135 67.082 13.272 71.409 16.709C75.735 12.071 82.776 9.04999 90.734 9.04999C103.89 9.04999 114.554 17.3 114.554 27.477C114.554 31.83 112.598 35.828 109.335 38.982C116.393 43.184 120.946 49.781 120.946 57.204C120.946 69.898 107.643 80.189 91.233 80.189ZM119.366 37.484C123.445 33.543 125.89 28.545 125.89 23.103C125.89 10.382 112.559 0.0690002 96.115 0.0690002C86.168 0.0690002 77.366 3.84701 71.959 9.64401C66.55 5.34801 58.996 2.67599 50.631 2.67599C34.187 2.67599 20.856 12.989 20.856 25.71C20.856 29.431 22.003 32.943 24.029 36.054C12.429 40.882 4.54099 50.358 4.54099 61.262C4.54099 77.063 21.098 89.871 41.523 89.871C52.76 89.871 62.819 85.989 69.602 79.869C76.381 85.481 86.027 88.994 96.739 88.994C117.251 88.994 133.88 76.13 133.88 60.262C133.88 50.983 128.189 42.737 119.366 37.484Z" fill="#72EF43"/>
</svg>
