<svg width="904" height="870" viewBox="0 0 904 870" fill="none" xmlns="http://www.w3.org/2000/svg">
<path d="M870.839 431.676L859.122 304.763C827.649 241.052 833.585 202.109 762.842 141.828L705.201 64.7553C702.807 66.0855 665.904 -16.8563 577.787 3.1015L560.011 3.10152L521.605 3.1015C484.815 3.10136 484.815 -5.4065 449.456 7.46731L283.963 39.9374C271.595 39.9374 236.471 80.4803 226.577 101.819C216.683 123.157 209.969 144.495 204.315 144.495C109.438 144.495 40.5026 239.938 40.5026 334.9C40.5026 339.228 44.9198 348.116 45.2338 352.363C8.64066 383.896 0 433.564 0 485.685C0 559.482 24.9452 626.094 90.1793 650.483C96.4917 739.693 192.299 826.947 283.037 826.947C312.511 826.947 353.066 851.302 377.306 838.212C408.533 870.467 452.265 870 500.683 870C568.918 870 626.641 826.671 654.365 768.983C659.557 769.456 726.231 754.015 731.548 754.015C826.426 754.015 903.339 677.033 903.339 582.071C903.339 572.553 904.826 543.552 903.339 534.454C888.498 431.676 877.472 452.213 870.839 431.676Z" fill="#F4ED76"/>
</svg>
