<svg width="188" height="115" viewBox="0 0 188 115" fill="none" xmlns="http://www.w3.org/2000/svg">
<path d="M113.674 22.4021C104.013 19.8661 94.335 23.4961 92.541 30.3301C92.074 32.1111 92.16 33.9881 92.798 35.9101L94.839 42.0621L88.419 42.9511C80.299 44.0761 74.274 48.5112 72.695 54.5252C70.246 63.8552 78.75 74.2011 91.653 77.5882C98.735 79.4471 105.992 78.861 111.564 75.979L115.705 73.8372L118.423 77.6242C121.945 82.5312 127.825 86.3592 134.556 88.1262C147.526 91.5302 160.082 86.6681 162.545 77.2851C163.875 72.2181 161.968 66.5972 157.313 61.8632L152.365 56.8321L158.518 53.3792C160.495 52.2692 163.035 50.2461 163.911 46.9091C165.705 40.0761 159.059 32.1601 149.398 29.6241C143.44 28.0601 137.315 28.7501 133.011 31.4691L128.8 34.1292L125.814 30.1421C123.116 26.5401 118.691 23.7191 113.674 22.4021ZM81.278 95.3011C70.574 92.4911 61.315 86.5702 55.207 78.6282C48.782 70.2762 46.5511 60.6962 48.9251 51.6542C51.7521 40.8852 60.779 32.6861 73.055 29.3781C72.83 26.6811 73.055 23.9911 73.732 21.4091C77.712 6.24815 96.21 -2.07985 114.966 2.84415C122.32 4.77415 128.832 8.47611 133.728 13.4471C141.353 10.0831 150.541 9.48813 159.621 11.8711C178.378 16.7951 190.399 33.1361 186.419 48.2971C185.234 52.8121 182.705 56.8732 179.111 60.1342C184.981 68.2062 187.021 77.4702 184.712 86.2662C182.33 95.3402 175.657 102.614 165.923 106.749C156.667 110.682 145.651 111.294 134.906 108.473C125.23 105.933 116.804 100.912 110.747 94.1491C101.891 97.5131 91.395 97.9571 81.278 95.3011Z" fill="#339900"/>
<path d="M133.812 86.5361C125.523 84.3601 118.773 79.6831 114.668 73.9631C108.176 77.3211 99.6041 78.2811 90.9091 75.9991C75.1051 71.8501 64.8951 58.5761 68.1041 46.3501C70.3191 37.9131 78.3481 32.1821 88.3041 30.8021C87.3691 27.9841 87.1941 25.0331 87.9501 22.1541C90.5341 12.3111 102.944 7.0391 115.669 10.3791C122.141 12.0781 127.444 15.6801 130.756 20.1031C136.118 16.7161 143.696 15.5811 151.393 17.6011C164.117 20.9421 172.338 31.6291 169.753 41.4731C168.648 45.6841 165.741 49.0541 161.784 51.2751C167.544 57.1321 170.272 64.6691 168.387 71.8481C165.164 84.1271 149.684 90.7031 133.812 86.5361ZM171.866 52.3741C176.812 49.5981 180.447 45.3851 181.828 40.1211C185.058 27.8171 174.783 14.4571 158.877 10.2821C149.256 7.75611 139.784 9.17413 133.082 13.4091C128.941 7.88013 122.313 3.3781 114.223 1.2541C98.3171 -2.9209 82.8051 3.66809 79.5741 15.9731C78.6301 19.5721 78.8481 23.2601 80.0171 26.7831C67.5711 28.5071 57.5361 35.6711 54.7671 46.2171C50.7551 61.5001 63.5181 78.0921 83.2731 83.2791C94.1421 86.1321 104.857 84.9311 112.971 80.7341C118.103 87.8831 126.541 93.7301 136.902 96.4501C156.742 101.658 176.092 93.4391 180.121 78.0911C182.477 69.1161 179.066 59.6951 171.866 52.3741Z" fill="#72EF43"/>
<path d="M29.4204 97.7228L33.2624 75.2608C13.2964 70.6538 1.03248 61.2398 0.0614857 49.4728C-0.751514 39.6028 6.52045 29.9898 20.5394 22.4068C33.1254 15.5988 50.0714 11.0238 68.2574 9.5248C86.4434 8.0258 103.91 9.76281 117.44 14.4178C132.512 19.6018 141.261 27.8928 142.075 37.7638C143.067 49.7978 132.147 61.2318 112.55 69.0508L121.598 90.1228L29.4204 97.7228Z" fill="#D8A235"/>
<path d="M134.596 32.3449C133.317 16.8259 103.615 6.60993 68.2573 9.52493C32.8983 12.4399 5.27133 27.3839 6.55233 42.9029C7.40933 53.3109 21.0543 61.3349 40.6173 64.6099L37.1253 85.0169L111.333 78.8979L103.138 59.8119C122.697 53.4079 135.476 43.0119 134.596 32.3449Z" fill="#F4BD42"/>
<path d="M119.399 101.767C119.399 101.767 110.981 109.103 107.91 110.373C101.248 113.191 83.6169 116.655 72.8136 111.126C67.5215 108.419 62.9749 104.908 59.4427 100.798C55.9105 96.6887 53.4643 92.0651 52.2491 87.201C47.6427 71.0861 50.9604 65.9441 54.6346 59.7262C57.2904 56.6355 60.3206 53.7534 63.683 51.1201C63.683 51.1201 63.5459 75.97 71.2782 84.8773C79.0104 93.7846 119.399 101.767 119.399 101.767Z" fill="black"/>
<path d="M75.1172 67.2995C76.974 66.5236 79.0456 66.1177 81.1494 66.1177C83.2533 66.1177 85.3249 66.5236 87.1817 67.2995C93.8797 70.5199 99.2056 75.2307 102.482 80.8328C104.73 85.8458 103.249 96.6462 103.249 96.6462C103.249 96.6462 129.106 82.0161 108.953 68.397C88.7994 54.7778 78.4898 61.6411 75.1172 67.2995Z" fill="black"/>
<path d="M75.2817 46.5804C93.8446 43.181 108.816 55.1865 126.062 70.247C140.622 82.984 120.332 109.405 95.901 110.609C71.4705 111.814 60.8866 99.2494 56.4995 82.1449C53.0995 68.3537 53.2092 50.6037 75.2817 46.5804ZM88.9913 92.3431C98.6429 93.8061 115.533 86.3834 107.445 77.2824C101.604 70.6988 91.2946 60.6943 82.5752 64.0722C67.0285 70.0534 79.2575 90.8585 88.8817 92.3431H88.9913Z" fill="url(#paint0_radial_0_1)"/>
<path d="M62.5319 51.9377C50.0012 69.6016 56.8835 84.8559 67.44 98.8407C73.9932 107.447 84.5772 108.673 96.4772 108.006C109.337 107.253 115.862 104.176 125.596 94.8389C123.259 98.7852 119.659 102.189 115.147 104.719C110.635 107.249 105.365 108.819 99.8495 109.276C88.1688 110.351 75.8027 109.921 67.9335 101.917C55.1561 88.9007 45.1754 64.8899 62.5319 51.9377Z" fill="#569B9B"/>
<path d="M80.2446 65.105C74.7607 68.9131 75.3091 82.1234 82.0543 87.8679C90.7462 95.2261 106.732 91.7192 109.474 83.0486C109.199 92.7519 92.0349 96.6676 82.8769 90.041C75.364 84.6192 70.5929 70.4622 80.2446 65.105Z" fill="#569B9B"/>
<path opacity="0.3" d="M72.0186 51.0557C74.8985 49.8948 78.0897 49.2893 81.3274 49.2893C84.5651 49.2893 87.7562 49.8948 90.6363 51.0557C93.9814 52.2605 101.906 56.0257 99.8766 59.2315C98.1766 61.9209 90.8008 59.4681 86.825 59.2315C79.7782 58.9087 77.9685 61.383 73.1153 64.1584C68.9476 66.6112 63.6557 66.1593 63.3266 61.3615C63.025 57.0154 67.6041 53.0351 72.0186 51.0557Z" fill="url(#paint1_linear_0_1)"/>
<path opacity="0.3" d="M74.7605 89.9764C78.5171 91.3319 79.0381 94.2795 85.0155 96.2804C86.4687 96.7537 91.9252 98.0446 92.1994 100.11C92.4736 102.176 89.4574 102.929 87.6477 103.165C83.5738 103.736 79.3775 103.025 75.9671 101.186C74.4645 100.148 73.238 98.8882 72.3581 97.4779C71.4782 96.0674 70.9621 94.5344 70.8396 92.967C71.059 91.0952 72.6218 89.1589 74.7605 89.9764Z" fill="url(#paint2_linear_0_1)"/>
<path d="M70.4833 55.7029C71.1139 55.0359 72.7317 53.3577 73.7736 53.5513C74.8155 53.745 73.472 54.3259 73.1704 54.6056C71.5978 56.0432 70.4215 57.7207 69.7155 59.5325C69.4688 59.7907 68.8107 59.8122 68.7284 59.425C68.7165 58.058 69.3405 56.7346 70.4833 55.7029Z" fill="#569B9B"/>
<path d="M76.296 52.4111C76.5039 52.2276 76.7753 52.0954 77.0769 52.0305C77.3788 51.9656 77.698 51.9707 77.996 52.0453C78.0841 52.0754 78.1592 52.125 78.2116 52.1881C78.2642 52.2512 78.2924 52.3249 78.2924 52.4003C78.2924 52.4757 78.2642 52.5494 78.2116 52.6125C78.1592 52.6756 78.0841 52.7252 77.996 52.7553C77.5831 52.9053 77.1513 53.0207 76.7073 53.0996C76.3509 53.2071 75.8848 52.5832 76.296 52.4111Z" fill="#569B9B"/>
<path d="M102.18 94.4732C105.101 96.5186 108.389 98.2149 111.941 99.5077C112.955 99.852 112.709 100.411 111.475 100.11C107.685 99.0565 104.298 97.265 101.631 94.9035C101.138 94.172 101.192 93.6126 102.18 94.4732Z" fill="#569B9B"/>
<path opacity="0.3" d="M111.612 77.2611C115.467 77.8063 119.403 77.9005 123.293 77.5408C124.389 77.4117 124.554 77.9926 123.293 78.2293C119.36 78.9122 115.268 78.7788 111.42 77.842C110.406 77.4547 110.187 76.9599 111.612 77.2611Z" fill="url(#paint3_linear_0_1)"/>
<path d="M105.47 92.7307C106.093 92.8832 106.671 93.1319 107.17 93.462C107.664 93.8062 107.472 94.0861 106.841 93.9355C106.23 93.7593 105.671 93.4887 105.196 93.1395C104.702 92.8167 104.922 92.5586 105.47 92.7307Z" fill="#569B9B"/>
<path d="M126.858 76.4866C126.095 73.7046 123.98 71.2655 120.962 69.6878C120.304 69.4081 120.003 68.655 120.962 68.9993C127.132 71.5811 131.738 80.4023 125.679 84.5978C124.966 85.0926 124.417 85.0496 124.746 84.1675C125.679 81.3275 127.598 79.5202 126.858 76.4866Z" fill="#569B9B"/>
<path d="M107.965 67.0199C108.378 66.8124 108.848 66.687 109.336 66.6541C109.451 66.6419 109.567 66.6599 109.667 66.7049C109.766 66.7501 109.845 66.82 109.888 66.9037C109.932 66.9872 109.94 67.0799 109.909 67.1672C109.879 67.2544 109.812 67.3312 109.72 67.3856C109.354 67.6376 108.909 67.8082 108.431 67.8805C108.292 67.908 108.145 67.8953 108.016 67.8452C107.888 67.7948 107.786 67.7103 107.73 67.6066C107.673 67.5029 107.666 67.3867 107.71 67.2791C107.753 67.1715 107.843 67.0797 107.965 67.0199Z" fill="#569B9B"/>
<path opacity="0.3" d="M120.277 74.6146C120.676 74.4021 121.139 74.276 121.62 74.2489C121.737 74.2297 121.859 74.2426 121.965 74.2854C122.071 74.3283 122.155 74.3984 122.203 74.484C122.251 74.5697 122.26 74.6656 122.229 74.756C122.198 74.8463 122.128 74.9255 122.032 74.9804C121.65 75.2252 121.198 75.3948 120.716 75.4752C120.579 75.4942 120.438 75.4757 120.317 75.423C120.196 75.37 120.101 75.2859 120.05 75.185C119.999 75.0839 119.993 74.972 120.034 74.8681C120.076 74.7642 120.161 74.6747 120.277 74.6146Z" fill="url(#paint4_linear_0_1)"/>
<path d="M105.991 63.6419C106.258 63.0771 106.701 62.5741 107.28 62.1788C108.075 61.641 108.816 61.9422 108.13 62.8458C107.74 63.3314 107.191 63.7254 106.54 63.9861C106.266 64.0937 105.854 63.9 105.991 63.6419Z" fill="#569B9B"/>
<defs>
<radialGradient id="paint0_radial_0_1" cx="0" cy="0" r="1" gradientUnits="userSpaceOnUse" gradientTransform="translate(93.1042 78.724) rotate(180) scale(43.2403 33.9294)">
<stop stop-color="#1A4950"/>
<stop offset="0.99"/>
</radialGradient>
<linearGradient id="paint1_linear_0_1" x1="62.6411" y1="59.2745" x2="98.009" y2="49.9396" gradientUnits="userSpaceOnUse">
<stop stop-color="#1A4950"/>
<stop offset="0.11" stop-color="#1C535A"/>
<stop offset="0.39" stop-color="#20646C"/>
<stop offset="0.67" stop-color="#226F77"/>
<stop offset="1" stop-color="#23727A"/>
</linearGradient>
<linearGradient id="paint2_linear_0_1" x1="71.9364" y1="97.894" x2="90.4097" y2="93.0219" gradientUnits="userSpaceOnUse">
<stop stop-color="#1A4950"/>
<stop offset="0.11" stop-color="#1C535A"/>
<stop offset="0.39" stop-color="#20646C"/>
<stop offset="0.67" stop-color="#226F77"/>
<stop offset="1" stop-color="#23727A"/>
</linearGradient>
<linearGradient id="paint3_linear_0_1" x1="124.17" y1="77.9065" x2="110.625" y2="77.9065" gradientUnits="userSpaceOnUse">
<stop stop-color="#1A4950"/>
<stop offset="0.11" stop-color="#1C535A"/>
<stop offset="0.39" stop-color="#20646C"/>
<stop offset="0.67" stop-color="#226F77"/>
<stop offset="1" stop-color="#23727A"/>
</linearGradient>
<linearGradient id="paint4_linear_0_1" x1="122.251" y1="74.8513" x2="119.975" y2="74.8513" gradientUnits="userSpaceOnUse">
<stop stop-color="#1A4950"/>
<stop offset="0.11" stop-color="#1C535A"/>
<stop offset="0.39" stop-color="#20646C"/>
<stop offset="0.67" stop-color="#226F77"/>
<stop offset="1" stop-color="#23727A"/>
</linearGradient>
</defs>
</svg>
