<svg width="162" height="125" viewBox="0 0 162 125" fill="none" xmlns="http://www.w3.org/2000/svg">
<path opacity="0.5" d="M46.3645 120.813C60.3719 124.358 75.4065 119.404 88.1533 113.333C102.743 106.392 115.939 96.6453 127.047 84.6053C133.483 77.7009 139.124 70.0403 143.856 61.7783C147.685 54.9788 150.066 47.7179 148.525 39.9228C147.612 32.3973 135.405 20.6414 129.569 16.9988C133.07 27.9266 136.362 56.363 126.347 70.2777C115.771 84.9617 101.554 94.7074 86.379 104.421C77.2275 109.132 66.7686 113.916 56.4732 114.11C51.5202 114.127 46.6141 113.112 42.0435 111.127C37.4729 109.142 33.3302 106.226 29.8591 102.551C21.9103 94.1382 15.0155 84.7142 9.33826 74.5031C11.0857 79.738 13.1601 84.8485 15.5482 89.802C21.9916 103.425 31.3299 117.049 46.3645 120.813Z" fill="url(#paint0_linear_0_1)"/>
<path d="M125.526 24.6828C117.169 13.0993 84.5081 4.38139 58.4309 6.83407C48.0421 7.80543 29.5056 9.55388 22.3385 15.9891C23.0895 15.5786 23.87 15.2294 24.6731 14.9449C29.2578 13.3874 34.0445 12.5685 38.8672 12.5165C45.0305 12.0551 51.2171 11.788 57.3804 11.7152C71.7613 11.5452 104.819 15.0663 121.301 28.3254C123.701 30.2878 125.789 32.6317 127.487 35.2706C128.478 36.6915 129.061 38.3756 129.168 40.1274C129.79 37.4375 129.784 34.632 129.15 31.9451C128.516 29.2583 127.274 26.7682 125.526 24.6828Z" fill="white"/>
<path opacity="0.5" d="M125.526 24.6828C117.169 13.0993 84.5081 4.38139 58.4309 6.83407C48.0421 7.80543 29.5056 9.55388 22.3385 15.9891C23.0895 15.5786 23.87 15.2294 24.6731 14.9449C29.2578 13.3874 34.0445 12.5685 38.8672 12.5165C45.0305 12.0551 51.2171 11.788 57.3804 11.7152C71.7613 11.5452 104.819 15.0663 121.301 28.3254C123.701 30.2878 125.789 32.6317 127.487 35.2706C128.478 36.6915 129.061 38.3756 129.168 40.1274C129.79 37.4375 129.784 34.632 129.15 31.9451C128.516 29.2583 127.274 26.7682 125.526 24.6828Z" fill="url(#paint1_linear_0_1)"/>
<path d="M53.6213 117.739C63.9168 117.545 74.2356 113.368 83.3871 108.657C99.183 100.492 112.92 88.5906 123.495 73.9066C133.51 59.9919 143.946 40.2005 137.199 23.056C128.024 12.1525 108.367 2.87607 63.1463 0.0105627C53.7552 -0.103708 44.3749 0.709403 35.1315 2.43896C27.9484 3.28731 20.9979 5.60649 14.6807 9.26274C2.33085 17.2036 -0.657405 32.7453 0.113002 46.83C0.7597 57.6047 2.85799 68.2315 6.34633 78.3991C12.0712 88.5574 19.0052 97.924 26.9839 106.277C30.4656 109.938 34.6156 112.837 39.19 114.806C43.7645 116.774 48.671 117.771 53.6213 117.739ZM22.3381 15.9894C29.5052 9.55415 48.0184 7.8057 58.4305 6.83434C84.5077 4.40595 117.168 13.0996 125.526 24.6831C127.246 26.7693 128.466 29.2511 129.083 31.9238C129.699 34.5964 129.697 37.3834 129.075 40.0548C128.904 43.1771 127.848 46.1768 126.04 48.6756C119.741 59.5181 112.209 69.5307 103.604 78.4963C89.597 93.0666 69.1696 110.77 47.855 107.346C21.8245 103.169 12.8364 71.1625 9.82481 48.797C8.33069 37.6507 11.6925 21.9875 22.3381 15.9894Z" fill="white"/>
<path d="M87.674 36.4021C78.013 33.8661 68.335 37.4961 66.541 44.3301C66.074 46.1111 66.16 47.9881 66.798 49.9101L68.839 56.0621L62.419 56.9511C54.299 58.0761 48.274 62.5112 46.695 68.5252C44.246 77.8552 52.75 88.2011 65.653 91.5882C72.735 93.4471 79.992 92.861 85.564 89.979L89.705 87.8372L92.423 91.6242C95.945 96.5312 101.825 100.359 108.556 102.126C121.526 105.53 134.082 100.668 136.545 91.2851C137.875 86.2181 135.968 80.5972 131.313 75.8632L126.365 70.8321L132.518 67.3792C134.495 66.2692 137.035 64.2461 137.911 60.9091C139.705 54.0761 133.059 46.1601 123.398 43.6241C117.44 42.0601 111.315 42.7501 107.011 45.4691L102.8 48.1292L99.814 44.1421C97.116 40.5401 92.691 37.7191 87.674 36.4021ZM55.278 109.301C44.574 106.491 35.315 100.57 29.207 92.6282C22.782 84.2762 20.5511 74.6962 22.9251 65.6542C25.7521 54.8852 34.779 46.6861 47.055 43.3781C46.83 40.6811 47.055 37.9911 47.732 35.4091C51.712 20.2481 70.21 11.9201 88.966 16.8441C96.32 18.7741 102.832 22.4761 107.728 27.4471C115.353 24.0831 124.541 23.4881 133.621 25.8711C152.378 30.7951 164.399 47.1361 160.419 62.2971C159.234 66.8121 156.705 70.8732 153.111 74.1342C158.981 82.2062 161.021 91.4702 158.712 100.266C156.33 109.34 149.657 116.614 139.923 120.749C130.667 124.682 119.651 125.294 108.906 122.473C99.23 119.933 90.804 114.912 84.747 108.149C75.891 111.513 65.395 111.957 55.278 109.301Z" fill="#339900"/>
<path d="M107.812 100.536C99.5229 98.3601 92.7729 93.6831 88.6679 87.9631C82.1759 91.3211 73.6039 92.2811 64.9089 89.9991C49.1049 85.8501 38.8949 72.5761 42.1039 60.3501C44.3189 51.9131 52.3479 46.1821 62.3039 44.8021C61.3689 41.9841 61.1939 39.0331 61.9499 36.1541C64.5339 26.3111 76.9439 21.0391 89.6689 24.3791C96.1409 26.0781 101.444 29.6801 104.756 34.1031C110.118 30.7161 117.696 29.5811 125.393 31.6011C138.117 34.9421 146.338 45.6291 143.753 55.4731C142.648 59.6841 139.741 63.0541 135.784 65.2751C141.544 71.1321 144.272 78.6691 142.387 85.8481C139.164 98.1271 123.684 104.703 107.812 100.536ZM145.866 66.3741C150.812 63.5981 154.447 59.3851 155.828 54.1211C159.058 41.8171 148.783 28.4571 132.877 24.2821C123.256 21.7561 113.784 23.1741 107.082 27.4091C102.941 21.8801 96.3129 17.3781 88.2229 15.2541C72.3169 11.0791 56.8049 17.6681 53.5739 29.9731C52.6299 33.5721 52.8479 37.2601 54.0169 40.7831C41.5709 42.5071 31.5359 49.6711 28.7669 60.2171C24.7549 75.5001 37.5179 92.0921 57.2729 97.2791C68.1419 100.132 78.8569 98.9311 86.9709 94.7341C92.1029 101.883 100.541 107.73 110.902 110.45C130.742 115.658 150.092 107.439 154.121 92.0911C156.477 83.1161 153.066 73.6951 145.866 66.3741Z" fill="#72EF43"/>
<path d="M107.812 100.536C99.5229 98.3601 92.7729 93.6831 88.6679 87.9631C82.1759 91.3211 73.6039 92.2811 64.9089 89.9991C49.1049 85.8501 38.8949 72.5761 42.1039 60.3501C44.3189 51.9131 52.3479 46.1821 62.3039 44.8021C61.3689 41.9841 61.1939 39.0331 61.9499 36.1541C64.5339 26.3111 76.9439 21.0391 89.6689 24.3791C96.1409 26.0781 101.444 29.6801 104.756 34.1031C110.118 30.7161 117.696 29.5811 125.393 31.6011C138.117 34.9421 146.338 45.6291 143.753 55.4731C142.648 59.6841 139.741 63.0541 135.784 65.2751C141.544 71.1321 144.272 78.6691 142.387 85.8481C139.164 98.1271 123.684 104.703 107.812 100.536ZM145.866 66.3741C150.812 63.5981 154.447 59.3851 155.828 54.1211C159.058 41.8171 148.783 28.4571 132.877 24.2821C123.256 21.7561 113.784 23.1741 107.082 27.4091C102.941 21.8801 96.3129 17.3781 88.2229 15.2541C72.3169 11.0791 56.8049 17.6681 53.5739 29.9731C52.6299 33.5721 52.8479 37.2601 54.0169 40.7831C41.5709 42.5071 31.5359 49.6711 28.7669 60.2171C24.7549 75.5001 37.5179 92.0921 57.2729 97.2791C68.1419 100.132 78.8569 98.9311 86.9709 94.7341C92.1029 101.883 100.541 107.73 110.902 110.45C130.742 115.658 150.092 107.439 154.121 92.0911C156.477 83.1161 153.066 73.6951 145.866 66.3741Z" fill="#72EF43"/>
<defs>
<linearGradient id="paint0_linear_0_1" x1="-5.13607" y1="70.642" x2="168.136" y2="70.642" gradientUnits="userSpaceOnUse">
<stop stop-color="#EA4E65"/>
<stop offset="0.31" stop-color="#EA5565"/>
<stop offset="0.75" stop-color="#EA6865"/>
<stop offset="1" stop-color="#EA7665"/>
</linearGradient>
<linearGradient id="paint1_linear_0_1" x1="22.3385" y1="23.25" x2="129.612" y2="23.25" gradientUnits="userSpaceOnUse">
<stop stop-color="#EA4E65"/>
<stop offset="0.31" stop-color="#EA5565"/>
<stop offset="0.75" stop-color="#EA6865"/>
<stop offset="1" stop-color="#EA7665"/>
</linearGradient>
</defs>
</svg>
