<svg width="211" height="122" viewBox="0 0 211 122" fill="none" xmlns="http://www.w3.org/2000/svg">
<path d="M2.87113 79.1532C5.71873 90.1502 11.7065 100.041 20.0773 107.574C28.4481 115.108 38.8259 119.946 49.8984 121.477C60.9709 123.007 72.2407 121.162 82.2827 116.174C92.3247 111.186 100.688 103.279 106.315 93.4539C111.941 83.6284 114.579 72.3254 113.894 60.9743C113.209 49.6231 109.231 38.7337 102.465 29.6831C95.6992 20.6324 86.448 13.827 75.8816 10.1274C65.3153 6.42792 53.9082 6.00045 43.1031 8.89903C35.9272 10.8204 29.1937 14.1623 23.2875 18.7336C17.3813 23.3049 12.4182 29.0161 8.68186 35.5406C4.94551 42.0651 2.50916 49.275 1.51212 56.7583C0.515085 64.2416 0.976894 71.8516 2.87113 79.1532Z" fill="url(#paint0_linear_0_1)"/>
<path d="M89.0543 101.985C109.459 84.3034 111.872 53.1872 94.4454 32.4849C77.0183 11.7825 46.3499 9.33364 25.9454 27.0151C5.54101 44.6965 3.12741 75.8127 20.5544 96.515C37.9815 117.217 68.6499 119.666 89.0543 101.985Z" fill="url(#paint1_radial_0_1)"/>
<path d="M64.8996 24.2C56.205 23.0624 50.8102 26.8458 52.2244 33.8041C52.2244 34.2009 61.0761 58.8857 63.4068 66.2673C64.1925 69.8655 70.6873 86.2956 74.5108 95.5028C77.1296 101.588 89.5691 87.3539 91.5071 84.3642C106.042 61.8225 89.8572 27.4278 64.8996 24.2Z" fill="url(#paint2_linear_0_1)"/>
<path d="M63.9014 99.3949L62.5786 94.2759L62.2083 94.4606C50.4356 97.0993 37.3667 84.5393 35.7529 73.3514C34.245 63.3245 35.2238 46.5955 45.6208 41.3182C45.7097 40.9703 45.927 40.6688 46.2292 40.4738C45.5149 38.2573 45.0652 36.7797 45.0388 36.7005C41.9964 30.315 35.3825 30.5525 29.0332 36.7005C10.8849 54.2739 18.3188 91.5845 43.5837 100.793C46.8377 101.981 65.5151 105.78 63.9014 99.3949Z" fill="url(#paint3_linear_0_1)"/>
<path d="M35.155 73.1069C37.7165 84.1425 47.143 97.8182 61.6414 94.4917L62 94.3069C59.5665 84.6441 56.2366 72.1828 55.007 69.3843C53.1115 63.7609 48.142 47.3131 45.9134 40C33.7973 46.8907 32.491 61.4376 35.155 73.1069Z" fill="url(#paint4_linear_0_1)"/>
<path d="M82.5311 57.1064C87.719 76.8163 77.9286 87.2896 72.3416 91C67.0207 81.053 55.5274 45.291 53 38.0807C63.695 33.1335 79.6578 46.1594 82.5311 57.1064Z" fill="url(#paint5_linear_0_1)"/>
<path d="M37 51.4418C34.7136 49.126 32.0438 47.3061 29.1333 46.0793C28.4813 45.9051 27.7926 46.0205 27.2186 46.4001C26.6446 46.7798 26.2324 47.3926 26.0727 48.1037C25.913 48.8148 26.0188 49.566 26.3669 50.192C26.7149 50.8181 27.2768 51.2676 27.9288 51.4418C30.914 52.1861 34.0148 52.1861 37 51.4418Z" fill="#FFBE08"/>
<path d="M36 60.3429C32.9804 58.9069 29.7448 58.1122 26.4612 58C25.7458 58.0729 25.0858 58.4582 24.6264 59.0711C24.167 59.6841 23.9457 60.4745 24.0113 61.2685C24.077 62.0625 24.4242 62.795 24.9765 63.3049C25.5288 63.8148 26.241 64.0603 26.9564 63.9874C30.179 63.5405 33.2698 62.2949 36 60.3429Z" fill="#FFBE08"/>
<path d="M35 71.2095C35 71.2095 28.3803 70.456 25.6575 71.8071C25.0181 72.0621 24.5023 72.5708 24.2236 73.2214C23.9448 73.8719 23.926 74.611 24.1711 75.276C24.4163 75.941 24.9053 76.4775 25.5307 76.7674C26.1561 77.0573 26.8666 77.077 27.506 76.822C30.3838 75.5721 32.9476 73.652 35 71.2095Z" fill="#FFBE08"/>
<path d="M40 46C37.5454 45.2216 35.1978 44.0974 33.0184 42.6568C30.423 40.4002 33.2001 34.6054 36.7298 38.0879C37.7583 39.0894 38.5805 40.3105 39.1436 41.6731C39.7068 43.0356 39.9985 44.5094 40 46Z" fill="#FFBE08"/>
<path d="M43 88C40.9143 88.3152 38.9333 89.0963 37.2145 90.2813C34.2964 92.5134 37.2145 95.3588 39.9043 93.2738C41.5327 91.9123 42.626 90.0497 43 88Z" fill="#FFBE08"/>
<path d="M38 80C35.2186 80.3299 32.5256 81.212 30.0704 82.5973C29.5192 83.0689 29.1525 83.73 29.0381 84.4583C28.9236 85.1866 29.0692 85.933 29.4479 86.5594C29.8265 87.1859 30.4126 87.65 31.0979 87.8661C31.7832 88.0822 32.5213 88.0355 33.1758 87.7348C36.3365 86.165 38 80 38 80Z" fill="#FFBE08"/>
<path d="M31.6473 48.899C31.2262 48.3939 30.6432 48.0774 30.0144 48.0124C29.3855 47.9475 28.7569 48.1388 28.2536 48.5485C28.122 48.6915 28.0364 48.8759 28.0093 49.0747C27.9821 49.2736 28.0149 49.4765 28.1028 49.654C28.4252 50.2516 28.949 50.6939 29.5664 50.8895C30.1838 51.0851 30.8476 51.0193 31.421 50.7055C32.1501 50.382 32.1501 49.3574 31.6473 48.899Z" fill="white"/>
<path d="M36.9923 40.9039C36.9034 40.3414 36.6059 39.8335 36.1595 39.4818C35.7131 39.1302 35.1507 38.9608 34.585 39.0077C34.2475 39.0077 34.0675 39.3914 34 39.7075C33.9972 40.2691 34.2032 40.8115 34.5776 41.229C34.952 41.6464 35.468 41.9088 36.0249 41.9649C36.6774 42.1681 37.0598 41.4457 36.9923 40.9039Z" fill="white"/>
<path d="M29.6425 59.7321C29.1715 59.2615 28.553 59 27.9107 59C27.2684 59 26.6498 59.2615 26.1788 59.7321C26.0631 59.8879 26 60.0815 26 60.281C26 60.4805 26.0631 60.6741 26.1788 60.8299C26.5504 61.4015 27.11 61.7992 27.744 61.942C28.378 62.0847 29.0387 61.9618 29.5916 61.5983C30.2028 61.1317 30.05 60.1712 29.6425 59.7321Z" fill="white"/>
<path d="M28.7244 72.0001C28.0551 71.9943 27.4074 72.2842 26.9049 72.8147C26.4024 73.3452 26.0803 74.079 26 74.8762C26.0061 75.111 26.0759 75.337 26.1988 75.5199C26.3217 75.7028 26.4911 75.8325 26.6811 75.8893C27.3563 76.1057 28.0751 76.0024 28.6886 75.6009C29.3022 75.1994 29.7636 74.5304 29.9776 73.7323C30.1411 72.8172 29.3783 72.0655 28.7244 72.0001Z" fill="white"/>
<path d="M32.7426 83.0001C32.0688 82.9957 31.4168 83.212 30.911 83.6077C30.4051 84.0033 30.0808 84.5506 30 85.1451C30.0001 85.3245 30.0676 85.4987 30.1918 85.64C30.3161 85.7813 30.4899 85.8817 30.6856 85.9252C31.3651 86.0784 32.0848 85.9944 32.6969 85.6907C33.3089 85.387 33.7669 84.8865 33.9768 84.292C34.1413 83.6095 33.4008 83.0732 32.7426 83.0001Z" fill="white"/>
<path d="M70 43C70 43 72.7333 35.8398 75.3026 33.7321C75.8717 33.2114 76.6132 32.9508 77.3642 33.0077C78.1151 33.0645 78.814 33.4342 79.3069 34.0353C79.7998 34.6364 80.0466 35.4197 79.9927 36.2129C79.9389 37.0062 79.5889 37.7443 79.0199 38.265C76.3897 40.5415 73.3062 42.1602 70 43Z" fill="#FFBE08"/>
<path d="M76 48.8975C76 48.8975 80.416 44.0917 83.377 43.1786C84.0269 42.9332 84.7538 42.941 85.3977 43.2001C86.0415 43.4592 86.5496 43.9485 86.8103 44.5603C87.0709 45.1721 87.0627 45.8563 86.7875 46.4624C86.5122 47.0685 85.9924 47.5468 85.3425 47.7921C82.3582 48.8245 79.1629 49.2026 76 48.8975Z" fill="#FFBE08"/>
<path d="M81 58.5832C81 58.5832 86.8162 55.0128 90.0124 55.0128C90.7281 54.9461 91.4434 55.1421 92.0011 55.5578C92.5587 55.9735 92.9131 56.5747 92.986 57.2293C93.059 57.8839 92.8446 58.5381 92.3901 59.0482C91.9356 59.5582 91.2782 59.8823 90.5626 59.949C87.303 60.1641 84.0327 59.697 81 58.5832Z" fill="#FFBE08"/>
<path d="M65.0513 38C66.8665 36.2733 68.4442 34.3142 69.7433 32.1739C71.1712 29.1209 66.2498 25.6864 64.6433 30.1132C64.1574 31.3837 63.9428 32.7415 64.013 34.0996C64.0833 35.4576 64.4369 36.7861 65.0513 38Z" fill="#FFBE08"/>
<path d="M77 85C79.2267 85.2406 81.3724 85.9686 83.2833 87.1316C85.0584 88.5339 83.2833 92.5166 80.7193 90.385C79.1074 88.875 77.8392 87.0388 77 85Z" fill="#FFBE08"/>
<path d="M81 77.6592C83.1489 77.0266 85.4353 76.846 87.6771 77.1317C91.5585 77.8271 90.147 81.5916 86.5914 80.9202C84.3582 80.4343 82.3832 79.2825 81 77.6592Z" fill="#FFBE08"/>
<path d="M83 67.4037C85.4429 66.382 88.0439 65.9098 90.6522 66.0142C91.3413 66.116 91.9686 66.5089 92.404 67.1113C92.8393 67.7138 93.0493 68.4795 92.9902 69.2495C92.9311 70.0195 92.6076 70.7347 92.0867 71.2464C91.5658 71.7582 90.8876 72.0273 90.193 71.9978C86.8771 72.0829 83 67.4037 83 67.4037Z" fill="#FFBE08"/>
<path d="M74.0287 37.218C74.2128 36.492 74.6565 35.8648 75.2705 35.4626C75.8844 35.0603 76.6232 34.9129 77.3382 35.0499C77.5328 35.1232 77.7007 35.2567 77.8192 35.4321C77.9376 35.6074 78.0007 35.8162 78 36.03C78 36.8177 77.6968 37.5731 77.1572 38.1301C76.6175 38.6871 75.8855 39 75.1222 39C74.2877 38.9703 73.8848 37.9011 74.0287 37.218Z" fill="white"/>
<path d="M65.1385 32.1986C64.9246 31.5855 64.9595 30.9172 65.236 30.3278C65.5124 29.7384 66.0101 29.2714 66.6293 29.0205C66.8212 28.9809 67.0212 28.9989 67.2021 29.0723C67.383 29.1456 67.5362 29.2707 67.6409 29.4306C67.9833 29.999 68.0857 30.6724 67.9272 31.3115C67.7686 31.9506 67.3612 32.5067 66.789 32.8649C66.6381 32.9443 66.4706 32.99 66.2989 32.9985C66.1272 33.0071 65.9557 32.9783 65.7971 32.9143C65.6385 32.8502 65.497 32.7527 65.3829 32.6288C65.2689 32.5049 65.1854 32.3578 65.1385 32.1986Z" fill="white"/>
<path d="M81.0568 46.1433C81.2871 45.3843 81.7605 44.7526 82.382 44.3746C83.0035 43.9967 83.7273 43.9005 84.4084 44.1052C84.5988 44.1936 84.7589 44.35 84.8647 44.551C84.9705 44.752 85.0161 44.9866 84.9949 45.2198C84.9039 46.0307 84.5428 46.7706 83.9865 47.2863C83.4302 47.8021 82.7212 48.0541 82.0064 47.9903C81.1685 47.9584 80.8613 46.9712 81.0568 46.1433Z" fill="white"/>
<path d="M87.6402 56.3593C88.1804 56.0207 88.817 55.9166 89.424 56.0676C90.031 56.2186 90.564 56.6138 90.9175 57.1748C90.9962 57.3551 91.0194 57.5586 90.9836 57.7547C90.9478 57.9507 90.8549 58.1287 90.7188 58.2621C90.2584 58.7361 89.6501 59 89.0181 59C88.3861 59 87.7779 58.7361 87.3175 58.2621C87.1934 58.1279 87.1012 57.9625 87.0489 57.7803C86.9967 57.5981 86.9861 57.4047 87.018 57.217C87.0498 57.0292 87.1231 56.8529 87.2316 56.7034C87.3401 56.5539 87.4804 56.4357 87.6402 56.3593Z" fill="white"/>
<path d="M87.7996 68.3526C88.4778 68.0157 89.2756 67.9157 90.034 68.0722C90.7925 68.2287 91.456 68.6304 91.8928 69.1974C91.9941 69.3731 92.0248 69.5738 91.9798 69.7668C91.9347 69.9598 91.8166 70.1337 91.6448 70.2602C91.0697 70.7354 90.3099 71 89.5205 71C88.7312 71 87.9715 70.7354 87.3964 70.2602C87.2414 70.1257 87.1263 69.9599 87.0611 69.7772C86.9959 69.5946 86.9827 69.4006 87.0224 69.2124C87.0622 69.0242 87.1538 68.8474 87.2893 68.6975C87.4248 68.5476 87.5999 68.4292 87.7996 68.3526Z" fill="white"/>
<path d="M86.4476 78.2656C86.647 78.1458 86.87 78.0643 87.1035 78.0256C87.337 77.987 87.5764 77.9921 87.8079 78.0406C88.0393 78.0891 88.2581 78.18 88.4514 78.3081C88.6448 78.4361 88.8089 78.5988 88.9342 78.7866C88.9951 78.9022 89.0144 79.0331 88.9893 79.1598C88.9641 79.2865 88.8957 79.4022 88.7944 79.4899C88.6253 79.6513 88.4233 79.7796 88.2001 79.8672C87.977 79.9548 87.7374 80 87.4953 80C87.2532 80 87.0136 79.9548 86.7905 79.8672C86.5674 79.7796 86.3653 79.6513 86.1961 79.4899C85.805 79.0731 86.0564 78.5 86.4476 78.2656Z" fill="white"/>
<path d="M81.0736 87.002C81.6205 87.0458 82.1291 87.3181 82.489 87.7598C82.8489 88.2014 83.031 88.7768 82.9957 89.3608C82.9678 89.5246 82.8897 89.6738 82.7738 89.7852C82.6578 89.8966 82.5105 89.9637 82.355 89.9762C82.083 90.0194 81.8057 90.0037 81.5395 89.9302C81.2733 89.8566 81.0237 89.7267 80.8055 89.5481C80.5873 89.3694 80.405 89.1458 80.2695 88.8905C80.1339 88.6351 80.0479 88.3533 80.0166 88.0618C79.8884 87.378 80.5291 86.9678 81.0736 87.002Z" fill="white"/>
<path d="M76 101.221C74.4195 100.818 72.9615 100.022 71.756 98.9037C70.5506 97.7856 69.6354 96.3803 69.092 94.8133C66.6584 85.4688 62.6811 74.5225 60.169 66.8066C59.4364 64.5639 58.6775 62.3479 57.9186 60.132C57.186 57.4621 56.4272 54.7923 55.5898 52.1224C54.0983 47.4502 52.0311 43.0716 50.3564 38.4795C48.0537 32.3121 49.6499 26.4918 50.3564 20.0308C48.4201 19.6303 47.3995 23.2346 47.1902 25.1302C46.6781 23.2835 45.5605 21.6719 44.024 20.5648C44.024 21.6594 43.8932 24.6496 44.024 25.7443C43.438 24.9973 42.6469 24.4458 41.7518 24.1604C40.8568 23.875 39.8986 23.8687 39 24.1423C39.5757 25.3972 44.5735 28.2006 46.5884 32.6058C48.9071 38.4371 50.8049 44.4336 52.2666 50.5472C57.7093 70.0104 65.9519 90.595 67.7574 96.2283C68.3102 99.4731 68.2033 102.799 67.4434 106C69.4321 105.199 70.191 102.369 70.3218 102.075C70.7321 103.57 71.6625 104.861 72.9385 105.706C73.1478 104.305 72.9092 102.873 72.2581 101.621C73.5185 101.814 74.8062 101.676 76 101.221Z" fill="url(#paint6_radial_0_1)"/>
<path opacity="0.5" d="M77.842 67.3097C75.2371 62.3462 71.9128 57.7833 67.9739 53.7647C66.6056 52.5711 64.0793 50.5471 62.0531 48.5751C60.0268 46.603 58.1322 44.7866 59.4216 44.3196C61.8765 43.6861 64.4842 44.0017 66.7109 45.2018C73.8685 48.5232 79.0262 59.162 78.9999 66.9983C78.921 68.192 78.2894 68.3476 77.842 67.3097Z" fill="url(#paint7_radial_0_1)"/>
<path d="M30.8102 27.2332C20.295 32.5593 13.9061 47.4459 13.0276 57.9383C12.788 60.6014 14.1723 60.6014 14.7579 58.4177C17.6063 47.4192 22.4779 37.5126 31.3959 30.5354C34.3774 28.1919 32.6204 26.3277 30.8102 27.2332Z" fill="white"/>
<path d="M102.992 64.5729C102.752 62.2152 100.335 62.8245 100.335 64.3345C100.335 69.1028 100.787 77.7918 89.4701 93.4743C89.0185 94.1101 88.2747 96.1234 90.7187 94.163C95.3267 89.9585 98.7518 84.6251 100.654 78.6925C102.299 74.1699 103.092 69.3829 102.992 64.5729Z" fill="white"/>
<path d="M7.16211 87.518C2.16176 76.0863 0.917606 63.3079 3.61566 51.0936C6.75929 38.2405 13.6966 26.6867 23.4864 18C2.62472 32.0688 -6.13723 61.8851 4.60653 87.9443C14.6201 112.272 42.8878 126.181 68 120.878C46.4864 123.196 17.9319 110.833 7.16211 87.518Z" fill="#A50000"/>
<path opacity="0.5" d="M108.365 120.813C122.372 124.358 137.407 119.404 150.153 113.333C164.743 106.392 177.939 96.6453 189.047 84.6053C195.483 77.7009 201.124 70.0403 205.856 61.7783C209.685 54.9788 212.066 47.7179 210.525 39.9228C209.612 32.3973 197.405 20.6414 191.569 16.9988C195.07 27.9266 198.362 56.363 188.347 70.2777C177.772 84.9617 163.554 94.7074 148.379 104.421C139.228 109.132 128.769 113.916 118.473 114.11C113.52 114.127 108.614 113.112 104.044 111.127C99.4731 109.142 95.3303 106.226 91.8592 102.551C83.9105 94.1382 77.0156 84.7142 71.3384 74.5031C73.0858 79.738 75.1603 84.8485 77.5483 89.802C83.9917 103.425 93.33 117.049 108.365 120.813Z" fill="url(#paint8_linear_0_1)"/>
<path d="M187.527 24.6828C179.169 13.0993 146.508 4.38139 120.431 6.83407C110.042 7.80543 91.5057 9.55388 84.3386 15.9891C85.0896 15.5786 85.8701 15.2294 86.6732 14.9449C91.2579 13.3874 96.0446 12.5685 100.867 12.5165C107.031 12.0551 113.217 11.788 119.38 11.7152C133.761 11.5452 166.819 15.0663 183.301 28.3254C185.701 30.2878 187.789 32.6317 189.488 35.2706C190.478 36.6915 191.061 38.3756 191.168 40.1274C191.79 37.4375 191.784 34.632 191.15 31.9451C190.517 29.2583 189.274 26.7682 187.527 24.6828Z" fill="white"/>
<path opacity="0.5" d="M187.527 24.6828C179.169 13.0993 146.508 4.38139 120.431 6.83407C110.042 7.80543 91.5057 9.55388 84.3386 15.9891C85.0896 15.5786 85.8701 15.2294 86.6732 14.9449C91.2579 13.3874 96.0446 12.5685 100.867 12.5165C107.031 12.0551 113.217 11.788 119.38 11.7152C133.761 11.5452 166.819 15.0663 183.301 28.3254C185.701 30.2878 187.789 32.6317 189.488 35.2706C190.478 36.6915 191.061 38.3756 191.168 40.1274C191.79 37.4375 191.784 34.632 191.15 31.9451C190.517 29.2583 189.274 26.7682 187.527 24.6828Z" fill="url(#paint9_linear_0_1)"/>
<path d="M115.621 117.739C125.917 117.545 136.236 113.368 145.387 108.657C161.183 100.492 174.92 88.5906 185.495 73.9066C195.51 59.9919 205.946 40.2005 199.199 23.056C190.024 12.1525 170.367 2.87607 125.146 0.0105627C115.755 -0.103708 106.375 0.709403 97.1315 2.43896C89.9484 3.28731 82.9979 5.60649 76.6807 9.26274C64.3309 17.2036 61.3426 32.7453 62.113 46.83C62.7597 57.6047 64.858 68.2315 68.3463 78.3991C74.0712 88.5574 81.0052 97.924 88.9839 106.277C92.4656 109.938 96.6156 112.837 101.19 114.806C105.764 116.774 110.671 117.771 115.621 117.739ZM84.3381 15.9894C91.5052 9.55415 110.018 7.8057 120.431 6.83434C146.508 4.40595 179.168 13.0996 187.526 24.6831C189.246 26.7693 190.466 29.2511 191.083 31.9238C191.699 34.5964 191.697 37.3834 191.075 40.0548C190.904 43.1771 189.848 46.1768 188.04 48.6756C181.741 59.5181 174.209 69.5307 165.604 78.4963C151.597 93.0666 131.17 110.77 109.855 107.346C83.8245 103.169 74.8364 71.1625 71.8248 48.797C70.3307 37.6507 73.6925 21.9875 84.3381 15.9894Z" fill="white"/>
<path d="M71.4204 121.723L75.2624 99.2608C55.2964 94.6538 43.0325 85.2398 42.0615 73.4728C41.2485 63.6028 48.5205 53.9898 62.5394 46.4068C75.1254 39.5988 92.0714 35.0238 110.257 33.5248C128.443 32.0258 145.91 33.7628 159.44 38.4178C174.512 43.6018 183.261 51.8928 184.075 61.7638C185.067 73.7978 174.147 85.2318 154.55 93.0508L163.598 114.123L71.4204 121.723Z" fill="#D8A235"/>
<path d="M176.596 56.3449C175.317 40.8259 145.615 30.6099 110.257 33.5249C74.8983 36.4399 47.2713 51.3839 48.5523 66.9029C49.4093 77.3109 63.0543 85.3349 82.6173 88.6099L79.1253 109.017L153.333 102.898L145.138 83.8119C164.697 77.4079 177.476 67.0119 176.596 56.3449Z" fill="#F4BD42"/>
<defs>
<linearGradient id="paint0_linear_0_1" x1="0.991365" y1="64.4859" x2="114.012" y2="64.4859" gradientUnits="userSpaceOnUse">
<stop stop-color="#D60000"/>
<stop offset="0.56" stop-color="#E50D14"/>
<stop offset="1" stop-color="#ED141F"/>
</linearGradient>
<radialGradient id="paint1_radial_0_1" cx="0" cy="0" r="1" gradientUnits="userSpaceOnUse" gradientTransform="translate(57.448 64.5776) scale(48.6128 49.3225)">
<stop stop-color="#FF7878"/>
<stop offset="0.24" stop-color="#FF7272"/>
<stop offset="0.56" stop-color="#FF6060"/>
<stop offset="0.93" stop-color="#FF4444"/>
<stop offset="1" stop-color="#FF3E3E"/>
</radialGradient>
<linearGradient id="paint2_linear_0_1" x1="51.9887" y1="60.4996" x2="96.9804" y2="60.4996" gradientUnits="userSpaceOnUse">
<stop stop-color="#D60000"/>
<stop offset="0.56" stop-color="#E50D14"/>
<stop offset="1" stop-color="#ED141F"/>
</linearGradient>
<linearGradient id="paint3_linear_0_1" x1="18.9008" y1="67.4936" x2="64.0072" y2="67.4936" gradientUnits="userSpaceOnUse">
<stop stop-color="#D60000"/>
<stop offset="0.56" stop-color="#E50D14"/>
<stop offset="1" stop-color="#ED141F"/>
</linearGradient>
<linearGradient id="paint4_linear_0_1" x1="34.0023" y1="67.3779" x2="62" y2="67.3779" gradientUnits="userSpaceOnUse">
<stop stop-color="#D60000"/>
<stop offset="0.99" stop-color="#A50000"/>
</linearGradient>
<linearGradient id="paint5_linear_0_1" x1="53" y1="64.0009" x2="83.9944" y2="64.0009" gradientUnits="userSpaceOnUse">
<stop stop-color="#D60000"/>
<stop offset="0.99" stop-color="#A50000"/>
</linearGradient>
<radialGradient id="paint6_radial_0_1" cx="0" cy="0" r="1" gradientUnits="userSpaceOnUse" gradientTransform="translate(57.3953 63.1222) scale(32.5778 33.2396)">
<stop stop-color="#FFC086"/>
<stop offset="0.5" stop-color="#FFB064"/>
<stop offset="0.99" stop-color="#FF9E3E"/>
</radialGradient>
<radialGradient id="paint7_radial_0_1" cx="0" cy="0" r="1" gradientUnits="userSpaceOnUse" gradientTransform="translate(77.9515 57.6004) rotate(137.015) scale(11.213 11.203)">
<stop stop-color="#FF7878"/>
<stop offset="0.24" stop-color="#FF7272"/>
<stop offset="0.56" stop-color="#FF6060"/>
<stop offset="0.93" stop-color="#FF4444"/>
<stop offset="1" stop-color="#FF3E3E"/>
</radialGradient>
<linearGradient id="paint8_linear_0_1" x1="56.8641" y1="70.642" x2="230.136" y2="70.642" gradientUnits="userSpaceOnUse">
<stop stop-color="#EA4E65"/>
<stop offset="0.31" stop-color="#EA5565"/>
<stop offset="0.75" stop-color="#EA6865"/>
<stop offset="1" stop-color="#EA7665"/>
</linearGradient>
<linearGradient id="paint9_linear_0_1" x1="84.3386" y1="23.25" x2="191.612" y2="23.25" gradientUnits="userSpaceOnUse">
<stop stop-color="#EA4E65"/>
<stop offset="0.31" stop-color="#EA5565"/>
<stop offset="0.75" stop-color="#EA6865"/>
<stop offset="1" stop-color="#EA7665"/>
</linearGradient>
</defs>
</svg>
