<svg width="143" height="90" viewBox="0 0 143 90" fill="none" xmlns="http://www.w3.org/2000/svg">
<path d="M29.685 89.549L33.527 67.087C13.561 62.48 1.29704 53.066 0.326043 41.299C-0.486957 31.429 6.78501 21.816 20.804 14.233C33.39 7.42499 50.336 2.85003 68.522 1.35103C86.708 -0.147966 104.175 1.58904 117.705 6.24404C132.777 11.428 141.526 19.719 142.34 29.59C143.332 41.624 132.412 53.058 112.815 60.877L121.863 81.949L29.685 89.549Z" fill="#D8A235"/>
<path d="M134.861 24.171C133.582 8.65205 103.88 -1.56396 68.522 1.35104C33.163 4.26604 5.53601 19.21 6.81701 34.729C7.67401 45.137 21.319 53.161 40.882 56.436L37.39 76.843L111.598 70.724L103.403 51.638C122.962 45.234 135.741 34.838 134.861 24.171Z" fill="#F4BD42"/>
</svg>
