<svg width="31" height="33" viewBox="0 0 31 33" fill="none" xmlns="http://www.w3.org/2000/svg">
<path d="M26.1799 26.32C26.1799 26.32 23.1099 29.73 21.9899 30.32C19.5599 31.63 13.1299 33.24 9.1899 30.67C7.25983 29.412 5.60165 27.7798 4.31343 25.8698C3.02521 23.9598 2.1331 21.8108 1.6899 19.55C0.00989538 12.06 1.21991 9.67003 2.55991 6.78003C3.52847 5.3435 4.63361 4.00394 5.85991 2.78003C5.85991 2.78003 5.8099 14.33 8.6299 18.47C11.4499 22.61 26.1799 26.32 26.1799 26.32Z" fill="black"/>
<path d="M10.03 10.3C10.7072 9.93936 11.4627 9.75071 12.23 9.75071C12.9973 9.75071 13.7528 9.93936 14.43 10.3C16.8728 11.7968 18.8152 13.9863 20.01 16.5901C20.83 18.9201 20.29 23.94 20.29 23.94C20.29 23.94 29.72 17.1401 22.37 10.8101C15.02 4.48005 11.26 7.67004 10.03 10.3Z" fill="black"/>
<path d="M10.09 0.670035C16.86 -0.909965 22.32 4.67004 28.61 11.67C33.92 17.59 26.52 29.87 17.61 30.43C8.70004 30.99 4.84003 25.15 3.24003 17.2C2.00003 10.79 2.04003 2.54003 10.09 0.670035ZM15.09 21.94C18.61 22.62 24.77 19.17 21.82 14.94C19.69 11.88 15.93 7.23002 12.75 8.80002C7.08004 11.58 11.54 21.25 15.05 21.94H15.09Z" fill="url(#paint0_radial_0_1)"/>
<path d="M5.44005 3.16003C0.870047 11.37 3.38006 18.46 7.23006 24.96C9.62006 28.96 13.4801 29.53 17.8201 29.22C22.5101 28.87 24.89 27.44 28.44 23.1C27.5876 24.9342 26.2747 26.5163 24.6291 27.6922C22.9835 28.8681 21.0614 29.5977 19.05 29.81C14.79 30.31 10.28 30.11 7.41005 26.39C2.75005 20.34 -0.889953 9.18003 5.44005 3.16003Z" fill="#569B9B"/>
<path d="M11.9001 9.28003C9.90007 11.05 10.1001 17.19 12.5601 19.86C15.7301 23.28 21.5601 21.65 22.5601 17.62C22.4601 22.13 16.2001 23.95 12.8601 20.87C10.1201 18.35 8.38007 11.77 11.9001 9.28003Z" fill="#569B9B"/>
<path opacity="0.3" d="M8.90001 2.75002C9.95035 2.21046 11.1142 1.92902 12.295 1.92902C13.4758 1.92902 14.6396 2.21046 15.69 2.75002C16.91 3.31002 19.8 5.06002 19.06 6.55002C18.44 7.80002 15.75 6.66002 14.3 6.55002C11.73 6.40002 11.07 7.55003 9.3 8.84003C7.78 9.98003 5.85001 9.77002 5.73001 7.54002C5.62001 5.52002 7.29001 3.67002 8.90001 2.75002Z" fill="url(#paint1_linear_0_1)"/>
<path opacity="0.3" d="M9.89996 20.84C11.27 21.47 11.46 22.84 13.64 23.77C14.17 23.99 16.16 24.59 16.26 25.55C16.36 26.51 15.26 26.86 14.6 26.97C13.1142 27.2353 11.5838 26.9047 10.34 26.05C9.79199 25.5678 9.34469 24.9821 9.02377 24.3266C8.70286 23.671 8.51466 22.9585 8.46997 22.23C8.54997 21.36 9.11996 20.46 9.89996 20.84Z" fill="url(#paint2_linear_0_1)"/>
<path d="M8.34001 4.91001C8.57001 4.60001 9.16001 3.82001 9.54001 3.91001C9.92001 4.00001 9.43001 4.27002 9.32001 4.40002C8.74647 5.06822 8.31748 5.8479 8.06001 6.69001C7.97001 6.81001 7.73001 6.82001 7.70001 6.64001C7.69567 6.00467 7.92322 5.38956 8.34001 4.91001Z" fill="#569B9B"/>
<path d="M10.46 3.37999C10.5358 3.29474 10.6348 3.2333 10.7448 3.20313C10.8549 3.17296 10.9713 3.17534 11.08 3.21C11.1121 3.224 11.1395 3.24706 11.1586 3.27637C11.1778 3.30568 11.1881 3.33995 11.1881 3.37499C11.1881 3.41002 11.1778 3.44431 11.1586 3.47362C11.1395 3.50293 11.1121 3.52599 11.08 3.54C10.9294 3.60971 10.7719 3.66334 10.61 3.7C10.48 3.75 10.31 3.45999 10.46 3.37999Z" fill="#569B9B"/>
<path d="M19.8999 22.93C20.9652 23.8807 22.1647 24.6691 23.4599 25.27C23.8299 25.43 23.7399 25.69 23.2899 25.55C21.9077 25.0603 20.6724 24.2276 19.6999 23.13C19.5199 22.79 19.5399 22.53 19.8999 22.93Z" fill="#569B9B"/>
<path opacity="0.3" d="M23.34 14.93C24.7458 15.1834 26.1813 15.2272 27.5999 15.06C27.9999 15 28.0599 15.27 27.5999 15.38C26.1655 15.6974 24.6731 15.6354 23.2699 15.2C22.8999 15.02 22.82 14.79 23.34 14.93Z" fill="url(#paint3_linear_0_1)"/>
<path d="M21.0999 22.1201C21.3271 22.191 21.5379 22.3066 21.7199 22.46C21.8999 22.62 21.8299 22.7501 21.5999 22.6801C21.3771 22.5982 21.1731 22.4724 20.9999 22.3101C20.8199 22.1601 20.8999 22.0401 21.0999 22.1201Z" fill="#569B9B"/>
<path d="M28.9 14.57C28.622 13.277 27.8507 12.1433 26.75 11.41C26.51 11.28 26.4 10.93 26.75 11.09C29 12.29 30.68 16.39 28.47 18.34C28.21 18.57 28.01 18.55 28.13 18.14C28.47 16.82 29.17 15.98 28.9 14.57Z" fill="#569B9B"/>
<path d="M22.0099 10.17C22.1603 10.0736 22.3319 10.0153 22.5099 10C22.5516 9.99435 22.594 10.0027 22.6304 10.0236C22.6668 10.0446 22.6953 10.0771 22.7113 10.116C22.7273 10.1548 22.73 10.1979 22.7189 10.2385C22.7078 10.279 22.6835 10.3147 22.6499 10.34C22.5165 10.4571 22.3542 10.5364 22.1799 10.57C22.1291 10.5828 22.0754 10.5769 22.0285 10.5536C21.9816 10.5302 21.9445 10.4909 21.924 10.4427C21.9035 10.3945 21.9009 10.3405 21.9167 10.2905C21.9324 10.2405 21.9655 10.1978 22.0099 10.17Z" fill="#569B9B"/>
<path opacity="0.3" d="M26.5001 13.7C26.6456 13.6012 26.8146 13.5426 26.9901 13.53C27.0327 13.5211 27.077 13.5271 27.1157 13.547C27.1544 13.5669 27.185 13.5995 27.2026 13.6393C27.2202 13.6791 27.2235 13.7237 27.2122 13.7657C27.2008 13.8077 27.1753 13.8445 27.1401 13.87C27.0007 13.9838 26.8361 14.0626 26.6601 14.1C26.6103 14.1088 26.559 14.1002 26.5147 14.0757C26.4705 14.0511 26.4361 14.012 26.4173 13.9651C26.3986 13.9181 26.3965 13.8661 26.4116 13.8178C26.4267 13.7695 26.4579 13.7279 26.5001 13.7Z" fill="url(#paint4_linear_0_1)"/>
<path d="M21.29 8.59998C21.3872 8.3375 21.5488 8.10368 21.76 7.91998C22.05 7.66998 22.32 7.80998 22.07 8.22998C21.9279 8.45568 21.7275 8.63879 21.49 8.75998C21.39 8.80998 21.24 8.71998 21.29 8.59998Z" fill="#569B9B"/>
<defs>
<radialGradient id="paint0_radial_0_1" cx="0" cy="0" r="1" gradientUnits="userSpaceOnUse" gradientTransform="translate(16.59 15.61) rotate(180) scale(15.77 15.77)">
<stop stop-color="#1A4950"/>
<stop offset="0.99"/>
</radialGradient>
<linearGradient id="paint1_linear_0_1" x1="5.48001" y1="6.57002" x2="18.71" y2="3.83003" gradientUnits="userSpaceOnUse">
<stop stop-color="#1A4950"/>
<stop offset="0.11" stop-color="#1C535A"/>
<stop offset="0.39" stop-color="#20646C"/>
<stop offset="0.67" stop-color="#226F77"/>
<stop offset="1" stop-color="#23727A"/>
</linearGradient>
<linearGradient id="paint2_linear_0_1" x1="8.86997" y1="24.52" x2="15.78" y2="23.09" gradientUnits="userSpaceOnUse">
<stop stop-color="#1A4950"/>
<stop offset="0.11" stop-color="#1C535A"/>
<stop offset="0.39" stop-color="#20646C"/>
<stop offset="0.67" stop-color="#226F77"/>
<stop offset="1" stop-color="#23727A"/>
</linearGradient>
<linearGradient id="paint3_linear_0_1" x1="27.92" y1="15.23" x2="22.98" y2="15.23" gradientUnits="userSpaceOnUse">
<stop stop-color="#1A4950"/>
<stop offset="0.11" stop-color="#1C535A"/>
<stop offset="0.39" stop-color="#20646C"/>
<stop offset="0.67" stop-color="#226F77"/>
<stop offset="1" stop-color="#23727A"/>
</linearGradient>
<linearGradient id="paint4_linear_0_1" x1="27.2201" y1="13.81" x2="26.3901" y2="13.81" gradientUnits="userSpaceOnUse">
<stop stop-color="#1A4950"/>
<stop offset="0.11" stop-color="#1C535A"/>
<stop offset="0.39" stop-color="#20646C"/>
<stop offset="0.67" stop-color="#226F77"/>
<stop offset="1" stop-color="#23727A"/>
</linearGradient>
</defs>
</svg>
