<svg width="64" height="51" viewBox="0 0 64 51" fill="none" xmlns="http://www.w3.org/2000/svg">
<path opacity="0.5" d="M19.86 49.75C25.86 51.21 32.3 49.17 37.76 46.67C44.0092 43.8118 49.6618 39.798 54.42 34.84C57.1768 31.9968 59.5931 28.8422 61.62 25.44C63.26 22.64 64.28 19.65 63.62 16.44C63.2287 13.341 58 8.5 55.5 7C57 11.5 58.41 23.21 54.12 28.94C49.5901 34.9868 43.5 39 37 43C33.08 44.94 28.6 46.91 24.19 46.99C22.0684 46.9967 19.9669 46.5791 18.0091 45.7617C16.0513 44.9442 14.2768 43.7434 12.79 42.23C9.38519 38.7656 6.4318 34.8849 4 30.68C4.74852 32.8357 5.63708 34.9402 6.66 36.98C9.42 42.59 13.42 48.2 19.86 49.75Z" fill="url(#paint0_linear_2_1704)"/>
<path d="M53.7686 10.1643C50.1886 5.39434 36.1986 1.80434 25.0286 2.81434C20.5786 3.21434 12.6386 3.93434 9.5686 6.58434C9.89027 6.41527 10.2246 6.27149 10.5686 6.15433C12.5324 5.51296 14.5828 5.17573 16.6486 5.15433C19.2886 4.96433 21.9386 4.85435 24.5786 4.82435C30.7386 4.75435 44.8986 6.20434 51.9586 11.6643C52.9868 12.4725 53.8811 13.4376 54.6086 14.5243C55.033 15.1095 55.2827 15.803 55.3286 16.5243C55.5948 15.4167 55.5921 14.2614 55.3207 13.1549C55.0493 12.0485 54.5172 11.0231 53.7686 10.1643Z" fill="white"/>
<path opacity="0.5" d="M53.7686 10.1643C50.1886 5.39434 36.1986 1.80434 25.0286 2.81434C20.5786 3.21434 12.6386 3.93434 9.5686 6.58434C9.89027 6.41527 10.2246 6.27149 10.5686 6.15433C12.5324 5.51296 14.5828 5.17573 16.6486 5.15433C19.2886 4.96433 21.9386 4.85435 24.5786 4.82435C30.7386 4.75435 44.8986 6.20434 51.9586 11.6643C52.9868 12.4725 53.8811 13.4376 54.6086 14.5243C55.033 15.1095 55.2827 15.803 55.3286 16.5243C55.5948 15.4167 55.5921 14.2614 55.3207 13.1549C55.0493 12.0485 54.5172 11.0231 53.7686 10.1643Z" fill="url(#paint1_linear_2_1704)"/>
<path d="M22.9684 48.4843C27.3784 48.4043 31.7984 46.6844 35.7184 44.7444C42.4845 41.3822 48.3685 36.4812 52.8984 30.4344C57.1884 24.7044 61.6584 16.5544 58.7684 9.49436C54.8384 5.00436 46.4184 1.18435 27.0484 0.00434967C23.0258 -0.0427063 19.0078 0.292128 15.0484 1.00435C11.9716 1.3537 8.99434 2.30872 6.28841 3.81435C0.998409 7.08435 -0.281596 13.4843 0.0484038 19.2843C0.325413 23.7213 1.2242 28.0974 2.71842 32.2843C5.17065 36.4675 8.14076 40.3246 11.5584 43.7643C13.0498 45.2717 14.8274 46.4658 16.7868 47.2764C18.7463 48.087 20.848 48.4977 22.9684 48.4843ZM9.56841 6.58435C12.6384 3.93435 20.5684 3.21435 25.0284 2.81435C36.1984 1.81435 50.1884 5.39435 53.7684 10.1644C54.5054 11.0234 55.0275 12.0454 55.2918 13.146C55.5561 14.2466 55.5549 15.3943 55.2884 16.4944C55.2152 17.7801 54.7628 19.0154 53.9884 20.0444C51.2906 24.5093 48.0639 28.6324 44.3784 32.3244C38.3784 38.3244 29.6284 45.6143 20.4984 44.2043C9.34842 42.4843 5.49841 29.3043 4.20841 20.0943C3.56841 15.5043 5.00841 9.05435 9.56841 6.58435Z" fill="white"/>
<defs>
<linearGradient id="paint0_linear_2_1704" x1="-2.2" y1="29.09" x2="72.02" y2="29.09" gradientUnits="userSpaceOnUse">
<stop stop-color="#EA4E65"/>
<stop offset="0.31" stop-color="#EA5565"/>
<stop offset="0.75" stop-color="#EA6865"/>
<stop offset="1" stop-color="#EA7665"/>
</linearGradient>
<linearGradient id="paint1_linear_2_1704" x1="9.5686" y1="9.57434" x2="55.5186" y2="9.57434" gradientUnits="userSpaceOnUse">
<stop stop-color="#EA4E65"/>
<stop offset="0.31" stop-color="#EA5565"/>
<stop offset="0.75" stop-color="#EA6865"/>
<stop offset="1" stop-color="#EA7665"/>
</linearGradient>
</defs>
</svg>
