<svg width="960" height="955" viewBox="0 0 960 955" fill="none" xmlns="http://www.w3.org/2000/svg">
<path fill-rule="evenodd" clip-rule="evenodd" d="M936.025 404.522C946.584 412.805 953.252 426.294 954.015 441.257C954.957 459.703 955.899 478.149 956.841 496.595L956.879 497.345L956.965 499.036C957.77 514.811 958.576 530.586 959.381 546.361C960.369 565.718 961.064 586.182 954.127 604.523C950.369 614.46 946.41 623.686 940.468 632.33C936.355 638.313 932.043 644.138 927.73 649.962C924.498 654.574 921.5 659.286 918.95 664.33C920.525 666.768 922.082 669.213 923.172 671.905L923.195 671.961C927.701 683.095 929.677 687.976 930.604 700.057C931.067 706.086 930.243 712.342 928.862 718.177C925.48 732.456 917.555 746.072 909.478 757.989C893.365 781.765 875.361 801.215 853.392 818.864C834.158 834.318 812.396 845.803 789.607 854.19C780.112 857.684 770.429 860.551 760.748 863.416L760.747 863.417L760.746 863.417C749.122 866.858 737.5 870.298 726.21 874.824C713.401 881.223 701.557 889.396 689.89 897.907C688.582 898.861 687.275 899.818 685.968 900.776C673.737 909.731 661.436 918.738 648.002 925.557C630.617 934.38 612.494 941.735 593.613 946.03C558.146 954.098 521.818 955.671 485.665 954.776C410.549 952.916 334.111 950.309 260.664 932.155C257.237 931.308 254.027 929.974 251.067 928.239C244.425 928.513 238.392 925.448 231.776 921.13L223.102 915.469C211.243 907.729 199.385 899.989 187.526 892.25C183.578 889.673 179.595 887.164 175.607 884.651C165.87 878.516 156.102 872.362 146.739 865.159C129.829 852.151 117.205 833.512 105.993 810.771C102.468 803.62 99.2438 796.155 96.0202 788.69C93.4328 782.698 90.8454 776.707 88.1019 770.878C81.5661 759.284 73.9781 749.324 66.3873 739.361L66.3869 739.36C59.04 729.717 51.6906 720.071 45.2903 708.936C28.8736 680.376 16.4584 648.426 8.64267 612.367C1.79676 580.787 -1.50918 545.574 0.660887 512.388C3.16107 474.138 9.11546 436.288 17.6763 400.109C28.3933 354.82 43 313.505 64.7351 278.084C83.0067 248.311 105.41 223.076 129.208 204.322C155.515 183.589 183.832 168.451 212.813 159.035C229.389 153.652 246.148 149.912 262.968 146.754C269.67 145.496 276.406 144.647 283.142 143.799L283.142 143.799L283.145 143.799C286.798 143.338 290.45 142.878 294.096 142.353C297.758 134.26 301.442 126.222 305.785 118.72C312.509 107.11 320.288 97.5662 328.485 88.4007C342.605 72.6133 359.656 61.2194 376.844 55.9079C384.455 53.5565 391.765 53.5565 398.771 57.5931L419.546 42.7446C430.67 34.7937 442.578 26.6516 456.428 25.0503C463.932 24.1826 471.097 23.7309 478.748 24.9899C484.044 25.8615 489.33 26.9414 494.615 28.0231C498.723 28.7414 502.792 29.2457 506.87 29.2888C507.662 27.1943 508.464 25.1115 509.611 23.2881L509.635 23.2498C514.379 15.7093 516.458 12.4038 523.27 7.20767C526.67 4.61394 530.746 2.90585 534.805 1.77454C544.739 -0.993293 556.188 -0.0912421 566.688 1.55742C587.635 4.84627 606.799 11.1706 626.555 21.1519C643.854 29.8904 659.848 42.0112 674.428 56.0596C680.503 61.9127 686.282 68.1412 692.06 74.3683C698.999 81.846 705.935 89.3217 713.38 96.1437C722.578 103.412 732.43 109.293 742.408 114.915C743.526 115.545 744.646 116.173 745.766 116.802C756.247 122.683 766.787 128.598 776.5 136.182C789.068 145.996 801.071 156.913 811.568 169.539C831.287 193.258 847.496 220.044 862.16 247.616C889.163 298.392 916.254 350.17 936.025 404.522Z" fill="#EA210C"/>
</svg>
