<svg width="1086" height="1086" viewBox="0 0 1086 1086" fill="none" xmlns="http://www.w3.org/2000/svg">
<path d="M543 1086C842.891 1086 1086 842.891 1086 543C1086 243.109 842.891 0 543 0C243.109 0 0 243.109 0 543C0 842.891 243.109 1086 543 1086Z" fill="url(#paint0_radial_0_1)"/>
<path d="M651.674 322.402C642.013 319.866 632.335 323.496 630.541 330.33C630.074 332.111 630.16 333.988 630.798 335.91L632.839 342.062L626.419 342.951C618.299 344.076 612.274 348.511 610.695 354.525C608.246 363.855 616.75 374.201 629.653 377.588C636.735 379.447 643.992 378.861 649.564 375.979L653.705 373.837L656.423 377.624C659.945 382.531 665.825 386.359 672.556 388.126C685.526 391.53 698.082 386.668 700.545 377.285C701.875 372.218 699.968 366.597 695.313 361.863L690.365 356.832L696.518 353.379C698.495 352.269 701.035 350.246 701.911 346.909C703.705 340.076 697.059 332.16 687.398 329.624C681.44 328.06 675.315 328.75 671.011 331.469L666.8 334.129L663.814 330.142C661.116 326.54 656.691 323.719 651.674 322.402ZM619.278 395.301C608.574 392.491 599.315 386.57 593.207 378.628C586.782 370.276 584.551 360.696 586.925 351.654C589.752 340.885 598.779 332.686 611.055 329.378C610.83 326.681 611.055 323.991 611.732 321.409C615.712 306.248 634.21 297.92 652.966 302.844C660.32 304.774 666.832 308.476 671.728 313.447C679.353 310.083 688.541 309.488 697.621 311.871C716.378 316.795 728.399 333.136 724.419 348.297C723.234 352.812 720.705 356.873 717.111 360.134C722.981 368.206 725.021 377.47 722.712 386.266C720.33 395.34 713.657 402.614 703.923 406.749C694.667 410.682 683.651 411.294 672.906 408.473C663.23 405.933 654.804 400.912 648.747 394.149C639.891 397.513 629.395 397.957 619.278 395.301Z" fill="#339900"/>
<path d="M671.812 386.536C663.523 384.36 656.773 379.683 652.668 373.963C646.176 377.321 637.604 378.281 628.909 375.999C613.105 371.85 602.895 358.576 606.104 346.35C608.319 337.913 616.348 332.182 626.304 330.802C625.369 327.984 625.194 325.033 625.95 322.154C628.534 312.311 640.944 307.039 653.669 310.379C660.141 312.078 665.444 315.68 668.756 320.103C674.118 316.716 681.696 315.581 689.393 317.601C702.117 320.942 710.338 331.629 707.753 341.473C706.648 345.684 703.741 349.054 699.784 351.275C705.544 357.132 708.272 364.669 706.387 371.848C703.164 384.127 687.684 390.703 671.812 386.536ZM709.866 352.374C714.812 349.598 718.447 345.385 719.828 340.121C723.058 327.817 712.783 314.457 696.877 310.282C687.256 307.756 677.784 309.174 671.082 313.409C666.941 307.88 660.313 303.378 652.223 301.254C636.317 297.079 620.805 303.668 617.574 315.973C616.63 319.572 616.848 323.26 618.017 326.783C605.571 328.507 595.536 335.671 592.767 346.217C588.755 361.5 601.518 378.092 621.273 383.279C632.142 386.132 642.857 384.931 650.971 380.734C656.103 387.883 664.541 393.73 674.902 396.45C694.742 401.658 714.092 393.439 718.121 378.091C720.477 369.116 717.066 359.695 709.866 352.374Z" fill="#72EF43"/>
<path fill-rule="evenodd" clip-rule="evenodd" d="M1009.03 448.522C1019.58 456.805 1026.25 470.294 1027.02 485.257C1027.96 503.703 1028.9 522.149 1029.84 540.595L1029.88 541.345L1029.97 543.036C1030.77 558.811 1031.58 574.586 1032.38 590.361C1033.37 609.718 1034.06 630.182 1027.13 648.523C1023.37 658.46 1019.41 667.686 1013.47 676.33C1009.35 682.313 1005.04 688.138 1000.73 693.962C997.498 698.574 994.5 703.286 991.95 708.33C993.525 710.768 995.082 713.213 996.172 715.905L996.195 715.961C1000.7 727.095 1002.68 731.976 1003.6 744.057C1004.07 750.086 1003.24 756.342 1001.86 762.177C998.48 776.456 990.555 790.072 982.478 801.989C966.365 825.765 948.361 845.215 926.392 862.864C907.158 878.318 885.396 889.803 862.607 898.19C853.112 901.684 843.429 904.551 833.748 907.416L833.747 907.417L833.746 907.417C822.122 910.858 810.5 914.298 799.21 918.824C786.401 925.223 774.557 933.396 762.89 941.907C761.582 942.861 760.275 943.818 758.968 944.776C746.737 953.731 734.436 962.738 721.002 969.557C703.617 978.38 685.494 985.735 666.613 990.03C631.146 998.098 594.818 999.671 558.665 998.776C483.549 996.916 407.111 994.309 333.664 976.155C330.237 975.308 327.027 973.974 324.067 972.239C317.425 972.513 311.392 969.448 304.776 965.13L296.102 959.469C284.243 951.729 272.385 943.989 260.526 936.25C256.578 933.673 252.595 931.164 248.607 928.651C238.87 922.516 229.102 916.362 219.739 909.159C202.829 896.151 190.205 877.512 178.993 854.771C175.468 847.62 172.244 840.155 169.02 832.69C166.433 826.698 163.845 820.707 161.102 814.878C154.566 803.284 146.978 793.324 139.387 783.361L139.387 783.36C132.04 773.717 124.691 764.071 118.29 752.936C101.874 724.376 89.4584 692.426 81.6427 656.367C74.7968 624.787 71.4908 589.574 73.6609 556.388C76.1611 518.138 82.1155 480.288 90.6763 444.109C101.393 398.82 116 357.505 137.735 322.084C156.007 292.311 178.41 267.076 202.208 248.322C228.515 227.589 256.832 212.451 285.813 203.035C302.389 197.652 319.148 193.912 335.968 190.754C342.67 189.496 349.406 188.647 356.142 187.799L356.142 187.799L356.145 187.799C359.798 187.338 363.45 186.878 367.096 186.353C370.758 178.26 374.442 170.222 378.785 162.72C385.509 151.11 393.288 141.566 401.485 132.401C415.605 116.613 432.656 105.219 449.844 99.9079C457.455 97.5565 464.765 97.5565 471.771 101.593L492.546 86.7446C503.67 78.7937 515.578 70.6516 529.428 69.0503C536.932 68.1826 544.097 67.7309 551.748 68.9899C557.044 69.8615 562.33 70.9414 567.615 72.0231C571.723 72.7414 575.792 73.2457 579.87 73.2888C580.662 71.1943 581.464 69.1115 582.611 67.2881L582.635 67.2498C587.379 59.7093 589.458 56.4038 596.27 51.2077C599.67 48.6139 603.746 46.9059 607.805 45.7745C617.739 43.0067 629.188 43.9088 639.688 45.5574C660.635 48.8463 679.799 55.1706 699.555 65.1519C716.854 73.8904 732.848 86.0112 747.428 100.06C753.503 105.913 759.282 112.141 765.06 118.368C771.999 125.846 778.935 133.322 786.38 140.144C795.578 147.412 805.43 153.293 815.408 158.915C816.526 159.545 817.646 160.173 818.766 160.802C829.247 166.683 839.787 172.598 849.5 180.182C862.068 189.996 874.071 200.913 884.568 213.539C904.287 237.258 920.496 264.044 935.16 291.616C962.163 342.392 989.254 394.17 1009.03 448.522Z" fill="#EA210C"/>
<path d="M970.839 560.676L959.122 433.763C927.649 370.052 933.585 331.109 862.842 270.828L805.201 193.755C802.807 195.085 765.904 112.144 677.787 132.102L660.011 132.102L621.605 132.102C584.815 132.101 584.815 123.594 549.456 136.467L383.963 168.937C371.595 168.937 336.471 209.48 326.577 230.819C316.683 252.157 309.969 273.495 304.315 273.495C209.438 273.495 140.503 368.938 140.503 463.9C140.503 468.228 144.92 477.116 145.234 481.363C108.641 512.896 100 562.564 100 614.685C100 688.482 124.945 755.094 190.179 779.483C196.492 868.693 292.299 955.947 383.037 955.947C412.511 955.947 453.066 980.302 477.306 967.212C508.533 999.467 552.265 999 600.683 999C668.918 999 726.641 955.671 754.365 897.983C759.557 898.456 826.231 883.015 831.548 883.015C926.426 883.015 1003.34 806.033 1003.34 711.071C1003.34 701.553 1004.83 672.552 1003.34 663.454C988.498 560.676 977.472 581.213 970.839 560.676Z" fill="#F4ED76"/>
<path d="M931.784 715.628C931.784 715.628 923.366 722.965 920.295 724.234C913.632 727.052 896.001 730.516 885.198 724.987C879.906 722.28 875.359 718.769 871.827 714.659C868.295 710.55 865.849 705.926 864.634 701.062C860.027 684.947 863.345 679.805 867.019 673.587C869.675 670.497 872.705 667.615 876.067 664.981C876.067 664.981 875.93 689.831 883.663 698.739C891.395 707.646 931.784 715.628 931.784 715.628Z" fill="black"/>
<path d="M887.502 681.161C889.358 680.385 891.43 679.979 893.534 679.979C895.638 679.979 897.709 680.385 899.566 681.161C906.264 684.381 911.59 689.092 914.866 694.694C917.114 699.707 915.634 710.507 915.634 710.507C915.634 710.507 941.49 695.877 921.337 682.258C901.184 668.639 890.874 675.502 887.502 681.161Z" fill="black"/>
<path d="M887.666 660.442C906.229 657.042 921.2 669.048 938.447 684.108C953.006 696.845 932.716 723.266 908.285 724.471C883.855 725.675 873.271 713.111 868.884 696.006C865.484 682.215 865.594 664.465 887.666 660.442ZM901.376 706.204C911.027 707.667 927.918 700.245 919.829 691.144C913.989 684.56 903.679 674.556 894.96 677.933C879.413 683.915 891.642 704.72 901.266 706.204H901.376Z" fill="url(#paint1_radial_0_1)"/>
<path d="M874.916 665.799C862.386 683.463 869.268 698.717 879.824 712.702C886.378 721.308 896.962 722.534 908.862 721.867C921.721 721.114 928.247 718.038 937.981 708.7C935.643 712.646 932.044 716.05 927.531 718.58C923.019 721.11 917.749 722.68 912.234 723.137C900.553 724.212 888.187 723.782 880.318 715.778C867.54 702.762 857.56 678.751 874.916 665.799Z" fill="#569B9B"/>
<path d="M892.629 678.966C887.145 682.774 887.694 695.984 894.439 701.729C903.131 709.087 919.116 705.58 921.858 696.91C921.584 706.613 904.42 710.529 895.262 703.902C887.749 698.48 882.978 684.323 892.629 678.966Z" fill="#569B9B"/>
<path opacity="0.3" d="M884.403 664.917C887.283 663.756 890.474 663.15 893.712 663.15C896.95 663.15 900.141 663.756 903.021 664.917C906.366 666.122 914.29 669.887 912.261 673.092C910.561 675.782 903.186 673.329 899.21 673.092C892.163 672.77 890.353 675.244 885.5 678.019C881.332 680.472 876.04 680.02 875.711 675.222C875.41 670.876 879.989 666.896 884.403 664.917Z" fill="url(#paint2_linear_0_1)"/>
<path opacity="0.3" d="M887.145 703.838C890.902 705.193 891.423 708.141 897.4 710.141C898.853 710.615 904.31 711.906 904.584 713.971C904.858 716.037 901.842 716.79 900.032 717.026C895.958 717.597 891.762 716.886 888.352 715.047C886.849 714.009 885.623 712.749 884.743 711.339C883.863 709.928 883.347 708.396 883.224 706.828C883.443 704.956 885.006 703.02 887.145 703.838Z" fill="url(#paint3_linear_0_1)"/>
<path d="M882.868 669.564C883.498 668.897 885.116 667.219 886.158 667.412C887.2 667.606 885.857 668.187 885.555 668.467C883.982 669.904 882.806 671.582 882.1 673.394C881.853 673.652 881.195 673.673 881.113 673.286C881.101 671.919 881.725 670.596 882.868 669.564Z" fill="#569B9B"/>
<path d="M888.681 666.272C888.888 666.089 889.16 665.957 889.462 665.892C889.763 665.827 890.083 665.832 890.381 665.906C890.469 665.937 890.544 665.986 890.596 666.049C890.649 666.112 890.677 666.186 890.677 666.261C890.677 666.337 890.649 666.411 890.596 666.474C890.544 666.537 890.469 666.586 890.381 666.616C889.968 666.766 889.536 666.882 889.092 666.961C888.735 667.068 888.269 666.444 888.681 666.272Z" fill="#569B9B"/>
<path d="M914.564 708.334C917.485 710.38 920.774 712.076 924.326 713.369C925.34 713.713 925.093 714.272 923.859 713.971C920.07 712.918 916.682 711.126 914.016 708.765C913.522 708.033 913.577 707.474 914.564 708.334Z" fill="#569B9B"/>
<path opacity="0.3" d="M923.997 691.122C927.851 691.667 931.787 691.762 935.677 691.402C936.774 691.273 936.938 691.854 935.677 692.09C931.744 692.773 927.652 692.64 923.805 691.703C922.79 691.316 922.571 690.821 923.997 691.122Z" fill="url(#paint4_linear_0_1)"/>
<path d="M917.855 706.592C918.478 706.744 919.056 706.993 919.555 707.323C920.048 707.667 919.856 707.947 919.226 707.797C918.615 707.62 918.055 707.35 917.58 707.001C917.087 706.678 917.306 706.42 917.855 706.592Z" fill="#569B9B"/>
<path d="M939.242 690.348C938.48 687.566 936.365 685.126 933.347 683.549C932.689 683.269 932.387 682.516 933.347 682.86C939.516 685.442 944.123 694.263 938.063 698.459C937.35 698.954 936.802 698.911 937.131 698.028C938.063 695.188 939.982 693.381 939.242 690.348Z" fill="#569B9B"/>
<path d="M920.35 680.881C920.762 680.674 921.233 680.548 921.721 680.515C921.835 680.503 921.951 680.521 922.051 680.566C922.151 680.611 922.229 680.681 922.273 680.765C922.317 680.848 922.324 680.941 922.294 681.028C922.263 681.115 922.197 681.192 922.105 681.247C921.739 681.499 921.294 681.669 920.816 681.742C920.677 681.769 920.529 681.756 920.401 681.706C920.272 681.656 920.17 681.571 920.114 681.468C920.058 681.364 920.051 681.248 920.094 681.14C920.137 681.033 920.228 680.941 920.35 680.881Z" fill="#569B9B"/>
<path opacity="0.3" d="M932.662 688.476C933.06 688.263 933.524 688.137 934.005 688.11C934.122 688.091 934.243 688.104 934.349 688.147C934.456 688.189 934.539 688.259 934.588 688.345C934.636 688.431 934.645 688.527 934.614 688.617C934.583 688.707 934.513 688.787 934.416 688.841C934.034 689.086 933.583 689.256 933.1 689.336C932.964 689.355 932.823 689.337 932.702 689.284C932.58 689.231 932.486 689.147 932.435 689.046C932.383 688.945 932.377 688.833 932.419 688.729C932.46 688.625 932.546 688.536 932.662 688.476Z" fill="url(#paint5_linear_0_1)"/>
<path d="M918.376 677.503C918.642 676.938 919.085 676.435 919.665 676.04C920.46 675.502 921.2 675.803 920.515 676.707C920.125 677.192 919.575 677.586 918.924 677.847C918.65 677.955 918.239 677.761 918.376 677.503Z" fill="#569B9B"/>
<g clip-path="url(#clip0_0_1)">
<path d="M511.922 730.773C502.261 728.237 492.583 731.867 490.789 738.701C490.322 740.482 490.408 742.359 491.046 744.281L493.087 750.433L486.667 751.322C478.547 752.447 472.522 756.882 470.943 762.896C468.494 772.226 476.998 782.572 489.901 785.959C496.983 787.818 504.24 787.232 509.812 784.35L513.953 782.208L516.671 785.995C520.193 790.902 526.073 794.73 532.804 796.497C545.774 799.901 558.33 795.039 560.793 785.656C562.123 780.589 560.216 774.968 555.561 770.234L550.613 765.203L556.766 761.75C558.743 760.64 561.283 758.617 562.159 755.28C563.953 748.447 557.307 740.531 547.646 737.995C541.688 736.431 535.563 737.121 531.259 739.84L527.048 742.5L524.062 738.513C521.364 734.911 516.939 732.09 511.922 730.773ZM479.526 803.672C468.822 800.862 459.563 794.941 453.455 786.999C447.03 778.647 444.799 769.067 447.173 760.025C450 749.256 459.027 741.057 471.303 737.749C471.078 735.052 471.303 732.362 471.98 729.78C475.96 714.619 494.458 706.291 513.214 711.215C520.568 713.145 527.08 716.847 531.976 721.818C539.601 718.454 548.789 717.859 557.869 720.242C576.626 725.166 588.647 741.507 584.667 756.668C583.482 761.183 580.953 765.244 577.359 768.505C583.229 776.577 585.269 785.841 582.96 794.637C580.578 803.711 573.905 810.985 564.171 815.12C554.915 819.053 543.899 819.665 533.154 816.844C523.478 814.304 515.052 809.283 508.995 802.52C500.139 805.884 489.643 806.328 479.526 803.672Z" fill="#339900"/>
<path d="M532.06 794.907C523.771 792.731 517.021 788.054 512.916 782.334C506.424 785.692 497.852 786.652 489.157 784.37C473.353 780.221 463.143 766.947 466.352 754.721C468.567 746.284 476.596 740.553 486.552 739.173C485.617 736.355 485.442 733.404 486.198 730.525C488.782 720.682 501.192 715.41 513.917 718.75C520.389 720.449 525.692 724.051 529.004 728.474C534.366 725.087 541.944 723.952 549.641 725.972C562.365 729.313 570.586 740 568.001 749.844C566.896 754.055 563.989 757.425 560.032 759.646C565.792 765.503 568.52 773.04 566.635 780.219C563.412 792.498 547.932 799.074 532.06 794.907ZM570.114 760.745C575.06 757.969 578.695 753.756 580.076 748.492C583.306 736.188 573.031 722.828 557.125 718.653C547.504 716.127 538.032 717.545 531.33 721.78C527.189 716.251 520.561 711.749 512.471 709.625C496.565 705.45 481.053 712.039 477.822 724.344C476.878 727.943 477.096 731.631 478.265 735.154C465.819 736.878 455.784 744.042 453.015 754.588C449.003 769.871 461.766 786.463 481.521 791.65C492.39 794.503 503.105 793.302 511.219 789.105C516.351 796.254 524.789 802.101 535.15 804.821C554.99 810.029 574.34 801.81 578.369 786.462C580.725 777.487 577.314 768.066 570.114 760.745Z" fill="#72EF43"/>
</g>
<path d="M572.784 920.628C572.784 920.628 564.366 927.965 561.295 929.234C554.632 932.052 537.001 935.516 526.198 929.987C520.906 927.28 516.359 923.769 512.827 919.659C509.295 915.55 506.849 910.926 505.634 906.062C501.027 889.947 504.345 884.805 508.019 878.587C510.675 875.497 513.705 872.615 517.068 869.981C517.068 869.981 516.93 894.831 524.663 903.739C532.395 912.646 572.784 920.628 572.784 920.628Z" fill="black"/>
<path d="M528.502 886.161C530.358 885.385 532.43 884.979 534.534 884.979C536.638 884.979 538.709 885.385 540.566 886.161C547.264 889.381 552.59 894.092 555.866 899.694C558.114 904.707 556.634 915.507 556.634 915.507C556.634 915.507 582.49 900.877 562.337 887.258C542.184 873.639 531.874 880.502 528.502 886.161Z" fill="black"/>
<path d="M528.666 865.442C547.229 862.042 562.2 874.048 579.447 889.108C594.006 901.845 573.716 928.266 549.286 929.471C524.855 930.675 514.271 918.111 509.884 901.006C506.484 887.215 506.594 869.465 528.666 865.442ZM542.376 911.204C552.027 912.667 568.918 905.245 560.829 896.144C554.989 889.56 544.679 879.556 535.96 882.933C520.413 888.915 532.642 909.72 542.266 911.204H542.376Z" fill="url(#paint6_radial_0_1)"/>
<path d="M515.916 870.799C503.386 888.463 510.268 903.717 520.824 917.702C527.378 926.308 537.962 927.534 549.862 926.867C562.721 926.114 569.247 923.038 578.981 913.7C576.643 917.646 573.044 921.05 568.531 923.58C564.019 926.11 558.749 927.68 553.234 928.137C541.553 929.212 529.187 928.782 521.318 920.778C508.54 907.762 498.56 883.751 515.916 870.799Z" fill="#569B9B"/>
<path d="M533.629 883.966C528.145 887.774 528.694 900.984 535.439 906.729C544.131 914.087 560.116 910.58 562.858 901.91C562.584 911.613 545.42 915.529 536.262 908.902C528.749 903.48 523.978 889.323 533.629 883.966Z" fill="#569B9B"/>
<path opacity="0.3" d="M525.403 869.917C528.283 868.756 531.474 868.15 534.712 868.15C537.95 868.15 541.141 868.756 544.021 869.917C547.366 871.122 555.29 874.887 553.261 878.092C551.561 880.782 544.185 878.329 540.21 878.092C533.163 877.77 531.353 880.244 526.5 883.019C522.332 885.472 517.04 885.02 516.711 880.222C516.41 875.876 520.989 871.896 525.403 869.917Z" fill="url(#paint7_linear_0_1)"/>
<path opacity="0.3" d="M528.145 908.838C531.902 910.193 532.423 913.141 538.4 915.141C539.853 915.615 545.31 916.906 545.584 918.971C545.858 921.037 542.842 921.79 541.032 922.026C536.958 922.597 532.762 921.886 529.352 920.047C527.849 919.009 526.623 917.749 525.743 916.339C524.863 914.928 524.347 913.396 524.224 911.828C524.443 909.956 526.006 908.02 528.145 908.838Z" fill="url(#paint8_linear_0_1)"/>
<path d="M523.868 874.564C524.498 873.897 526.116 872.219 527.158 872.412C528.2 872.606 526.857 873.187 526.555 873.467C524.982 874.904 523.806 876.582 523.1 878.394C522.853 878.652 522.195 878.673 522.113 878.286C522.101 876.919 522.725 875.596 523.868 874.564Z" fill="#569B9B"/>
<path d="M529.681 871.272C529.889 871.089 530.16 870.957 530.462 870.892C530.763 870.827 531.083 870.832 531.381 870.906C531.469 870.937 531.544 870.986 531.596 871.049C531.649 871.112 531.677 871.186 531.677 871.261C531.677 871.337 531.649 871.411 531.596 871.474C531.544 871.537 531.469 871.586 531.381 871.616C530.968 871.766 530.536 871.882 530.092 871.961C529.736 872.068 529.269 871.444 529.681 871.272Z" fill="#569B9B"/>
<path d="M555.564 913.334C558.485 915.38 561.774 917.076 565.325 918.369C566.34 918.713 566.093 919.272 564.859 918.971C561.069 917.918 557.682 916.126 555.016 913.765C554.522 913.033 554.577 912.474 555.564 913.334Z" fill="#569B9B"/>
<path opacity="0.3" d="M564.997 896.122C568.851 896.667 572.787 896.762 576.677 896.402C577.774 896.273 577.938 896.854 576.677 897.09C572.744 897.773 568.652 897.64 564.805 896.703C563.79 896.316 563.571 895.821 564.997 896.122Z" fill="url(#paint9_linear_0_1)"/>
<path d="M558.855 911.592C559.478 911.744 560.056 911.993 560.555 912.323C561.048 912.667 560.856 912.947 560.226 912.797C559.615 912.62 559.055 912.35 558.58 912.001C558.087 911.678 558.306 911.42 558.855 911.592Z" fill="#569B9B"/>
<path d="M580.242 895.348C579.48 892.566 577.365 890.126 574.347 888.549C573.689 888.269 573.387 887.516 574.347 887.86C580.516 890.442 585.123 899.263 579.063 903.459C578.35 903.954 577.802 903.911 578.131 903.028C579.063 900.188 580.982 898.381 580.242 895.348Z" fill="#569B9B"/>
<path d="M561.35 885.881C561.762 885.674 562.233 885.548 562.721 885.515C562.835 885.503 562.951 885.521 563.051 885.566C563.151 885.611 563.229 885.681 563.273 885.765C563.317 885.848 563.324 885.941 563.294 886.028C563.263 886.115 563.197 886.192 563.105 886.247C562.739 886.499 562.294 886.669 561.816 886.742C561.677 886.769 561.529 886.756 561.401 886.706C561.272 886.656 561.17 886.571 561.114 886.468C561.058 886.364 561.051 886.248 561.094 886.14C561.137 886.033 561.228 885.941 561.35 885.881Z" fill="#569B9B"/>
<path opacity="0.3" d="M573.662 893.476C574.06 893.263 574.524 893.137 575.005 893.11C575.122 893.091 575.243 893.104 575.349 893.147C575.456 893.189 575.539 893.259 575.588 893.345C575.636 893.431 575.645 893.527 575.614 893.617C575.583 893.707 575.513 893.787 575.416 893.841C575.034 894.086 574.583 894.256 574.1 894.336C573.964 894.355 573.823 894.337 573.702 894.284C573.58 894.231 573.486 894.147 573.435 894.046C573.383 893.945 573.377 893.833 573.419 893.729C573.46 893.625 573.546 893.536 573.662 893.476Z" fill="url(#paint10_linear_0_1)"/>
<path d="M559.376 882.503C559.642 881.938 560.085 881.435 560.665 881.04C561.46 880.502 562.2 880.803 561.515 881.707C561.125 882.192 560.575 882.586 559.924 882.847C559.65 882.955 559.239 882.761 559.376 882.503Z" fill="#569B9B"/>
<g clip-path="url(#clip1_0_1)">
<path d="M324.922 506.773C315.261 504.237 305.583 507.867 303.789 514.701C303.322 516.482 303.408 518.359 304.046 520.281L306.087 526.433L299.667 527.322C291.547 528.447 285.522 532.882 283.943 538.896C281.494 548.226 289.998 558.572 302.901 561.959C309.983 563.818 317.24 563.232 322.812 560.35L326.953 558.208L329.671 561.995C333.193 566.902 339.073 570.73 345.804 572.497C358.774 575.901 371.33 571.039 373.793 561.656C375.123 556.589 373.216 550.968 368.561 546.234L363.613 541.203L369.766 537.75C371.743 536.64 374.283 534.617 375.159 531.28C376.953 524.447 370.307 516.531 360.646 513.995C354.688 512.431 348.563 513.121 344.259 515.84L340.048 518.5L337.062 514.513C334.364 510.911 329.939 508.09 324.922 506.773ZM292.526 579.672C281.822 576.862 272.563 570.941 266.455 562.999C260.03 554.647 257.799 545.067 260.173 536.025C263 525.256 272.027 517.057 284.303 513.749C284.078 511.052 284.303 508.362 284.98 505.78C288.96 490.619 307.458 482.291 326.214 487.215C333.568 489.145 340.08 492.847 344.976 497.818C352.601 494.454 361.789 493.859 370.869 496.242C389.626 501.166 401.647 517.507 397.667 532.668C396.482 537.183 393.953 541.244 390.359 544.505C396.229 552.577 398.269 561.841 395.96 570.637C393.578 579.711 386.905 586.985 377.171 591.12C367.915 595.053 356.899 595.665 346.154 592.844C336.478 590.304 328.052 585.283 321.995 578.52C313.139 581.884 302.643 582.328 292.526 579.672Z" fill="#339900"/>
<path d="M345.06 570.907C336.771 568.731 330.021 564.054 325.916 558.334C319.424 561.692 310.852 562.652 302.157 560.37C286.353 556.221 276.143 542.947 279.352 530.721C281.567 522.284 289.596 516.553 299.552 515.173C298.617 512.355 298.442 509.404 299.198 506.525C301.782 496.682 314.192 491.41 326.917 494.75C333.389 496.449 338.692 500.051 342.004 504.474C347.366 501.087 354.944 499.952 362.641 501.972C375.365 505.313 383.586 516 381.001 525.844C379.896 530.055 376.989 533.425 373.032 535.646C378.792 541.503 381.52 549.04 379.635 556.219C376.412 568.498 360.932 575.074 345.06 570.907ZM383.114 536.745C388.06 533.969 391.695 529.756 393.076 524.492C396.306 512.188 386.031 498.828 370.125 494.653C360.504 492.127 351.032 493.545 344.33 497.78C340.189 492.251 333.561 487.749 325.471 485.625C309.565 481.45 294.053 488.039 290.822 500.344C289.878 503.943 290.096 507.631 291.265 511.154C278.819 512.878 268.784 520.042 266.015 530.588C262.003 545.871 274.766 562.463 294.521 567.65C305.39 570.503 316.105 569.302 324.219 565.105C329.351 572.254 337.789 578.101 348.15 580.821C367.99 586.029 387.34 577.81 391.369 562.462C393.725 553.487 390.314 544.066 383.114 536.745Z" fill="#72EF43"/>
</g>
<path d="M819.784 579.628C819.784 579.628 811.366 586.965 808.295 588.234C801.632 591.052 784.001 594.516 773.198 588.987C767.906 586.28 763.359 582.769 759.827 578.659C756.295 574.55 753.849 569.926 752.634 565.062C748.027 548.947 751.345 543.805 755.019 537.587C757.675 534.497 760.705 531.615 764.067 528.981C764.067 528.981 763.93 553.831 771.663 562.739C779.395 571.646 819.784 579.628 819.784 579.628Z" fill="black"/>
<path d="M775.502 545.161C777.358 544.385 779.43 543.979 781.534 543.979C783.638 543.979 785.709 544.385 787.566 545.161C794.264 548.381 799.59 553.092 802.866 558.694C805.114 563.707 803.634 574.507 803.634 574.507C803.634 574.507 829.49 559.877 809.337 546.258C789.184 532.639 778.874 539.502 775.502 545.161Z" fill="black"/>
<path d="M775.666 524.442C794.229 521.042 809.2 533.048 826.447 548.108C841.006 560.845 820.716 587.266 796.285 588.471C771.855 589.675 761.271 577.111 756.884 560.006C753.484 546.215 753.594 528.465 775.666 524.442ZM789.376 570.204C799.027 571.667 815.918 564.245 807.829 555.144C801.989 548.56 791.679 538.556 782.96 541.933C767.413 547.915 779.642 568.72 789.266 570.204H789.376Z" fill="url(#paint11_radial_0_1)"/>
<path d="M762.916 529.799C750.386 547.463 757.268 562.717 767.824 576.702C774.378 585.308 784.962 586.534 796.862 585.867C809.721 585.114 816.247 582.038 825.981 572.7C823.643 576.646 820.044 580.05 815.531 582.58C811.019 585.11 805.749 586.68 800.234 587.137C788.553 588.212 776.187 587.782 768.318 579.778C755.54 566.762 745.56 542.751 762.916 529.799Z" fill="#569B9B"/>
<path d="M780.629 542.966C775.145 546.774 775.694 559.984 782.439 565.729C791.131 573.087 807.116 569.58 809.858 560.91C809.584 570.613 792.42 574.529 783.262 567.902C775.749 562.48 770.978 548.323 780.629 542.966Z" fill="#569B9B"/>
<path opacity="0.3" d="M772.403 528.917C775.283 527.756 778.474 527.15 781.712 527.15C784.95 527.15 788.141 527.756 791.021 528.917C794.366 530.122 802.29 533.887 800.261 537.092C798.561 539.782 791.186 537.329 787.21 537.092C780.163 536.77 778.353 539.244 773.5 542.019C769.332 544.472 764.04 544.02 763.711 539.222C763.41 534.876 767.989 530.896 772.403 528.917Z" fill="url(#paint12_linear_0_1)"/>
<path opacity="0.3" d="M775.145 567.838C778.902 569.193 779.423 572.141 785.4 574.141C786.853 574.615 792.31 575.906 792.584 577.971C792.858 580.037 789.842 580.79 788.032 581.026C783.958 581.597 779.762 580.886 776.352 579.047C774.849 578.009 773.623 576.749 772.743 575.339C771.863 573.928 771.347 572.396 771.224 570.828C771.443 568.956 773.006 567.02 775.145 567.838Z" fill="url(#paint13_linear_0_1)"/>
<path d="M770.868 533.564C771.498 532.897 773.116 531.219 774.158 531.412C775.2 531.606 773.857 532.187 773.555 532.467C771.982 533.904 770.806 535.582 770.1 537.394C769.853 537.652 769.195 537.673 769.113 537.286C769.101 535.919 769.725 534.596 770.868 533.564Z" fill="#569B9B"/>
<path d="M776.681 530.272C776.888 530.089 777.16 529.957 777.462 529.892C777.763 529.827 778.083 529.832 778.381 529.906C778.469 529.937 778.544 529.986 778.596 530.049C778.649 530.112 778.677 530.186 778.677 530.261C778.677 530.337 778.649 530.411 778.596 530.474C778.544 530.537 778.469 530.586 778.381 530.616C777.968 530.766 777.536 530.882 777.092 530.961C776.735 531.068 776.269 530.444 776.681 530.272Z" fill="#569B9B"/>
<path d="M802.564 572.334C805.485 574.38 808.774 576.076 812.326 577.369C813.34 577.713 813.093 578.272 811.859 577.971C808.07 576.918 804.682 575.126 802.016 572.765C801.522 572.033 801.577 571.474 802.564 572.334Z" fill="#569B9B"/>
<path opacity="0.3" d="M811.997 555.122C815.851 555.667 819.787 555.762 823.677 555.402C824.774 555.273 824.938 555.854 823.677 556.09C819.744 556.773 815.652 556.64 811.805 555.703C810.79 555.316 810.571 554.821 811.997 555.122Z" fill="url(#paint14_linear_0_1)"/>
<path d="M805.855 570.592C806.478 570.744 807.056 570.993 807.555 571.323C808.048 571.667 807.856 571.947 807.226 571.797C806.615 571.62 806.055 571.35 805.58 571.001C805.087 570.678 805.306 570.42 805.855 570.592Z" fill="#569B9B"/>
<path d="M827.242 554.348C826.48 551.566 824.365 549.126 821.347 547.549C820.689 547.269 820.387 546.516 821.347 546.86C827.516 549.442 832.123 558.263 826.063 562.459C825.35 562.954 824.802 562.911 825.131 562.028C826.063 559.188 827.982 557.381 827.242 554.348Z" fill="#569B9B"/>
<path d="M808.35 544.881C808.762 544.674 809.233 544.548 809.721 544.515C809.835 544.503 809.951 544.521 810.051 544.566C810.151 544.611 810.229 544.681 810.273 544.765C810.317 544.848 810.324 544.941 810.294 545.028C810.263 545.115 810.197 545.192 810.105 545.247C809.739 545.499 809.294 545.669 808.816 545.742C808.677 545.769 808.529 545.756 808.401 545.706C808.272 545.656 808.17 545.571 808.114 545.468C808.058 545.364 808.051 545.248 808.094 545.14C808.137 545.033 808.228 544.941 808.35 544.881Z" fill="#569B9B"/>
<path opacity="0.3" d="M820.662 552.476C821.06 552.263 821.524 552.137 822.005 552.11C822.122 552.091 822.243 552.104 822.349 552.147C822.456 552.189 822.539 552.259 822.588 552.345C822.636 552.431 822.645 552.527 822.614 552.617C822.583 552.707 822.513 552.787 822.416 552.841C822.034 553.086 821.583 553.256 821.1 553.336C820.964 553.355 820.823 553.337 820.702 553.284C820.58 553.231 820.486 553.147 820.435 553.046C820.383 552.945 820.377 552.833 820.419 552.729C820.46 552.625 820.546 552.536 820.662 552.476Z" fill="url(#paint15_linear_0_1)"/>
<path d="M806.376 541.503C806.642 540.938 807.085 540.435 807.665 540.04C808.46 539.502 809.2 539.803 808.515 540.707C808.125 541.192 807.575 541.586 806.924 541.847C806.65 541.955 806.239 541.761 806.376 541.503Z" fill="#569B9B"/>
<g clip-path="url(#clip2_0_1)">
<path d="M645.922 309.773C636.261 307.237 626.583 310.867 624.789 317.701C624.322 319.482 624.408 321.359 625.046 323.281L627.087 329.433L620.667 330.322C612.547 331.447 606.522 335.882 604.943 341.896C602.494 351.226 610.998 361.572 623.901 364.959C630.983 366.818 638.24 366.232 643.812 363.35L647.953 361.208L650.671 364.995C654.193 369.902 660.073 373.73 666.804 375.497C679.774 378.901 692.33 374.039 694.793 364.656C696.123 359.589 694.216 353.968 689.561 349.234L684.613 344.203L690.766 340.75C692.743 339.64 695.283 337.617 696.159 334.28C697.953 327.447 691.307 319.531 681.646 316.995C675.688 315.431 669.563 316.121 665.259 318.84L661.048 321.5L658.062 317.513C655.364 313.911 650.939 311.09 645.922 309.773ZM613.526 382.672C602.822 379.862 593.563 373.941 587.455 365.999C581.03 357.647 578.799 348.067 581.173 339.025C584 328.256 593.027 320.057 605.303 316.749C605.078 314.052 605.303 311.362 605.98 308.78C609.96 293.619 628.458 285.291 647.214 290.215C654.568 292.145 661.08 295.847 665.976 300.818C673.601 297.454 682.789 296.859 691.869 299.242C710.626 304.166 722.647 320.507 718.667 335.668C717.482 340.183 714.953 344.244 711.359 347.505C717.229 355.577 719.269 364.841 716.96 373.637C714.578 382.711 707.905 389.985 698.171 394.12C688.915 398.053 677.899 398.665 667.154 395.844C657.478 393.304 649.052 388.283 642.995 381.52C634.139 384.884 623.643 385.328 613.526 382.672Z" fill="#339900"/>
<path d="M666.06 373.907C657.771 371.731 651.021 367.054 646.916 361.334C640.424 364.692 631.852 365.652 623.157 363.37C607.353 359.221 597.143 345.947 600.352 333.721C602.567 325.284 610.596 319.553 620.552 318.173C619.617 315.355 619.442 312.404 620.198 309.525C622.782 299.682 635.192 294.41 647.917 297.75C654.389 299.449 659.692 303.051 663.004 307.474C668.366 304.087 675.944 302.952 683.641 304.972C696.365 308.313 704.586 319 702.001 328.844C700.896 333.055 697.989 336.425 694.032 338.646C699.792 344.503 702.52 352.04 700.635 359.219C697.412 371.498 681.932 378.074 666.06 373.907ZM704.114 339.745C709.06 336.969 712.695 332.756 714.076 327.492C717.306 315.188 707.031 301.828 691.125 297.653C681.504 295.127 672.032 296.545 665.33 300.78C661.189 295.251 654.561 290.749 646.471 288.625C630.565 284.45 615.053 291.039 611.822 303.344C610.878 306.943 611.096 310.631 612.265 314.154C599.819 315.878 589.784 323.042 587.015 333.588C583.003 348.871 595.766 365.463 615.521 370.65C626.39 373.503 637.105 372.302 645.219 368.105C650.351 375.254 658.789 381.101 669.15 383.821C688.99 389.029 708.34 380.81 712.369 365.462C714.725 356.487 711.314 347.066 704.114 339.745Z" fill="#72EF43"/>
</g>
<path d="M662.674 169.402C653.013 166.866 643.335 170.496 641.541 177.33C641.074 179.111 641.16 180.988 641.798 182.91L643.839 189.062L637.419 189.951C629.299 191.076 623.274 195.511 621.695 201.525C619.246 210.855 627.75 221.201 640.653 224.588C647.735 226.447 654.992 225.861 660.564 222.979L664.705 220.837L667.423 224.624C670.945 229.531 676.825 233.359 683.556 235.126C696.526 238.53 709.082 233.668 711.545 224.285C712.875 219.218 710.968 213.597 706.313 208.863L701.365 203.832L707.518 200.379C709.495 199.269 712.035 197.246 712.911 193.909C714.705 187.076 708.059 179.16 698.398 176.624C692.44 175.06 686.315 175.75 682.011 178.469L677.8 181.129L674.814 177.142C672.116 173.54 667.691 170.719 662.674 169.402ZM630.278 242.301C619.574 239.491 610.315 233.57 604.207 225.628C597.782 217.276 595.551 207.696 597.925 198.654C600.752 187.885 609.779 179.686 622.055 176.378C621.83 173.681 622.055 170.991 622.732 168.409C626.712 153.248 645.21 144.92 663.966 149.844C671.32 151.774 677.832 155.476 682.728 160.447C690.353 157.083 699.541 156.488 708.621 158.871C727.378 163.795 739.399 180.136 735.419 195.297C734.234 199.812 731.705 203.873 728.111 207.134C733.981 215.206 736.021 224.47 733.712 233.266C731.33 242.34 724.657 249.614 714.923 253.749C705.667 257.682 694.651 258.294 683.906 255.473C674.23 252.933 665.804 247.912 659.747 241.149C650.891 244.513 640.395 244.957 630.278 242.301Z" fill="#339900"/>
<path d="M682.812 233.536C674.523 231.36 667.773 226.683 663.668 220.963C657.176 224.321 648.604 225.281 639.909 222.999C624.105 218.85 613.895 205.576 617.104 193.35C619.319 184.913 627.348 179.182 637.304 177.802C636.369 174.984 636.194 172.033 636.95 169.154C639.534 159.311 651.944 154.039 664.669 157.379C671.141 159.078 676.444 162.68 679.756 167.103C685.118 163.716 692.696 162.581 700.393 164.601C713.117 167.942 721.338 178.629 718.753 188.473C717.648 192.684 714.741 196.054 710.784 198.275C716.544 204.132 719.272 211.669 717.387 218.848C714.164 231.127 698.684 237.703 682.812 233.536ZM720.866 199.374C725.812 196.598 729.447 192.385 730.828 187.121C734.058 174.817 723.783 161.457 707.877 157.282C698.256 154.756 688.784 156.174 682.082 160.409C677.941 154.88 671.313 150.378 663.223 148.254C647.317 144.079 631.805 150.668 628.574 162.973C627.63 166.572 627.848 170.26 629.017 173.783C616.571 175.507 606.536 182.671 603.767 193.217C599.755 208.5 612.518 225.092 632.273 230.279C643.142 233.132 653.857 231.931 661.971 227.734C667.103 234.883 675.541 240.73 685.902 243.45C705.742 248.658 725.092 240.439 729.121 225.091C731.477 216.116 728.066 206.695 720.866 199.374Z" fill="#72EF43"/>
<path d="M204.42 693.723L208.262 671.261C188.296 666.654 176.032 657.24 175.061 645.473C174.248 635.603 181.52 625.99 195.539 618.407C208.125 611.599 225.071 607.024 243.257 605.525C261.443 604.026 278.91 605.763 292.44 610.418C307.512 615.602 316.261 623.893 317.075 633.764C318.067 645.798 307.147 657.232 287.55 665.051L296.598 686.123L204.42 693.723Z" fill="#D8A235"/>
<path d="M309.596 628.345C308.317 612.826 278.615 602.61 243.257 605.525C207.898 608.44 180.271 623.384 181.552 638.903C182.409 649.311 196.054 657.335 215.617 660.61L212.125 681.017L286.333 674.898L278.138 655.812C297.697 649.408 310.476 639.012 309.596 628.345Z" fill="#F4BD42"/>
<path d="M309.596 628.345C308.317 612.826 278.615 602.61 243.257 605.525C207.898 608.44 180.271 623.384 181.552 638.903C182.409 649.311 196.054 657.335 215.617 660.61L212.125 681.017L286.333 674.898L278.138 655.812C297.697 649.408 310.476 639.012 309.596 628.345Z" fill="#F4BD42"/>
<path d="M550.42 695.723L554.262 673.261C534.296 668.654 522.032 659.24 521.061 647.473C520.248 637.603 527.52 627.99 541.539 620.407C554.125 613.599 571.071 609.024 589.257 607.525C607.443 606.026 624.91 607.763 638.44 612.418C653.512 617.602 662.261 625.893 663.075 635.764C664.067 647.798 653.147 659.232 633.55 667.051L642.598 688.123L550.42 695.723Z" fill="#D8A235"/>
<path d="M655.596 630.345C654.317 614.826 624.615 604.61 589.257 607.525C553.898 610.44 526.271 625.384 527.552 640.903C528.409 651.311 542.054 659.335 561.617 662.61L558.125 683.017L632.333 676.898L624.138 657.812C643.697 651.408 656.476 641.012 655.596 630.345Z" fill="#F4BD42"/>
<path d="M301.42 876.723L305.262 854.261C285.296 849.654 273.032 840.24 272.061 828.473C271.248 818.603 278.52 808.99 292.539 801.407C305.125 794.599 322.071 790.024 340.257 788.525C358.443 787.026 375.91 788.763 389.44 793.418C404.512 798.602 413.261 806.893 414.075 816.764C415.067 828.798 404.147 840.232 384.55 848.051L393.598 869.123L301.42 876.723Z" fill="#D8A235"/>
<path d="M406.596 811.345C405.317 795.826 375.615 785.61 340.257 788.525C304.898 791.44 277.271 806.384 278.552 821.903C279.409 832.311 293.054 840.335 312.617 843.61L309.125 864.017L383.333 857.898L375.138 838.812C394.697 832.408 407.476 822.012 406.596 811.345Z" fill="#F4BD42"/>
<path d="M621.42 510.723L625.262 488.261C605.296 483.654 593.032 474.24 592.061 462.473C591.248 452.603 598.52 442.99 612.539 435.407C625.125 428.599 642.071 424.024 660.257 422.525C678.443 421.026 695.91 422.763 709.44 427.418C724.512 432.602 733.261 440.893 734.075 450.764C735.067 462.798 724.147 474.232 704.55 482.051L713.598 503.123L621.42 510.723Z" fill="#D8A235"/>
<path d="M726.596 445.345C725.317 429.826 695.615 419.61 660.257 422.525C624.898 425.44 597.271 440.384 598.552 455.903C599.409 466.311 613.054 474.335 632.617 477.61L629.125 498.017L703.333 491.898L695.138 472.812C714.697 466.408 727.476 456.012 726.596 445.345Z" fill="#F4BD42"/>
<path d="M628.42 884.723L632.262 862.261C612.296 857.654 600.032 848.24 599.061 836.473C598.248 826.603 605.52 816.99 619.539 809.407C632.125 802.599 649.071 798.024 667.257 796.525C685.443 795.026 702.91 796.763 716.44 801.418C731.512 806.602 740.261 814.893 741.075 824.764C742.067 836.798 731.147 848.232 711.55 856.051L720.598 877.123L628.42 884.723Z" fill="#D8A235"/>
<path d="M733.596 819.345C732.317 803.826 702.615 793.61 667.257 796.525C631.898 799.44 604.271 814.384 605.552 829.903C606.409 840.311 620.054 848.335 639.617 851.61L636.125 872.017L710.333 865.898L702.138 846.812C721.697 840.408 734.476 830.012 733.596 819.345Z" fill="#F4BD42"/>
<path d="M832.42 851.723L836.262 829.261C816.296 824.654 804.032 815.24 803.061 803.473C802.248 793.603 809.52 783.99 823.539 776.407C836.125 769.599 853.071 765.024 871.257 763.525C889.443 762.026 906.91 763.763 920.44 768.418C935.512 773.602 944.261 781.893 945.075 791.764C946.067 803.798 935.147 815.232 915.55 823.051L924.598 844.123L832.42 851.723Z" fill="#D8A235"/>
<path d="M937.596 786.345C936.317 770.826 906.615 760.61 871.257 763.525C835.898 766.44 808.271 781.384 809.552 796.903C810.409 807.311 824.054 815.335 843.617 818.61L840.125 839.017L914.333 832.898L906.138 813.812C925.697 807.408 938.476 797.012 937.596 786.345Z" fill="#F4BD42"/>
<path d="M834.42 591.723L838.262 569.261C818.296 564.654 806.032 555.24 805.061 543.473C804.248 533.603 811.52 523.99 825.539 516.407C838.125 509.599 855.071 505.024 873.257 503.525C891.443 502.026 908.91 503.763 922.44 508.418C937.512 513.602 946.261 521.893 947.075 531.764C948.067 543.798 937.147 555.232 917.55 563.051L926.598 584.123L834.42 591.723Z" fill="#D8A235"/>
<path d="M939.596 526.345C938.317 510.826 908.615 500.61 873.257 503.525C837.898 506.44 810.271 521.384 811.552 536.903C812.409 547.311 826.054 555.335 845.617 558.61L842.125 579.017L916.333 572.898L908.138 553.812C927.697 547.408 940.476 537.012 939.596 526.345Z" fill="#F4BD42"/>
<path d="M430.42 260.723L434.262 238.261C414.296 233.654 402.032 224.24 401.061 212.473C400.248 202.603 407.52 192.99 421.539 185.407C434.125 178.599 451.071 174.024 469.257 172.525C487.443 171.026 504.91 172.763 518.44 177.418C533.512 182.602 542.261 190.893 543.075 200.764C544.067 212.798 533.147 224.232 513.55 232.051L522.598 253.123L430.42 260.723Z" fill="#D8A235"/>
<path d="M535.596 195.345C534.317 179.826 504.615 169.61 469.257 172.525C433.898 175.44 406.271 190.384 407.552 205.903C408.409 216.311 422.054 224.335 441.617 227.61L438.125 248.017L512.333 241.898L504.138 222.812C523.697 216.408 536.476 206.012 535.596 195.345Z" fill="#F4BD42"/>
<path d="M197.42 498.723L201.262 476.261C181.296 471.654 169.032 462.24 168.061 450.473C167.248 440.603 174.52 430.99 188.539 423.407C201.125 416.599 218.071 412.024 236.257 410.525C254.443 409.026 271.91 410.763 285.44 415.418C300.512 420.602 309.261 428.893 310.075 438.764C311.067 450.798 300.147 462.232 280.55 470.051L289.598 491.123L197.42 498.723Z" fill="#D8A235"/>
<path d="M302.596 433.345C301.317 417.826 271.615 407.61 236.257 410.525C200.898 413.44 173.271 428.384 174.552 443.903C175.409 454.311 189.054 462.335 208.617 465.61L205.125 486.017L279.333 479.898L271.138 460.812C290.697 454.408 303.476 444.012 302.596 433.345Z" fill="#F4BD42"/>
<path d="M346.784 377.628C346.784 377.628 338.366 384.964 335.295 386.234C328.632 389.052 311.001 392.516 300.198 386.987C294.906 384.28 290.359 380.769 286.827 376.659C283.295 372.55 280.849 367.926 279.634 363.062C275.027 346.947 278.345 341.805 282.019 335.587C284.675 332.497 287.705 329.614 291.068 326.981C291.068 326.981 290.93 351.831 298.663 360.738C306.395 369.646 346.784 377.628 346.784 377.628Z" fill="black"/>
<path d="M302.502 343.161C304.358 342.385 306.43 341.979 308.534 341.979C310.638 341.979 312.709 342.385 314.566 343.161C321.264 346.381 326.59 351.092 329.866 356.694C332.114 361.707 330.634 372.507 330.634 372.507C330.634 372.507 356.49 357.877 336.337 344.258C316.184 330.639 305.874 337.502 302.502 343.161Z" fill="black"/>
<path d="M302.666 322.441C321.229 319.042 336.2 331.048 353.447 346.108C368.006 358.845 347.716 385.266 323.286 386.471C298.855 387.675 288.271 375.111 283.884 358.006C280.484 344.215 280.594 326.465 302.666 322.441ZM316.376 368.204C326.027 369.667 342.918 362.244 334.829 353.144C328.989 346.56 318.679 336.555 309.96 339.933C294.413 345.914 306.642 366.72 316.266 368.204H316.376Z" fill="url(#paint16_radial_0_1)"/>
<path d="M289.916 327.799C277.386 345.463 284.268 360.717 294.824 374.702C301.378 383.308 311.962 384.534 323.862 383.867C336.721 383.114 343.247 380.038 352.981 370.7C350.643 374.646 347.044 378.05 342.531 380.58C338.019 383.11 332.749 384.68 327.234 385.137C315.553 386.212 303.187 385.782 295.318 377.778C282.54 364.762 272.56 340.751 289.916 327.799Z" fill="#569B9B"/>
<path d="M307.629 340.966C302.145 344.774 302.694 357.984 309.439 363.729C318.131 371.087 334.116 367.58 336.858 358.91C336.584 368.613 319.42 372.529 310.262 365.902C302.749 360.48 297.978 346.323 307.629 340.966Z" fill="#569B9B"/>
<path opacity="0.3" d="M299.403 326.917C302.283 325.756 305.474 325.15 308.712 325.15C311.95 325.15 315.141 325.756 318.021 326.917C321.366 328.122 329.29 331.887 327.261 335.093C325.561 337.782 318.185 335.329 314.21 335.093C307.163 334.77 305.353 337.244 300.5 340.02C296.332 342.472 291.04 342.02 290.711 337.223C290.41 332.876 294.989 328.896 299.403 326.917Z" fill="url(#paint17_linear_0_1)"/>
<path opacity="0.3" d="M302.145 365.838C305.902 367.193 306.423 370.141 312.4 372.141C313.853 372.615 319.31 373.906 319.584 375.971C319.858 378.037 316.842 378.79 315.032 379.026C310.958 379.597 306.762 378.886 303.352 377.047C301.849 376.009 300.623 374.749 299.743 373.339C298.863 371.928 298.347 370.396 298.224 368.828C298.443 366.956 300.006 365.02 302.145 365.838Z" fill="url(#paint18_linear_0_1)"/>
<path d="M297.868 331.564C298.498 330.897 300.116 329.219 301.158 329.412C302.2 329.606 300.857 330.187 300.555 330.467C298.982 331.904 297.806 333.582 297.1 335.394C296.853 335.652 296.195 335.673 296.113 335.286C296.101 333.919 296.725 332.596 297.868 331.564Z" fill="#569B9B"/>
<path d="M303.681 328.272C303.889 328.089 304.16 327.957 304.462 327.892C304.763 327.827 305.083 327.832 305.381 327.906C305.469 327.937 305.544 327.986 305.596 328.049C305.649 328.112 305.677 328.186 305.677 328.261C305.677 328.337 305.649 328.411 305.596 328.474C305.544 328.537 305.469 328.586 305.381 328.616C304.968 328.766 304.536 328.882 304.092 328.961C303.736 329.068 303.269 328.444 303.681 328.272Z" fill="#569B9B"/>
<path d="M329.564 370.334C332.485 372.38 335.774 374.076 339.325 375.369C340.34 375.713 340.093 376.272 338.859 375.971C335.069 374.918 331.682 373.126 329.016 370.765C328.522 370.033 328.577 369.474 329.564 370.334Z" fill="#569B9B"/>
<path opacity="0.3" d="M338.997 353.122C342.851 353.667 346.787 353.762 350.677 353.402C351.774 353.273 351.938 353.854 350.677 354.09C346.744 354.773 342.652 354.64 338.805 353.703C337.79 353.316 337.571 352.821 338.997 353.122Z" fill="url(#paint19_linear_0_1)"/>
<path d="M332.855 368.592C333.478 368.744 334.056 368.993 334.555 369.323C335.048 369.667 334.856 369.947 334.226 369.797C333.615 369.62 333.055 369.35 332.58 369.001C332.087 368.678 332.306 368.42 332.855 368.592Z" fill="#569B9B"/>
<path d="M354.242 352.348C353.48 349.566 351.365 347.127 348.347 345.549C347.689 345.269 347.387 344.516 348.347 344.86C354.516 347.442 359.123 356.263 353.063 360.459C352.35 360.954 351.802 360.911 352.131 360.029C353.063 357.189 354.982 355.381 354.242 352.348Z" fill="#569B9B"/>
<path d="M335.35 342.881C335.762 342.674 336.233 342.548 336.721 342.515C336.835 342.503 336.951 342.521 337.051 342.566C337.151 342.611 337.229 342.681 337.273 342.765C337.317 342.848 337.324 342.941 337.294 343.028C337.263 343.115 337.197 343.192 337.105 343.247C336.739 343.499 336.294 343.669 335.816 343.742C335.677 343.769 335.529 343.756 335.401 343.706C335.272 343.656 335.17 343.571 335.114 343.468C335.058 343.364 335.051 343.248 335.094 343.14C335.137 343.033 335.228 342.941 335.35 342.881Z" fill="#569B9B"/>
<path opacity="0.3" d="M347.662 350.476C348.06 350.263 348.524 350.137 349.005 350.11C349.122 350.091 349.243 350.104 349.349 350.147C349.456 350.189 349.539 350.259 349.588 350.345C349.636 350.431 349.645 350.527 349.614 350.617C349.583 350.707 349.513 350.787 349.416 350.841C349.034 351.086 348.583 351.256 348.1 351.336C347.964 351.355 347.823 351.337 347.702 351.284C347.58 351.231 347.486 351.147 347.435 351.046C347.383 350.945 347.377 350.833 347.419 350.729C347.46 350.625 347.546 350.536 347.662 350.476Z" fill="url(#paint20_linear_0_1)"/>
<path d="M333.376 339.503C333.642 338.938 334.085 338.435 334.665 338.04C335.46 337.502 336.2 337.803 335.515 338.707C335.125 339.192 334.575 339.586 333.924 339.847C333.65 339.955 333.239 339.761 333.376 339.503Z" fill="#569B9B"/>
<path d="M566.784 579.628C566.784 579.628 558.366 586.965 555.295 588.234C548.632 591.052 531.001 594.516 520.198 588.987C514.906 586.28 510.359 582.769 506.827 578.659C503.295 574.55 500.849 569.926 499.634 565.062C495.027 548.947 498.345 543.805 502.019 537.587C504.675 534.497 507.705 531.615 511.068 528.981C511.068 528.981 510.93 553.831 518.663 562.739C526.395 571.646 566.784 579.628 566.784 579.628Z" fill="black"/>
<path d="M522.502 545.161C524.358 544.385 526.43 543.979 528.534 543.979C530.638 543.979 532.709 544.385 534.566 545.161C541.264 548.381 546.59 553.092 549.866 558.694C552.114 563.707 550.634 574.507 550.634 574.507C550.634 574.507 576.49 559.877 556.337 546.258C536.184 532.639 525.874 539.502 522.502 545.161Z" fill="black"/>
<path d="M522.666 524.442C541.229 521.042 556.2 533.048 573.447 548.108C588.006 560.845 567.716 587.266 543.286 588.471C518.855 589.675 508.271 577.111 503.884 560.006C500.484 546.215 500.594 528.465 522.666 524.442ZM536.376 570.204C546.027 571.667 562.918 564.245 554.829 555.144C548.989 548.56 538.679 538.556 529.96 541.933C514.413 547.915 526.642 568.72 536.266 570.204H536.376Z" fill="url(#paint21_radial_0_1)"/>
<path d="M509.916 529.799C497.386 547.463 504.268 562.717 514.824 576.702C521.378 585.308 531.962 586.534 543.862 585.867C556.721 585.114 563.247 582.038 572.981 572.7C570.643 576.646 567.044 580.05 562.531 582.58C558.019 585.11 552.749 586.68 547.234 587.137C535.553 588.212 523.187 587.782 515.318 579.778C502.54 566.762 492.56 542.751 509.916 529.799Z" fill="#569B9B"/>
<path d="M527.629 542.966C522.145 546.774 522.694 559.984 529.439 565.729C538.131 573.087 554.116 569.58 556.858 560.91C556.584 570.613 539.42 574.529 530.262 567.902C522.749 562.48 517.978 548.323 527.629 542.966Z" fill="#569B9B"/>
<path opacity="0.3" d="M519.403 528.917C522.283 527.756 525.474 527.15 528.712 527.15C531.95 527.15 535.141 527.756 538.021 528.917C541.366 530.122 549.29 533.887 547.261 537.092C545.561 539.782 538.185 537.329 534.21 537.092C527.163 536.77 525.353 539.244 520.5 542.019C516.332 544.472 511.04 544.02 510.711 539.222C510.41 534.876 514.989 530.896 519.403 528.917Z" fill="url(#paint22_linear_0_1)"/>
<path opacity="0.3" d="M522.145 567.838C525.902 569.193 526.423 572.141 532.4 574.141C533.853 574.615 539.31 575.906 539.584 577.971C539.858 580.037 536.842 580.79 535.032 581.026C530.958 581.597 526.762 580.886 523.352 579.047C521.849 578.009 520.623 576.749 519.743 575.339C518.863 573.928 518.347 572.396 518.224 570.828C518.443 568.956 520.006 567.02 522.145 567.838Z" fill="url(#paint23_linear_0_1)"/>
<path d="M517.868 533.564C518.498 532.897 520.116 531.219 521.158 531.412C522.2 531.606 520.857 532.187 520.555 532.467C518.982 533.904 517.806 535.582 517.1 537.394C516.853 537.652 516.195 537.673 516.113 537.286C516.101 535.919 516.725 534.596 517.868 533.564Z" fill="#569B9B"/>
<path d="M523.681 530.272C523.889 530.089 524.16 529.957 524.462 529.892C524.763 529.827 525.083 529.832 525.381 529.906C525.469 529.937 525.544 529.986 525.596 530.049C525.649 530.112 525.677 530.186 525.677 530.261C525.677 530.337 525.649 530.411 525.596 530.474C525.544 530.537 525.469 530.586 525.381 530.616C524.968 530.766 524.536 530.882 524.092 530.961C523.736 531.068 523.269 530.444 523.681 530.272Z" fill="#569B9B"/>
<path d="M549.564 572.334C552.485 574.38 555.774 576.076 559.325 577.369C560.34 577.713 560.093 578.272 558.859 577.971C555.069 576.918 551.682 575.126 549.016 572.765C548.522 572.033 548.577 571.474 549.564 572.334Z" fill="#569B9B"/>
<path opacity="0.3" d="M558.997 555.122C562.851 555.667 566.787 555.762 570.677 555.402C571.774 555.273 571.938 555.854 570.677 556.09C566.744 556.773 562.652 556.64 558.805 555.703C557.79 555.316 557.571 554.821 558.997 555.122Z" fill="url(#paint24_linear_0_1)"/>
<path d="M552.855 570.592C553.478 570.744 554.056 570.993 554.555 571.323C555.048 571.667 554.856 571.947 554.226 571.797C553.615 571.62 553.055 571.35 552.58 571.001C552.087 570.678 552.306 570.42 552.855 570.592Z" fill="#569B9B"/>
<path d="M574.242 554.348C573.48 551.566 571.365 549.126 568.347 547.549C567.689 547.269 567.387 546.516 568.347 546.86C574.516 549.442 579.123 558.263 573.063 562.459C572.35 562.954 571.802 562.911 572.131 562.028C573.063 559.188 574.982 557.381 574.242 554.348Z" fill="#569B9B"/>
<path d="M555.35 544.881C555.762 544.674 556.233 544.548 556.721 544.515C556.835 544.503 556.951 544.521 557.051 544.566C557.151 544.611 557.229 544.681 557.273 544.765C557.317 544.848 557.324 544.941 557.294 545.028C557.263 545.115 557.197 545.192 557.105 545.247C556.739 545.499 556.294 545.669 555.816 545.742C555.677 545.769 555.529 545.756 555.401 545.706C555.272 545.656 555.17 545.571 555.114 545.468C555.058 545.364 555.051 545.248 555.094 545.14C555.137 545.033 555.228 544.941 555.35 544.881Z" fill="#569B9B"/>
<path opacity="0.3" d="M567.662 552.476C568.06 552.263 568.524 552.137 569.005 552.11C569.122 552.091 569.243 552.104 569.349 552.147C569.456 552.189 569.539 552.259 569.588 552.345C569.636 552.431 569.645 552.527 569.614 552.617C569.583 552.707 569.513 552.787 569.416 552.841C569.034 553.086 568.583 553.256 568.1 553.336C567.964 553.355 567.823 553.337 567.702 553.284C567.58 553.231 567.486 553.147 567.435 553.046C567.383 552.945 567.377 552.833 567.419 552.729C567.46 552.625 567.546 552.536 567.662 552.476Z" fill="url(#paint25_linear_0_1)"/>
<path d="M553.376 541.503C553.642 540.938 554.085 540.435 554.665 540.04C555.46 539.502 556.2 539.803 555.515 540.707C555.125 541.192 554.575 541.586 553.924 541.847C553.65 541.955 553.239 541.761 553.376 541.503Z" fill="#569B9B"/>
<path d="M776.784 748.628C776.784 748.628 768.366 755.965 765.295 757.234C758.632 760.052 741.001 763.516 730.198 757.987C724.906 755.28 720.359 751.769 716.827 747.659C713.295 743.55 710.849 738.926 709.634 734.062C705.027 717.947 708.345 712.805 712.019 706.587C714.675 703.497 717.705 700.615 721.067 697.981C721.067 697.981 720.93 722.831 728.663 731.739C736.395 740.646 776.784 748.628 776.784 748.628Z" fill="black"/>
<path d="M732.502 714.161C734.358 713.385 736.43 712.979 738.534 712.979C740.638 712.979 742.709 713.385 744.566 714.161C751.264 717.381 756.59 722.092 759.866 727.694C762.114 732.707 760.634 743.507 760.634 743.507C760.634 743.507 786.49 728.877 766.337 715.258C746.184 701.639 735.874 708.502 732.502 714.161Z" fill="black"/>
<path d="M732.666 693.442C751.229 690.042 766.2 702.048 783.447 717.108C798.006 729.845 777.716 756.266 753.285 757.471C728.855 758.675 718.271 746.111 713.884 729.006C710.484 715.215 710.594 697.465 732.666 693.442ZM746.376 739.204C756.027 740.667 772.918 733.245 764.829 724.144C758.989 717.56 748.679 707.556 739.96 710.933C724.413 716.915 736.642 737.72 746.266 739.204H746.376Z" fill="url(#paint26_radial_0_1)"/>
<path d="M719.916 698.799C707.386 716.463 714.268 731.717 724.824 745.702C731.378 754.308 741.962 755.534 753.862 754.867C766.721 754.114 773.247 751.038 782.981 741.7C780.643 745.646 777.044 749.05 772.531 751.58C768.019 754.11 762.749 755.68 757.234 756.137C745.553 757.212 733.187 756.782 725.318 748.778C712.54 735.762 702.56 711.751 719.916 698.799Z" fill="#569B9B"/>
<path d="M737.629 711.966C732.145 715.774 732.694 728.984 739.439 734.729C748.131 742.087 764.116 738.58 766.858 729.91C766.584 739.613 749.42 743.529 740.262 736.902C732.749 731.48 727.978 717.323 737.629 711.966Z" fill="#569B9B"/>
<path opacity="0.3" d="M729.403 697.917C732.283 696.756 735.474 696.15 738.712 696.15C741.95 696.15 745.141 696.756 748.021 697.917C751.366 699.122 759.29 702.887 757.261 706.092C755.561 708.782 748.186 706.329 744.21 706.092C737.163 705.77 735.353 708.244 730.5 711.019C726.332 713.472 721.04 713.02 720.711 708.222C720.41 703.876 724.989 699.896 729.403 697.917Z" fill="url(#paint27_linear_0_1)"/>
<path opacity="0.3" d="M732.145 736.838C735.902 738.193 736.423 741.141 742.4 743.141C743.853 743.615 749.31 744.906 749.584 746.971C749.858 749.037 746.842 749.79 745.032 750.026C740.958 750.597 736.762 749.886 733.352 748.047C731.849 747.009 730.623 745.749 729.743 744.339C728.863 742.928 728.347 741.396 728.224 739.828C728.443 737.956 730.006 736.02 732.145 736.838Z" fill="url(#paint28_linear_0_1)"/>
<path d="M727.868 702.564C728.498 701.897 730.116 700.219 731.158 700.412C732.2 700.606 730.857 701.187 730.555 701.467C728.982 702.904 727.806 704.582 727.1 706.394C726.853 706.652 726.195 706.673 726.113 706.286C726.101 704.919 726.725 703.596 727.868 702.564Z" fill="#569B9B"/>
<path d="M733.681 699.272C733.888 699.089 734.16 698.957 734.462 698.892C734.763 698.827 735.083 698.832 735.381 698.906C735.469 698.937 735.544 698.986 735.596 699.049C735.649 699.112 735.677 699.186 735.677 699.261C735.677 699.337 735.649 699.411 735.596 699.474C735.544 699.537 735.469 699.586 735.381 699.616C734.968 699.766 734.536 699.882 734.092 699.961C733.735 700.068 733.269 699.444 733.681 699.272Z" fill="#569B9B"/>
<path d="M759.564 741.334C762.485 743.38 765.774 745.076 769.326 746.369C770.34 746.713 770.093 747.272 768.859 746.971C765.07 745.918 761.682 744.126 759.016 741.765C758.522 741.033 758.577 740.474 759.564 741.334Z" fill="#569B9B"/>
<path opacity="0.3" d="M768.997 724.122C772.851 724.667 776.787 724.762 780.677 724.402C781.774 724.273 781.938 724.854 780.677 725.09C776.744 725.773 772.652 725.64 768.805 724.703C767.79 724.316 767.571 723.821 768.997 724.122Z" fill="url(#paint29_linear_0_1)"/>
<path d="M762.855 739.592C763.478 739.744 764.056 739.993 764.555 740.323C765.048 740.667 764.856 740.947 764.226 740.797C763.615 740.62 763.055 740.35 762.58 740.001C762.087 739.678 762.306 739.42 762.855 739.592Z" fill="#569B9B"/>
<path d="M784.242 723.348C783.48 720.566 781.365 718.126 778.347 716.549C777.689 716.269 777.387 715.516 778.347 715.86C784.516 718.442 789.123 727.263 783.063 731.459C782.35 731.954 781.802 731.911 782.131 731.028C783.063 728.188 784.982 726.381 784.242 723.348Z" fill="#569B9B"/>
<path d="M765.35 713.881C765.762 713.674 766.233 713.548 766.721 713.515C766.835 713.503 766.951 713.521 767.051 713.566C767.151 713.611 767.229 713.681 767.273 713.765C767.317 713.848 767.324 713.941 767.294 714.028C767.263 714.115 767.197 714.192 767.105 714.247C766.739 714.499 766.294 714.669 765.816 714.742C765.677 714.769 765.529 714.756 765.401 714.706C765.272 714.656 765.17 714.571 765.114 714.468C765.058 714.364 765.051 714.248 765.094 714.14C765.137 714.033 765.228 713.941 765.35 713.881Z" fill="#569B9B"/>
<path opacity="0.3" d="M777.662 721.476C778.06 721.263 778.524 721.137 779.005 721.11C779.122 721.091 779.243 721.104 779.349 721.147C779.456 721.189 779.539 721.259 779.588 721.345C779.636 721.431 779.645 721.527 779.614 721.617C779.583 721.707 779.513 721.787 779.416 721.841C779.034 722.086 778.583 722.256 778.1 722.336C777.964 722.355 777.823 722.337 777.702 722.284C777.58 722.231 777.486 722.147 777.435 722.046C777.383 721.945 777.377 721.833 777.419 721.729C777.46 721.625 777.546 721.536 777.662 721.476Z" fill="url(#paint30_linear_0_1)"/>
<path d="M763.376 710.503C763.642 709.938 764.085 709.435 764.665 709.04C765.46 708.502 766.2 708.803 765.515 709.707C765.125 710.192 764.575 710.586 763.924 710.847C763.65 710.955 763.239 710.761 763.376 710.503Z" fill="#569B9B"/>
<path d="M517.784 431.628C517.784 431.628 509.366 438.965 506.295 440.234C499.632 443.052 482.001 446.516 471.198 440.987C465.906 438.28 461.359 434.769 457.827 430.659C454.295 426.55 451.849 421.926 450.634 417.062C446.027 400.947 449.345 395.805 453.019 389.587C455.675 386.497 458.705 383.615 462.068 380.981C462.068 380.981 461.93 405.831 469.663 414.739C477.395 423.646 517.784 431.628 517.784 431.628Z" fill="black"/>
<path d="M473.502 397.161C475.358 396.385 477.43 395.979 479.534 395.979C481.638 395.979 483.709 396.385 485.566 397.161C492.264 400.381 497.59 405.092 500.866 410.694C503.114 415.707 501.634 426.507 501.634 426.507C501.634 426.507 527.49 411.877 507.337 398.258C487.184 384.639 476.874 391.502 473.502 397.161Z" fill="black"/>
<path d="M473.666 376.442C492.229 373.042 507.2 385.048 524.447 400.108C539.006 412.845 518.716 439.266 494.286 440.471C469.855 441.675 459.271 429.111 454.884 412.006C451.484 398.215 451.594 380.465 473.666 376.442ZM487.376 422.204C497.027 423.667 513.918 416.245 505.829 407.144C499.989 400.56 489.679 390.556 480.96 393.933C465.413 399.915 477.642 420.72 487.266 422.204H487.376Z" fill="url(#paint31_radial_0_1)"/>
<path d="M460.916 381.799C448.386 399.463 455.268 414.717 465.824 428.702C472.378 437.308 482.962 438.534 494.862 437.867C507.721 437.114 514.247 434.038 523.981 424.7C521.643 428.646 518.044 432.05 513.531 434.58C509.019 437.11 503.749 438.68 498.234 439.137C486.553 440.212 474.187 439.782 466.318 431.778C453.54 418.762 443.56 394.751 460.916 381.799Z" fill="#569B9B"/>
<path d="M478.629 394.966C473.145 398.774 473.694 411.984 480.439 417.729C489.131 425.087 505.116 421.58 507.858 412.91C507.584 422.613 490.42 426.529 481.262 419.902C473.749 414.48 468.978 400.323 478.629 394.966Z" fill="#569B9B"/>
<path opacity="0.3" d="M470.403 380.917C473.283 379.756 476.474 379.15 479.712 379.15C482.95 379.15 486.141 379.756 489.021 380.917C492.366 382.122 500.29 385.887 498.261 389.092C496.561 391.782 489.185 389.329 485.21 389.092C478.163 388.77 476.353 391.244 471.5 394.019C467.332 396.472 462.04 396.02 461.711 391.222C461.41 386.876 465.989 382.896 470.403 380.917Z" fill="url(#paint32_linear_0_1)"/>
<path opacity="0.3" d="M473.145 419.838C476.902 421.193 477.423 424.141 483.4 426.141C484.853 426.615 490.31 427.906 490.584 429.971C490.858 432.037 487.842 432.79 486.032 433.026C481.958 433.597 477.762 432.886 474.352 431.047C472.849 430.009 471.623 428.749 470.743 427.339C469.863 425.928 469.347 424.396 469.224 422.828C469.443 420.956 471.006 419.02 473.145 419.838Z" fill="url(#paint33_linear_0_1)"/>
<path d="M468.868 385.564C469.498 384.897 471.116 383.219 472.158 383.412C473.2 383.606 471.857 384.187 471.555 384.467C469.982 385.904 468.806 387.582 468.1 389.394C467.853 389.652 467.195 389.673 467.113 389.286C467.101 387.919 467.725 386.596 468.868 385.564Z" fill="#569B9B"/>
<path d="M474.681 382.272C474.889 382.089 475.16 381.957 475.462 381.892C475.763 381.827 476.083 381.832 476.381 381.906C476.469 381.937 476.544 381.986 476.596 382.049C476.649 382.112 476.677 382.186 476.677 382.261C476.677 382.337 476.649 382.411 476.596 382.474C476.544 382.537 476.469 382.586 476.381 382.616C475.968 382.766 475.536 382.882 475.092 382.961C474.736 383.068 474.269 382.444 474.681 382.272Z" fill="#569B9B"/>
<path d="M500.564 424.334C503.485 426.38 506.774 428.076 510.325 429.369C511.34 429.713 511.093 430.272 509.859 429.971C506.069 428.918 502.682 427.126 500.016 424.765C499.522 424.033 499.577 423.474 500.564 424.334Z" fill="#569B9B"/>
<path opacity="0.3" d="M509.997 407.122C513.851 407.667 517.787 407.762 521.677 407.402C522.774 407.273 522.938 407.854 521.677 408.09C517.744 408.773 513.652 408.64 509.805 407.703C508.79 407.316 508.571 406.821 509.997 407.122Z" fill="url(#paint34_linear_0_1)"/>
<path d="M503.855 422.592C504.478 422.744 505.056 422.993 505.555 423.323C506.048 423.667 505.856 423.947 505.226 423.797C504.615 423.62 504.055 423.35 503.58 423.001C503.087 422.678 503.306 422.42 503.855 422.592Z" fill="#569B9B"/>
<path d="M525.242 406.348C524.48 403.566 522.365 401.126 519.347 399.549C518.689 399.269 518.387 398.516 519.347 398.86C525.516 401.442 530.123 410.263 524.063 414.459C523.35 414.954 522.802 414.911 523.131 414.028C524.063 411.188 525.982 409.381 525.242 406.348Z" fill="#569B9B"/>
<path d="M506.35 396.881C506.762 396.674 507.233 396.548 507.721 396.515C507.835 396.503 507.951 396.521 508.051 396.566C508.151 396.611 508.229 396.681 508.273 396.765C508.317 396.848 508.324 396.941 508.294 397.028C508.263 397.115 508.197 397.192 508.105 397.247C507.739 397.499 507.294 397.669 506.816 397.742C506.677 397.769 506.529 397.756 506.401 397.706C506.272 397.656 506.17 397.571 506.114 397.468C506.058 397.364 506.051 397.248 506.094 397.14C506.137 397.033 506.228 396.941 506.35 396.881Z" fill="#569B9B"/>
<path opacity="0.3" d="M518.662 404.476C519.06 404.263 519.524 404.137 520.005 404.11C520.122 404.091 520.243 404.104 520.349 404.147C520.456 404.189 520.539 404.259 520.588 404.345C520.636 404.431 520.645 404.527 520.614 404.617C520.583 404.707 520.513 404.787 520.416 404.841C520.034 405.086 519.583 405.256 519.1 405.336C518.964 405.355 518.823 405.337 518.702 405.284C518.58 405.231 518.486 405.147 518.435 405.046C518.383 404.945 518.377 404.833 518.419 404.729C518.46 404.625 518.546 404.536 518.662 404.476Z" fill="url(#paint35_linear_0_1)"/>
<path d="M504.376 393.503C504.642 392.938 505.085 392.435 505.665 392.04C506.46 391.502 507.2 391.803 506.515 392.707C506.125 393.192 505.575 393.586 504.924 393.847C504.65 393.955 504.239 393.761 504.376 393.503Z" fill="#569B9B"/>
<path d="M400.784 712.628C400.784 712.628 392.366 719.965 389.295 721.234C382.632 724.052 365.001 727.516 354.198 721.987C348.906 719.28 344.359 715.769 340.827 711.659C337.295 707.55 334.849 702.926 333.634 698.062C329.027 681.947 332.345 676.805 336.019 670.587C338.675 667.497 341.705 664.615 345.068 661.981C345.068 661.981 344.93 686.831 352.663 695.739C360.395 704.646 400.784 712.628 400.784 712.628Z" fill="black"/>
<path d="M356.502 678.161C358.358 677.385 360.43 676.979 362.534 676.979C364.638 676.979 366.709 677.385 368.566 678.161C375.264 681.381 380.59 686.092 383.866 691.694C386.114 696.707 384.634 707.507 384.634 707.507C384.634 707.507 410.49 692.877 390.337 679.258C370.184 665.639 359.874 672.502 356.502 678.161Z" fill="black"/>
<path d="M356.666 657.442C375.229 654.042 390.2 666.048 407.447 681.108C422.006 693.845 401.716 720.266 377.286 721.471C352.855 722.675 342.271 710.111 337.884 693.006C334.484 679.215 334.594 661.465 356.666 657.442ZM370.376 703.204C380.027 704.667 396.918 697.245 388.829 688.144C382.989 681.56 372.679 671.556 363.96 674.933C348.413 680.915 360.642 701.72 370.266 703.204H370.376Z" fill="url(#paint36_radial_0_1)"/>
<path d="M343.916 662.799C331.386 680.463 338.268 695.717 348.824 709.702C355.378 718.308 365.962 719.534 377.862 718.867C390.721 718.114 397.247 715.038 406.981 705.7C404.643 709.646 401.044 713.05 396.531 715.58C392.019 718.11 386.749 719.68 381.234 720.137C369.553 721.212 357.187 720.782 349.318 712.778C336.54 699.762 326.56 675.751 343.916 662.799Z" fill="#569B9B"/>
<path d="M361.629 675.966C356.145 679.774 356.694 692.984 363.439 698.729C372.131 706.087 388.116 702.58 390.858 693.91C390.584 703.613 373.42 707.529 364.262 700.902C356.749 695.48 351.978 681.323 361.629 675.966Z" fill="#569B9B"/>
<path opacity="0.3" d="M353.403 661.917C356.283 660.756 359.474 660.15 362.712 660.15C365.95 660.15 369.141 660.756 372.021 661.917C375.366 663.122 383.29 666.887 381.261 670.092C379.561 672.782 372.185 670.329 368.21 670.092C361.163 669.77 359.353 672.244 354.5 675.019C350.332 677.472 345.04 677.02 344.711 672.222C344.41 667.876 348.989 663.896 353.403 661.917Z" fill="url(#paint37_linear_0_1)"/>
<path opacity="0.3" d="M356.145 700.838C359.902 702.193 360.423 705.141 366.4 707.141C367.853 707.615 373.31 708.906 373.584 710.971C373.858 713.037 370.842 713.79 369.032 714.026C364.958 714.597 360.762 713.886 357.352 712.047C355.849 711.009 354.623 709.749 353.743 708.339C352.863 706.928 352.347 705.396 352.224 703.828C352.443 701.956 354.006 700.02 356.145 700.838Z" fill="url(#paint38_linear_0_1)"/>
<path d="M351.868 666.564C352.498 665.897 354.116 664.219 355.158 664.412C356.2 664.606 354.857 665.187 354.555 665.467C352.982 666.904 351.806 668.582 351.1 670.394C350.853 670.652 350.195 670.673 350.113 670.286C350.101 668.919 350.725 667.596 351.868 666.564Z" fill="#569B9B"/>
<path d="M357.681 663.272C357.889 663.089 358.16 662.957 358.462 662.892C358.763 662.827 359.083 662.832 359.381 662.906C359.469 662.937 359.544 662.986 359.596 663.049C359.649 663.112 359.677 663.186 359.677 663.261C359.677 663.337 359.649 663.411 359.596 663.474C359.544 663.537 359.469 663.586 359.381 663.616C358.968 663.766 358.536 663.882 358.092 663.961C357.736 664.068 357.269 663.444 357.681 663.272Z" fill="#569B9B"/>
<path d="M383.564 705.334C386.485 707.38 389.774 709.076 393.325 710.369C394.34 710.713 394.093 711.272 392.859 710.971C389.069 709.918 385.682 708.126 383.016 705.765C382.522 705.033 382.577 704.474 383.564 705.334Z" fill="#569B9B"/>
<path opacity="0.3" d="M392.997 688.122C396.851 688.667 400.787 688.762 404.677 688.402C405.774 688.273 405.938 688.854 404.677 689.09C400.744 689.773 396.652 689.64 392.805 688.703C391.79 688.316 391.571 687.821 392.997 688.122Z" fill="url(#paint39_linear_0_1)"/>
<path d="M386.855 703.592C387.478 703.744 388.056 703.993 388.555 704.323C389.048 704.667 388.856 704.947 388.226 704.797C387.615 704.62 387.055 704.35 386.58 704.001C386.087 703.678 386.306 703.42 386.855 703.592Z" fill="#569B9B"/>
<path d="M408.242 687.348C407.48 684.566 405.365 682.126 402.347 680.549C401.689 680.269 401.387 679.516 402.347 679.86C408.516 682.442 413.123 691.263 407.063 695.459C406.35 695.954 405.802 695.911 406.131 695.028C407.063 692.188 408.982 690.381 408.242 687.348Z" fill="#569B9B"/>
<path d="M389.35 677.881C389.762 677.674 390.233 677.548 390.721 677.515C390.835 677.503 390.951 677.521 391.051 677.566C391.151 677.611 391.229 677.681 391.273 677.765C391.317 677.848 391.324 677.941 391.294 678.028C391.263 678.115 391.197 678.192 391.105 678.247C390.739 678.499 390.294 678.669 389.816 678.742C389.677 678.769 389.529 678.756 389.401 678.706C389.272 678.656 389.17 678.571 389.114 678.468C389.058 678.364 389.051 678.248 389.094 678.14C389.137 678.033 389.228 677.941 389.35 677.881Z" fill="#569B9B"/>
<path opacity="0.3" d="M401.662 685.476C402.06 685.263 402.524 685.137 403.005 685.11C403.122 685.091 403.243 685.104 403.349 685.147C403.456 685.189 403.539 685.259 403.588 685.345C403.636 685.431 403.645 685.527 403.614 685.617C403.583 685.707 403.513 685.787 403.416 685.841C403.034 686.086 402.583 686.256 402.1 686.336C401.964 686.355 401.823 686.337 401.702 686.284C401.58 686.231 401.486 686.147 401.435 686.046C401.383 685.945 401.377 685.833 401.419 685.729C401.46 685.625 401.546 685.536 401.662 685.476Z" fill="url(#paint40_linear_0_1)"/>
<path d="M387.376 674.503C387.642 673.938 388.085 673.435 388.665 673.04C389.46 672.502 390.2 672.803 389.515 673.707C389.125 674.192 388.575 674.586 387.924 674.847C387.65 674.955 387.239 674.761 387.376 674.503Z" fill="#569B9B"/>
<path d="M845.784 431.628C845.784 431.628 837.366 438.965 834.295 440.234C827.632 443.052 810.001 446.516 799.198 440.987C793.906 438.28 789.359 434.769 785.827 430.659C782.295 426.55 779.849 421.926 778.634 417.062C774.027 400.947 777.345 395.805 781.019 389.587C783.675 386.497 786.705 383.615 790.067 380.981C790.067 380.981 789.93 405.831 797.663 414.739C805.395 423.646 845.784 431.628 845.784 431.628Z" fill="black"/>
<path d="M801.502 397.161C803.358 396.385 805.43 395.979 807.534 395.979C809.638 395.979 811.709 396.385 813.566 397.161C820.264 400.381 825.59 405.092 828.866 410.694C831.114 415.707 829.634 426.507 829.634 426.507C829.634 426.507 855.49 411.877 835.337 398.258C815.184 384.639 804.874 391.502 801.502 397.161Z" fill="black"/>
<path d="M801.666 376.442C820.229 373.042 835.2 385.048 852.447 400.108C867.006 412.845 846.716 439.266 822.285 440.471C797.855 441.675 787.271 429.111 782.884 412.006C779.484 398.215 779.594 380.465 801.666 376.442ZM815.376 422.204C825.027 423.667 841.918 416.245 833.829 407.144C827.989 400.56 817.679 390.556 808.96 393.933C793.413 399.915 805.642 420.72 815.266 422.204H815.376Z" fill="url(#paint41_radial_0_1)"/>
<path d="M788.916 381.799C776.386 399.463 783.268 414.717 793.824 428.702C800.378 437.308 810.962 438.534 822.862 437.867C835.721 437.114 842.247 434.038 851.981 424.7C849.643 428.646 846.044 432.05 841.531 434.58C837.019 437.11 831.749 438.68 826.234 439.137C814.553 440.212 802.187 439.782 794.318 431.778C781.54 418.762 771.56 394.751 788.916 381.799Z" fill="#569B9B"/>
<path d="M806.629 394.966C801.145 398.774 801.694 411.984 808.439 417.729C817.131 425.087 833.116 421.58 835.858 412.91C835.584 422.613 818.42 426.529 809.262 419.902C801.749 414.48 796.978 400.323 806.629 394.966Z" fill="#569B9B"/>
<path opacity="0.3" d="M798.403 380.917C801.283 379.756 804.474 379.15 807.712 379.15C810.95 379.15 814.141 379.756 817.021 380.917C820.366 382.122 828.29 385.887 826.261 389.092C824.561 391.782 817.186 389.329 813.21 389.092C806.163 388.77 804.353 391.244 799.5 394.019C795.332 396.472 790.04 396.02 789.711 391.222C789.41 386.876 793.989 382.896 798.403 380.917Z" fill="url(#paint42_linear_0_1)"/>
<path opacity="0.3" d="M801.145 419.838C804.902 421.193 805.423 424.141 811.4 426.141C812.853 426.615 818.31 427.906 818.584 429.971C818.858 432.037 815.842 432.79 814.032 433.026C809.958 433.597 805.762 432.886 802.352 431.047C800.849 430.009 799.623 428.749 798.743 427.339C797.863 425.928 797.347 424.396 797.224 422.828C797.443 420.956 799.006 419.02 801.145 419.838Z" fill="url(#paint43_linear_0_1)"/>
<path d="M796.868 385.564C797.498 384.897 799.116 383.219 800.158 383.412C801.2 383.606 799.857 384.187 799.555 384.467C797.982 385.904 796.806 387.582 796.1 389.394C795.853 389.652 795.195 389.673 795.113 389.286C795.101 387.919 795.725 386.596 796.868 385.564Z" fill="#569B9B"/>
<path d="M802.681 382.272C802.888 382.089 803.16 381.957 803.462 381.892C803.763 381.827 804.083 381.832 804.381 381.906C804.469 381.937 804.544 381.986 804.596 382.049C804.649 382.112 804.677 382.186 804.677 382.261C804.677 382.337 804.649 382.411 804.596 382.474C804.544 382.537 804.469 382.586 804.381 382.616C803.968 382.766 803.536 382.882 803.092 382.961C802.735 383.068 802.269 382.444 802.681 382.272Z" fill="#569B9B"/>
<path d="M828.564 424.334C831.485 426.38 834.774 428.076 838.326 429.369C839.34 429.713 839.093 430.272 837.859 429.971C834.07 428.918 830.682 427.126 828.016 424.765C827.522 424.033 827.577 423.474 828.564 424.334Z" fill="#569B9B"/>
<path opacity="0.3" d="M837.997 407.122C841.851 407.667 845.787 407.762 849.677 407.402C850.774 407.273 850.938 407.854 849.677 408.09C845.744 408.773 841.652 408.64 837.805 407.703C836.79 407.316 836.571 406.821 837.997 407.122Z" fill="url(#paint44_linear_0_1)"/>
<path d="M831.855 422.592C832.478 422.744 833.056 422.993 833.555 423.323C834.048 423.667 833.856 423.947 833.226 423.797C832.615 423.62 832.055 423.35 831.58 423.001C831.087 422.678 831.306 422.42 831.855 422.592Z" fill="#569B9B"/>
<path d="M853.242 406.348C852.48 403.566 850.365 401.126 847.347 399.549C846.689 399.269 846.387 398.516 847.347 398.86C853.516 401.442 858.123 410.263 852.063 414.459C851.35 414.954 850.802 414.911 851.131 414.028C852.063 411.188 853.982 409.381 853.242 406.348Z" fill="#569B9B"/>
<path d="M834.35 396.881C834.762 396.674 835.233 396.548 835.721 396.515C835.835 396.503 835.951 396.521 836.051 396.566C836.151 396.611 836.229 396.681 836.273 396.765C836.317 396.848 836.324 396.941 836.294 397.028C836.263 397.115 836.197 397.192 836.105 397.247C835.739 397.499 835.294 397.669 834.816 397.742C834.677 397.769 834.529 397.756 834.401 397.706C834.272 397.656 834.17 397.571 834.114 397.468C834.058 397.364 834.051 397.248 834.094 397.14C834.137 397.033 834.228 396.941 834.35 396.881Z" fill="#569B9B"/>
<path opacity="0.3" d="M846.662 404.476C847.06 404.263 847.524 404.137 848.005 404.11C848.122 404.091 848.243 404.104 848.349 404.147C848.456 404.189 848.539 404.259 848.588 404.345C848.636 404.431 848.645 404.527 848.614 404.617C848.583 404.707 848.513 404.787 848.416 404.841C848.034 405.086 847.583 405.256 847.1 405.336C846.964 405.355 846.823 405.337 846.702 405.284C846.58 405.231 846.486 405.147 846.435 405.046C846.383 404.945 846.377 404.833 846.419 404.729C846.46 404.625 846.546 404.536 846.662 404.476Z" fill="url(#paint45_linear_0_1)"/>
<path d="M832.376 393.503C832.642 392.938 833.085 392.435 833.665 392.04C834.46 391.502 835.2 391.803 834.515 392.707C834.125 393.192 833.575 393.586 832.924 393.847C832.65 393.955 832.239 393.761 832.376 393.503Z" fill="#569B9B"/>
<defs>
<radialGradient id="paint0_radial_0_1" cx="0" cy="0" r="1" gradientUnits="userSpaceOnUse" gradientTransform="translate(543 543) scale(543)">
<stop stop-color="#F7E3D9"/>
<stop offset="0.604167" stop-color="#E7804A"/>
<stop offset="0.84" stop-color="#DF5209"/>
<stop offset="0.86" stop-color="#E0550A"/>
<stop offset="0.87" stop-color="#E15F0D"/>
<stop offset="0.89" stop-color="#E46F12"/>
<stop offset="0.9" stop-color="#E8861A"/>
<stop offset="0.92" stop-color="#EDA423"/>
<stop offset="0.93" stop-color="#F2BF2C"/>
<stop offset="0.94" stop-color="#EDB429"/>
<stop offset="0.96" stop-color="#DF9823"/>
<stop offset="0.98" stop-color="#CA6918"/>
<stop offset="0.99" stop-color="#BD4E11"/>
</radialGradient>
<radialGradient id="paint1_radial_0_1" cx="0" cy="0" r="1" gradientUnits="userSpaceOnUse" gradientTransform="translate(905.489 692.585) rotate(180) scale(43.2403 33.9294)">
<stop stop-color="#1A4950"/>
<stop offset="0.99"/>
</radialGradient>
<linearGradient id="paint2_linear_0_1" x1="875.026" y1="673.135" x2="910.394" y2="663.801" gradientUnits="userSpaceOnUse">
<stop stop-color="#1A4950"/>
<stop offset="0.11" stop-color="#1C535A"/>
<stop offset="0.39" stop-color="#20646C"/>
<stop offset="0.67" stop-color="#226F77"/>
<stop offset="1" stop-color="#23727A"/>
</linearGradient>
<linearGradient id="paint3_linear_0_1" x1="884.321" y1="711.755" x2="902.794" y2="706.883" gradientUnits="userSpaceOnUse">
<stop stop-color="#1A4950"/>
<stop offset="0.11" stop-color="#1C535A"/>
<stop offset="0.39" stop-color="#20646C"/>
<stop offset="0.67" stop-color="#226F77"/>
<stop offset="1" stop-color="#23727A"/>
</linearGradient>
<linearGradient id="paint4_linear_0_1" x1="936.555" y1="691.768" x2="923.01" y2="691.768" gradientUnits="userSpaceOnUse">
<stop stop-color="#1A4950"/>
<stop offset="0.11" stop-color="#1C535A"/>
<stop offset="0.39" stop-color="#20646C"/>
<stop offset="0.67" stop-color="#226F77"/>
<stop offset="1" stop-color="#23727A"/>
</linearGradient>
<linearGradient id="paint5_linear_0_1" x1="934.636" y1="688.712" x2="932.36" y2="688.712" gradientUnits="userSpaceOnUse">
<stop stop-color="#1A4950"/>
<stop offset="0.11" stop-color="#1C535A"/>
<stop offset="0.39" stop-color="#20646C"/>
<stop offset="0.67" stop-color="#226F77"/>
<stop offset="1" stop-color="#23727A"/>
</linearGradient>
<radialGradient id="paint6_radial_0_1" cx="0" cy="0" r="1" gradientUnits="userSpaceOnUse" gradientTransform="translate(546.489 897.585) rotate(180) scale(43.2403 33.9294)">
<stop stop-color="#1A4950"/>
<stop offset="0.99"/>
</radialGradient>
<linearGradient id="paint7_linear_0_1" x1="516.026" y1="878.135" x2="551.394" y2="868.801" gradientUnits="userSpaceOnUse">
<stop stop-color="#1A4950"/>
<stop offset="0.11" stop-color="#1C535A"/>
<stop offset="0.39" stop-color="#20646C"/>
<stop offset="0.67" stop-color="#226F77"/>
<stop offset="1" stop-color="#23727A"/>
</linearGradient>
<linearGradient id="paint8_linear_0_1" x1="525.321" y1="916.755" x2="543.794" y2="911.883" gradientUnits="userSpaceOnUse">
<stop stop-color="#1A4950"/>
<stop offset="0.11" stop-color="#1C535A"/>
<stop offset="0.39" stop-color="#20646C"/>
<stop offset="0.67" stop-color="#226F77"/>
<stop offset="1" stop-color="#23727A"/>
</linearGradient>
<linearGradient id="paint9_linear_0_1" x1="577.555" y1="896.768" x2="564.01" y2="896.768" gradientUnits="userSpaceOnUse">
<stop stop-color="#1A4950"/>
<stop offset="0.11" stop-color="#1C535A"/>
<stop offset="0.39" stop-color="#20646C"/>
<stop offset="0.67" stop-color="#226F77"/>
<stop offset="1" stop-color="#23727A"/>
</linearGradient>
<linearGradient id="paint10_linear_0_1" x1="575.636" y1="893.712" x2="573.36" y2="893.712" gradientUnits="userSpaceOnUse">
<stop stop-color="#1A4950"/>
<stop offset="0.11" stop-color="#1C535A"/>
<stop offset="0.39" stop-color="#20646C"/>
<stop offset="0.67" stop-color="#226F77"/>
<stop offset="1" stop-color="#23727A"/>
</linearGradient>
<radialGradient id="paint11_radial_0_1" cx="0" cy="0" r="1" gradientUnits="userSpaceOnUse" gradientTransform="translate(793.489 556.585) rotate(180) scale(43.2403 33.9294)">
<stop stop-color="#1A4950"/>
<stop offset="0.99"/>
</radialGradient>
<linearGradient id="paint12_linear_0_1" x1="763.026" y1="537.135" x2="798.394" y2="527.801" gradientUnits="userSpaceOnUse">
<stop stop-color="#1A4950"/>
<stop offset="0.11" stop-color="#1C535A"/>
<stop offset="0.39" stop-color="#20646C"/>
<stop offset="0.67" stop-color="#226F77"/>
<stop offset="1" stop-color="#23727A"/>
</linearGradient>
<linearGradient id="paint13_linear_0_1" x1="772.321" y1="575.755" x2="790.794" y2="570.883" gradientUnits="userSpaceOnUse">
<stop stop-color="#1A4950"/>
<stop offset="0.11" stop-color="#1C535A"/>
<stop offset="0.39" stop-color="#20646C"/>
<stop offset="0.67" stop-color="#226F77"/>
<stop offset="1" stop-color="#23727A"/>
</linearGradient>
<linearGradient id="paint14_linear_0_1" x1="824.555" y1="555.768" x2="811.01" y2="555.768" gradientUnits="userSpaceOnUse">
<stop stop-color="#1A4950"/>
<stop offset="0.11" stop-color="#1C535A"/>
<stop offset="0.39" stop-color="#20646C"/>
<stop offset="0.67" stop-color="#226F77"/>
<stop offset="1" stop-color="#23727A"/>
</linearGradient>
<linearGradient id="paint15_linear_0_1" x1="822.636" y1="552.712" x2="820.36" y2="552.712" gradientUnits="userSpaceOnUse">
<stop stop-color="#1A4950"/>
<stop offset="0.11" stop-color="#1C535A"/>
<stop offset="0.39" stop-color="#20646C"/>
<stop offset="0.67" stop-color="#226F77"/>
<stop offset="1" stop-color="#23727A"/>
</linearGradient>
<radialGradient id="paint16_radial_0_1" cx="0" cy="0" r="1" gradientUnits="userSpaceOnUse" gradientTransform="translate(320.489 354.585) rotate(180) scale(43.2403 33.9294)">
<stop stop-color="#1A4950"/>
<stop offset="0.99"/>
</radialGradient>
<linearGradient id="paint17_linear_0_1" x1="290.026" y1="335.136" x2="325.394" y2="325.801" gradientUnits="userSpaceOnUse">
<stop stop-color="#1A4950"/>
<stop offset="0.11" stop-color="#1C535A"/>
<stop offset="0.39" stop-color="#20646C"/>
<stop offset="0.67" stop-color="#226F77"/>
<stop offset="1" stop-color="#23727A"/>
</linearGradient>
<linearGradient id="paint18_linear_0_1" x1="299.321" y1="373.755" x2="317.794" y2="368.883" gradientUnits="userSpaceOnUse">
<stop stop-color="#1A4950"/>
<stop offset="0.11" stop-color="#1C535A"/>
<stop offset="0.39" stop-color="#20646C"/>
<stop offset="0.67" stop-color="#226F77"/>
<stop offset="1" stop-color="#23727A"/>
</linearGradient>
<linearGradient id="paint19_linear_0_1" x1="351.555" y1="353.768" x2="338.01" y2="353.768" gradientUnits="userSpaceOnUse">
<stop stop-color="#1A4950"/>
<stop offset="0.11" stop-color="#1C535A"/>
<stop offset="0.39" stop-color="#20646C"/>
<stop offset="0.67" stop-color="#226F77"/>
<stop offset="1" stop-color="#23727A"/>
</linearGradient>
<linearGradient id="paint20_linear_0_1" x1="349.636" y1="350.712" x2="347.36" y2="350.712" gradientUnits="userSpaceOnUse">
<stop stop-color="#1A4950"/>
<stop offset="0.11" stop-color="#1C535A"/>
<stop offset="0.39" stop-color="#20646C"/>
<stop offset="0.67" stop-color="#226F77"/>
<stop offset="1" stop-color="#23727A"/>
</linearGradient>
<radialGradient id="paint21_radial_0_1" cx="0" cy="0" r="1" gradientUnits="userSpaceOnUse" gradientTransform="translate(540.489 556.585) rotate(180) scale(43.2403 33.9294)">
<stop stop-color="#1A4950"/>
<stop offset="0.99"/>
</radialGradient>
<linearGradient id="paint22_linear_0_1" x1="510.026" y1="537.135" x2="545.394" y2="527.801" gradientUnits="userSpaceOnUse">
<stop stop-color="#1A4950"/>
<stop offset="0.11" stop-color="#1C535A"/>
<stop offset="0.39" stop-color="#20646C"/>
<stop offset="0.67" stop-color="#226F77"/>
<stop offset="1" stop-color="#23727A"/>
</linearGradient>
<linearGradient id="paint23_linear_0_1" x1="519.321" y1="575.755" x2="537.794" y2="570.883" gradientUnits="userSpaceOnUse">
<stop stop-color="#1A4950"/>
<stop offset="0.11" stop-color="#1C535A"/>
<stop offset="0.39" stop-color="#20646C"/>
<stop offset="0.67" stop-color="#226F77"/>
<stop offset="1" stop-color="#23727A"/>
</linearGradient>
<linearGradient id="paint24_linear_0_1" x1="571.555" y1="555.768" x2="558.01" y2="555.768" gradientUnits="userSpaceOnUse">
<stop stop-color="#1A4950"/>
<stop offset="0.11" stop-color="#1C535A"/>
<stop offset="0.39" stop-color="#20646C"/>
<stop offset="0.67" stop-color="#226F77"/>
<stop offset="1" stop-color="#23727A"/>
</linearGradient>
<linearGradient id="paint25_linear_0_1" x1="569.636" y1="552.712" x2="567.36" y2="552.712" gradientUnits="userSpaceOnUse">
<stop stop-color="#1A4950"/>
<stop offset="0.11" stop-color="#1C535A"/>
<stop offset="0.39" stop-color="#20646C"/>
<stop offset="0.67" stop-color="#226F77"/>
<stop offset="1" stop-color="#23727A"/>
</linearGradient>
<radialGradient id="paint26_radial_0_1" cx="0" cy="0" r="1" gradientUnits="userSpaceOnUse" gradientTransform="translate(750.489 725.585) rotate(180) scale(43.2403 33.9294)">
<stop stop-color="#1A4950"/>
<stop offset="0.99"/>
</radialGradient>
<linearGradient id="paint27_linear_0_1" x1="720.026" y1="706.135" x2="755.394" y2="696.801" gradientUnits="userSpaceOnUse">
<stop stop-color="#1A4950"/>
<stop offset="0.11" stop-color="#1C535A"/>
<stop offset="0.39" stop-color="#20646C"/>
<stop offset="0.67" stop-color="#226F77"/>
<stop offset="1" stop-color="#23727A"/>
</linearGradient>
<linearGradient id="paint28_linear_0_1" x1="729.321" y1="744.755" x2="747.794" y2="739.883" gradientUnits="userSpaceOnUse">
<stop stop-color="#1A4950"/>
<stop offset="0.11" stop-color="#1C535A"/>
<stop offset="0.39" stop-color="#20646C"/>
<stop offset="0.67" stop-color="#226F77"/>
<stop offset="1" stop-color="#23727A"/>
</linearGradient>
<linearGradient id="paint29_linear_0_1" x1="781.555" y1="724.768" x2="768.01" y2="724.768" gradientUnits="userSpaceOnUse">
<stop stop-color="#1A4950"/>
<stop offset="0.11" stop-color="#1C535A"/>
<stop offset="0.39" stop-color="#20646C"/>
<stop offset="0.67" stop-color="#226F77"/>
<stop offset="1" stop-color="#23727A"/>
</linearGradient>
<linearGradient id="paint30_linear_0_1" x1="779.636" y1="721.712" x2="777.36" y2="721.712" gradientUnits="userSpaceOnUse">
<stop stop-color="#1A4950"/>
<stop offset="0.11" stop-color="#1C535A"/>
<stop offset="0.39" stop-color="#20646C"/>
<stop offset="0.67" stop-color="#226F77"/>
<stop offset="1" stop-color="#23727A"/>
</linearGradient>
<radialGradient id="paint31_radial_0_1" cx="0" cy="0" r="1" gradientUnits="userSpaceOnUse" gradientTransform="translate(491.489 408.585) rotate(180) scale(43.2403 33.9294)">
<stop stop-color="#1A4950"/>
<stop offset="0.99"/>
</radialGradient>
<linearGradient id="paint32_linear_0_1" x1="461.026" y1="389.135" x2="496.394" y2="379.801" gradientUnits="userSpaceOnUse">
<stop stop-color="#1A4950"/>
<stop offset="0.11" stop-color="#1C535A"/>
<stop offset="0.39" stop-color="#20646C"/>
<stop offset="0.67" stop-color="#226F77"/>
<stop offset="1" stop-color="#23727A"/>
</linearGradient>
<linearGradient id="paint33_linear_0_1" x1="470.321" y1="427.755" x2="488.794" y2="422.883" gradientUnits="userSpaceOnUse">
<stop stop-color="#1A4950"/>
<stop offset="0.11" stop-color="#1C535A"/>
<stop offset="0.39" stop-color="#20646C"/>
<stop offset="0.67" stop-color="#226F77"/>
<stop offset="1" stop-color="#23727A"/>
</linearGradient>
<linearGradient id="paint34_linear_0_1" x1="522.555" y1="407.768" x2="509.01" y2="407.768" gradientUnits="userSpaceOnUse">
<stop stop-color="#1A4950"/>
<stop offset="0.11" stop-color="#1C535A"/>
<stop offset="0.39" stop-color="#20646C"/>
<stop offset="0.67" stop-color="#226F77"/>
<stop offset="1" stop-color="#23727A"/>
</linearGradient>
<linearGradient id="paint35_linear_0_1" x1="520.636" y1="404.712" x2="518.36" y2="404.712" gradientUnits="userSpaceOnUse">
<stop stop-color="#1A4950"/>
<stop offset="0.11" stop-color="#1C535A"/>
<stop offset="0.39" stop-color="#20646C"/>
<stop offset="0.67" stop-color="#226F77"/>
<stop offset="1" stop-color="#23727A"/>
</linearGradient>
<radialGradient id="paint36_radial_0_1" cx="0" cy="0" r="1" gradientUnits="userSpaceOnUse" gradientTransform="translate(374.489 689.585) rotate(180) scale(43.2403 33.9294)">
<stop stop-color="#1A4950"/>
<stop offset="0.99"/>
</radialGradient>
<linearGradient id="paint37_linear_0_1" x1="344.026" y1="670.135" x2="379.394" y2="660.801" gradientUnits="userSpaceOnUse">
<stop stop-color="#1A4950"/>
<stop offset="0.11" stop-color="#1C535A"/>
<stop offset="0.39" stop-color="#20646C"/>
<stop offset="0.67" stop-color="#226F77"/>
<stop offset="1" stop-color="#23727A"/>
</linearGradient>
<linearGradient id="paint38_linear_0_1" x1="353.321" y1="708.755" x2="371.794" y2="703.883" gradientUnits="userSpaceOnUse">
<stop stop-color="#1A4950"/>
<stop offset="0.11" stop-color="#1C535A"/>
<stop offset="0.39" stop-color="#20646C"/>
<stop offset="0.67" stop-color="#226F77"/>
<stop offset="1" stop-color="#23727A"/>
</linearGradient>
<linearGradient id="paint39_linear_0_1" x1="405.555" y1="688.768" x2="392.01" y2="688.768" gradientUnits="userSpaceOnUse">
<stop stop-color="#1A4950"/>
<stop offset="0.11" stop-color="#1C535A"/>
<stop offset="0.39" stop-color="#20646C"/>
<stop offset="0.67" stop-color="#226F77"/>
<stop offset="1" stop-color="#23727A"/>
</linearGradient>
<linearGradient id="paint40_linear_0_1" x1="403.636" y1="685.712" x2="401.36" y2="685.712" gradientUnits="userSpaceOnUse">
<stop stop-color="#1A4950"/>
<stop offset="0.11" stop-color="#1C535A"/>
<stop offset="0.39" stop-color="#20646C"/>
<stop offset="0.67" stop-color="#226F77"/>
<stop offset="1" stop-color="#23727A"/>
</linearGradient>
<radialGradient id="paint41_radial_0_1" cx="0" cy="0" r="1" gradientUnits="userSpaceOnUse" gradientTransform="translate(819.489 408.585) rotate(180) scale(43.2403 33.9294)">
<stop stop-color="#1A4950"/>
<stop offset="0.99"/>
</radialGradient>
<linearGradient id="paint42_linear_0_1" x1="789.026" y1="389.135" x2="824.394" y2="379.801" gradientUnits="userSpaceOnUse">
<stop stop-color="#1A4950"/>
<stop offset="0.11" stop-color="#1C535A"/>
<stop offset="0.39" stop-color="#20646C"/>
<stop offset="0.67" stop-color="#226F77"/>
<stop offset="1" stop-color="#23727A"/>
</linearGradient>
<linearGradient id="paint43_linear_0_1" x1="798.321" y1="427.755" x2="816.794" y2="422.883" gradientUnits="userSpaceOnUse">
<stop stop-color="#1A4950"/>
<stop offset="0.11" stop-color="#1C535A"/>
<stop offset="0.39" stop-color="#20646C"/>
<stop offset="0.67" stop-color="#226F77"/>
<stop offset="1" stop-color="#23727A"/>
</linearGradient>
<linearGradient id="paint44_linear_0_1" x1="850.555" y1="407.768" x2="837.01" y2="407.768" gradientUnits="userSpaceOnUse">
<stop stop-color="#1A4950"/>
<stop offset="0.11" stop-color="#1C535A"/>
<stop offset="0.39" stop-color="#20646C"/>
<stop offset="0.67" stop-color="#226F77"/>
<stop offset="1" stop-color="#23727A"/>
</linearGradient>
<linearGradient id="paint45_linear_0_1" x1="848.636" y1="404.712" x2="846.36" y2="404.712" gradientUnits="userSpaceOnUse">
<stop stop-color="#1A4950"/>
<stop offset="0.11" stop-color="#1C535A"/>
<stop offset="0.39" stop-color="#20646C"/>
<stop offset="0.67" stop-color="#226F77"/>
<stop offset="1" stop-color="#23727A"/>
</linearGradient>
<clipPath id="clip0_0_1">
<rect width="140" height="111" fill="white" transform="translate(446 708)"/>
</clipPath>
<clipPath id="clip1_0_1">
<rect width="140" height="111" fill="white" transform="translate(259 484)"/>
</clipPath>
<clipPath id="clip2_0_1">
<rect width="140" height="111" fill="white" transform="translate(580 287)"/>
</clipPath>
</defs>
</svg>
