<svg width="1086" height="1086" viewBox="0 0 1086 1086" fill="none" xmlns="http://www.w3.org/2000/svg">
<path d="M543 1086C842.891 1086 1086 842.891 1086 543C1086 243.109 842.891 0 543 0C243.109 0 0 243.109 0 543C0 842.891 243.109 1086 543 1086Z" fill="url(#paint0_radial_0_1)"/>
<path fill-rule="evenodd" clip-rule="evenodd" d="M999.025 431.522C1009.58 439.805 1016.25 453.294 1017.02 468.257C1017.96 486.703 1018.9 505.149 1019.84 523.595L1019.88 524.345L1019.97 526.036C1020.77 541.811 1021.58 557.586 1022.38 573.361C1023.37 592.718 1024.06 613.182 1017.13 631.523C1013.37 641.46 1009.41 650.686 1003.47 659.33C999.355 665.313 995.043 671.138 990.73 676.962C987.498 681.574 984.5 686.286 981.95 691.33C983.525 693.768 985.082 696.213 986.172 698.905L986.195 698.961C990.701 710.095 992.677 714.976 993.604 727.057C994.067 733.086 993.243 739.342 991.862 745.177C988.48 759.456 980.555 773.072 972.478 784.989C956.365 808.765 938.361 828.215 916.392 845.864C897.158 861.318 875.396 872.803 852.607 881.19C843.112 884.684 833.429 887.551 823.748 890.416L823.747 890.417L823.746 890.417C812.122 893.858 800.5 897.298 789.21 901.824C776.401 908.223 764.557 916.396 752.89 924.907C751.582 925.861 750.275 926.818 748.968 927.776C736.737 936.731 724.436 945.738 711.002 952.557C693.617 961.38 675.494 968.735 656.613 973.03C621.146 981.098 584.818 982.671 548.665 981.776C473.549 979.916 397.111 977.309 323.664 959.155C320.237 958.308 317.027 956.974 314.067 955.239C307.425 955.513 301.392 952.448 294.776 948.13L286.102 942.469C274.243 934.729 262.385 926.989 250.526 919.25C246.578 916.673 242.595 914.164 238.607 911.651C228.87 905.516 219.102 899.362 209.739 892.159C192.829 879.151 180.205 860.512 168.993 837.771C165.468 830.62 162.244 823.155 159.02 815.69C156.433 809.698 153.845 803.707 151.102 797.878C144.566 786.284 136.978 776.324 129.387 766.361L129.387 766.36C122.04 756.717 114.691 747.071 108.29 735.936C91.8736 707.376 79.4584 675.426 71.6427 639.367C64.7968 607.787 61.4908 572.574 63.6609 539.388C66.1611 501.138 72.1155 463.288 80.6763 427.109C91.3933 381.82 106 340.505 127.735 305.084C146.007 275.311 168.41 250.076 192.208 231.322C218.515 210.589 246.832 195.451 275.813 186.035C292.389 180.652 309.148 176.912 325.968 173.754C332.67 172.496 339.406 171.647 346.142 170.799L346.142 170.799L346.145 170.799C349.798 170.338 353.45 169.878 357.096 169.353C360.758 161.26 364.442 153.222 368.785 145.72C375.509 134.11 383.288 124.566 391.485 115.401C405.605 99.6133 422.656 88.2194 439.844 82.9079C447.455 80.5565 454.765 80.5565 461.771 84.5931L482.546 69.7446C493.67 61.7937 505.578 53.6516 519.428 52.0503C526.932 51.1826 534.097 50.7309 541.748 51.9899C547.044 52.8615 552.33 53.9414 557.615 55.0231C561.723 55.7414 565.792 56.2457 569.87 56.2888C570.662 54.1943 571.464 52.1115 572.611 50.2881L572.635 50.2498C577.379 42.7093 579.458 39.4038 586.27 34.2077C589.67 31.6139 593.746 29.9059 597.805 28.7745C607.739 26.0067 619.188 26.9088 629.688 28.5574C650.635 31.8463 669.799 38.1706 689.555 48.1519C706.854 56.8904 722.848 69.0112 737.428 83.0596C743.503 88.9127 749.282 95.1412 755.06 101.368C761.999 108.846 768.935 116.322 776.38 123.144C785.578 130.412 795.43 136.293 805.408 141.915C806.526 142.545 807.646 143.173 808.766 143.802C819.247 149.683 829.787 155.598 839.5 163.182C852.068 172.996 864.071 183.913 874.568 196.539C894.287 220.258 910.496 247.044 925.16 274.616C952.163 325.392 979.254 377.17 999.025 431.522Z" fill="#EA210C"/>
<path d="M960.839 543.676L949.122 416.763C917.649 353.052 923.585 314.109 852.842 253.828L795.201 176.755C792.807 178.085 755.904 95.1437 667.787 115.102L650.011 115.102L611.605 115.102C574.815 115.101 574.815 106.594 539.456 119.467L373.963 151.937C361.595 151.937 326.471 192.48 316.577 213.819C306.683 235.157 299.969 256.495 294.315 256.495C199.438 256.495 130.503 351.938 130.503 446.9C130.503 451.228 134.92 460.116 135.234 464.363C98.6407 495.896 90 545.564 90 597.685C90 671.482 114.945 738.094 180.179 762.483C186.492 851.693 282.299 938.947 373.037 938.947C402.511 938.947 443.066 963.302 467.306 950.212C498.533 982.467 542.265 982 590.683 982C658.918 982 716.641 938.671 744.365 880.983C749.557 881.456 816.231 866.015 821.548 866.015C916.426 866.015 993.339 789.033 993.339 694.071C993.339 684.553 994.826 655.552 993.339 646.454C978.498 543.676 967.472 564.213 960.839 543.676Z" fill="#F4ED76"/>
<path opacity="0.5" d="M455.365 337.813C469.372 341.358 484.407 336.404 497.153 330.333C511.743 323.392 524.939 313.645 536.047 301.605C542.483 294.701 548.124 287.04 552.856 278.778C556.685 271.979 559.066 264.718 557.525 256.923C556.612 249.397 544.405 237.641 538.569 233.999C542.07 244.927 545.362 273.363 535.347 287.278C524.771 301.962 510.554 311.707 495.379 321.421C486.228 326.132 475.769 330.916 465.473 331.11C460.52 331.127 455.614 330.112 451.044 328.127C446.473 326.142 442.33 323.226 438.859 319.551C430.91 311.138 424.015 301.714 418.338 291.503C420.086 296.738 422.16 301.849 424.548 306.802C430.992 320.425 440.33 334.049 455.365 337.813Z" fill="url(#paint1_linear_0_1)"/>
<path d="M534.526 241.683C526.169 230.099 493.508 221.381 467.431 223.834C457.042 224.805 438.506 226.554 431.339 232.989C432.089 232.579 432.87 232.229 433.673 231.945C438.258 230.387 443.045 229.568 447.867 229.517C454.031 229.055 460.217 228.788 466.38 228.715C480.761 228.545 513.819 232.066 530.301 245.325C532.701 247.288 534.789 249.632 536.487 252.271C537.478 253.691 538.061 255.376 538.168 257.127C538.79 254.437 538.784 251.632 538.15 248.945C537.516 246.258 536.274 243.768 534.526 241.683Z" fill="white"/>
<path opacity="0.5" d="M534.526 241.683C526.169 230.099 493.508 221.381 467.431 223.834C457.042 224.805 438.506 226.554 431.339 232.989C432.089 232.579 432.87 232.229 433.673 231.945C438.258 230.387 443.045 229.568 447.867 229.517C454.031 229.055 460.217 228.788 466.38 228.715C480.761 228.545 513.819 232.066 530.301 245.325C532.701 247.288 534.789 249.632 536.487 252.271C537.478 253.691 538.061 255.376 538.168 257.127C538.79 254.437 538.784 251.632 538.15 248.945C537.516 246.258 536.274 243.768 534.526 241.683Z" fill="url(#paint2_linear_0_1)"/>
<path d="M462.621 334.739C472.917 334.545 483.236 330.368 492.387 325.657C508.183 317.492 521.92 305.591 532.495 290.907C542.51 276.992 552.946 257.2 546.199 240.056C537.024 229.153 517.367 219.876 472.146 217.011C462.755 216.896 453.375 217.709 444.132 219.439C436.948 220.287 429.998 222.606 423.681 226.263C411.331 234.204 408.343 249.745 409.113 263.83C409.76 274.605 411.858 285.232 415.346 295.399C421.071 305.557 428.005 314.924 435.984 323.277C439.466 326.938 443.616 329.837 448.19 331.806C452.764 333.774 457.671 334.771 462.621 334.739ZM431.338 232.989C438.505 226.554 457.018 224.806 467.431 223.834C493.508 221.406 526.168 230.1 534.526 241.683C536.246 243.769 537.466 246.251 538.083 248.924C538.699 251.596 538.697 254.383 538.075 257.055C537.904 260.177 536.848 263.177 535.04 265.676C528.741 276.518 521.209 286.531 512.604 295.496C498.597 310.067 478.17 327.77 456.855 324.346C430.825 320.169 421.836 288.162 418.825 265.797C417.331 254.651 420.692 238.988 431.338 232.989Z" fill="white"/>
<path opacity="0.5" d="M376.365 674.813C390.372 678.358 405.407 673.404 418.153 667.333C432.743 660.392 445.939 650.645 457.047 638.605C463.483 631.701 469.124 624.04 473.856 615.778C477.685 608.979 480.066 601.718 478.525 593.923C477.612 586.397 465.405 574.641 459.569 570.999C463.07 581.927 466.362 610.363 456.347 624.278C445.771 638.962 431.554 648.707 416.379 658.421C407.228 663.132 396.769 667.916 386.473 668.11C381.52 668.127 376.614 667.112 372.044 665.127C367.473 663.142 363.33 660.226 359.859 656.551C351.91 648.138 345.015 638.714 339.338 628.503C341.086 633.738 343.16 638.849 345.548 643.802C351.992 657.425 361.33 671.049 376.365 674.813Z" fill="url(#paint3_linear_0_1)"/>
<path d="M455.526 578.683C447.169 567.099 414.508 558.381 388.431 560.834C378.042 561.805 359.506 563.554 352.339 569.989C353.089 569.579 353.87 569.229 354.673 568.945C359.258 567.387 364.045 566.568 368.867 566.517C375.031 566.055 381.217 565.788 387.38 565.715C401.761 565.545 434.819 569.066 451.301 582.325C453.701 584.288 455.789 586.632 457.487 589.271C458.478 590.691 459.061 592.376 459.168 594.127C459.79 591.437 459.784 588.632 459.15 585.945C458.516 583.258 457.274 580.768 455.526 578.683Z" fill="white"/>
<path opacity="0.5" d="M455.526 578.683C447.169 567.099 414.508 558.381 388.431 560.834C378.042 561.805 359.506 563.554 352.339 569.989C353.089 569.579 353.87 569.229 354.673 568.945C359.258 567.387 364.045 566.568 368.867 566.517C375.031 566.055 381.217 565.788 387.38 565.715C401.761 565.545 434.819 569.066 451.301 582.325C453.701 584.288 455.789 586.632 457.487 589.271C458.478 590.691 459.061 592.376 459.168 594.127C459.79 591.437 459.784 588.632 459.15 585.945C458.516 583.258 457.274 580.768 455.526 578.683Z" fill="url(#paint4_linear_0_1)"/>
<path d="M383.621 671.739C393.917 671.545 404.236 667.368 413.387 662.657C429.183 654.492 442.92 642.591 453.495 627.907C463.51 613.992 473.946 594.2 467.199 577.056C458.024 566.153 438.367 556.876 393.146 554.011C383.755 553.896 374.375 554.709 365.132 556.439C357.948 557.287 350.998 559.606 344.681 563.263C332.331 571.204 329.343 586.745 330.113 600.83C330.76 611.605 332.858 622.232 336.346 632.399C342.071 642.557 349.005 651.924 356.984 660.277C360.466 663.938 364.616 666.837 369.19 668.806C373.764 670.774 378.671 671.771 383.621 671.739ZM352.338 569.989C359.505 563.554 378.018 561.806 388.431 560.834C414.508 558.406 447.168 567.1 455.526 578.683C457.246 580.769 458.466 583.251 459.083 585.924C459.699 588.596 459.697 591.383 459.075 594.055C458.904 597.177 457.848 600.177 456.04 602.676C449.741 613.518 442.209 623.531 433.604 632.496C419.597 647.067 399.17 664.77 377.855 661.346C351.825 657.169 342.836 625.162 339.825 602.797C338.331 591.651 341.692 575.988 352.338 569.989Z" fill="white"/>
<path opacity="0.5" d="M560.365 558.813C574.372 562.358 589.407 557.404 602.153 551.333C616.743 544.392 629.939 534.645 641.047 522.605C647.483 515.701 653.124 508.04 657.856 499.778C661.685 492.979 664.066 485.718 662.525 477.923C661.612 470.397 649.405 458.641 643.569 454.999C647.07 465.927 650.362 494.363 640.347 508.278C629.771 522.962 615.554 532.707 600.379 542.421C591.228 547.132 580.769 551.916 570.473 552.11C565.52 552.127 560.614 551.112 556.044 549.127C551.473 547.142 547.33 544.226 543.859 540.551C535.91 532.138 529.015 522.714 523.338 512.503C525.086 517.738 527.16 522.849 529.548 527.802C535.992 541.425 545.33 555.049 560.365 558.813Z" fill="url(#paint5_linear_0_1)"/>
<path d="M639.526 462.683C631.169 451.099 598.508 442.381 572.431 444.834C562.042 445.805 543.506 447.554 536.339 453.989C537.089 453.579 537.87 453.229 538.673 452.945C543.258 451.387 548.045 450.568 552.867 450.517C559.031 450.055 565.217 449.788 571.38 449.715C585.761 449.545 618.819 453.066 635.301 466.325C637.701 468.288 639.789 470.632 641.487 473.271C642.478 474.691 643.061 476.376 643.168 478.127C643.79 475.437 643.784 472.632 643.15 469.945C642.516 467.258 641.274 464.768 639.526 462.683Z" fill="white"/>
<path opacity="0.5" d="M639.526 462.683C631.169 451.099 598.508 442.381 572.431 444.834C562.042 445.805 543.506 447.554 536.339 453.989C537.089 453.579 537.87 453.229 538.673 452.945C543.258 451.387 548.045 450.568 552.867 450.517C559.031 450.055 565.217 449.788 571.38 449.715C585.761 449.545 618.819 453.066 635.301 466.325C637.701 468.288 639.789 470.632 641.487 473.271C642.478 474.691 643.061 476.376 643.168 478.127C643.79 475.437 643.784 472.632 643.15 469.945C642.516 467.258 641.274 464.768 639.526 462.683Z" fill="url(#paint6_linear_0_1)"/>
<path d="M567.621 555.739C577.917 555.545 588.236 551.368 597.387 546.657C613.183 538.492 626.92 526.591 637.495 511.907C647.51 497.992 657.946 478.2 651.199 461.056C642.024 450.153 622.367 440.876 577.146 438.011C567.755 437.896 558.375 438.709 549.132 440.439C541.948 441.287 534.998 443.606 528.681 447.263C516.331 455.204 513.343 470.745 514.113 484.83C514.76 495.605 516.858 506.232 520.346 516.399C526.071 526.557 533.005 535.924 540.984 544.277C544.466 547.938 548.616 550.837 553.19 552.806C557.764 554.774 562.671 555.771 567.621 555.739ZM536.338 453.989C543.505 447.554 562.018 445.806 572.431 444.834C598.508 442.406 631.168 451.1 639.526 462.683C641.246 464.769 642.466 467.251 643.083 469.924C643.699 472.596 643.697 475.383 643.075 478.055C642.904 481.177 641.848 484.177 640.04 486.676C633.741 497.518 626.209 507.531 617.604 516.496C603.597 531.067 583.17 548.77 561.855 545.346C535.825 541.169 526.836 509.162 523.825 486.797C522.331 475.651 525.692 459.988 536.338 453.989Z" fill="white"/>
<path opacity="0.5" d="M556.365 765.813C570.372 769.358 585.407 764.404 598.153 758.333C612.743 751.392 625.939 741.645 637.047 729.605C643.483 722.701 649.124 715.04 653.856 706.778C657.685 699.979 660.066 692.718 658.525 684.923C657.612 677.397 645.405 665.641 639.569 661.999C643.07 672.927 646.362 701.363 636.347 715.278C625.771 729.962 611.554 739.707 596.379 749.421C587.228 754.132 576.769 758.916 566.473 759.11C561.52 759.127 556.614 758.112 552.044 756.127C547.473 754.142 543.33 751.226 539.859 747.551C531.91 739.138 525.015 729.714 519.338 719.503C521.086 724.738 523.16 729.849 525.548 734.802C531.992 748.425 541.33 762.049 556.365 765.813Z" fill="url(#paint7_linear_0_1)"/>
<path d="M635.526 669.683C627.169 658.099 594.508 649.381 568.431 651.834C558.042 652.805 539.506 654.554 532.339 660.989C533.089 660.579 533.87 660.229 534.673 659.945C539.258 658.387 544.045 657.568 548.867 657.517C555.031 657.055 561.217 656.788 567.38 656.715C581.761 656.545 614.819 660.066 631.301 673.325C633.701 675.288 635.789 677.632 637.487 680.271C638.478 681.691 639.061 683.376 639.168 685.127C639.79 682.437 639.784 679.632 639.15 676.945C638.516 674.258 637.274 671.768 635.526 669.683Z" fill="white"/>
<path opacity="0.5" d="M635.526 669.683C627.169 658.099 594.508 649.381 568.431 651.834C558.042 652.805 539.506 654.554 532.339 660.989C533.089 660.579 533.87 660.229 534.673 659.945C539.258 658.387 544.045 657.568 548.867 657.517C555.031 657.055 561.217 656.788 567.38 656.715C581.761 656.545 614.819 660.066 631.301 673.325C633.701 675.288 635.789 677.632 637.487 680.271C638.478 681.691 639.061 683.376 639.168 685.127C639.79 682.437 639.784 679.632 639.15 676.945C638.516 674.258 637.274 671.768 635.526 669.683Z" fill="url(#paint8_linear_0_1)"/>
<path d="M563.621 762.739C573.917 762.545 584.236 758.368 593.387 753.657C609.183 745.492 622.92 733.591 633.495 718.907C643.51 704.992 653.946 685.2 647.199 668.056C638.024 657.153 618.367 647.876 573.146 645.011C563.755 644.896 554.375 645.709 545.132 647.439C537.948 648.287 530.998 650.606 524.681 654.263C512.331 662.204 509.343 677.745 510.113 691.83C510.76 702.605 512.858 713.232 516.346 723.399C522.071 733.557 529.005 742.924 536.984 751.277C540.466 754.938 544.616 757.837 549.19 759.806C553.764 761.774 558.671 762.771 563.621 762.739ZM532.338 660.989C539.505 654.554 558.018 652.806 568.431 651.834C594.508 649.406 627.168 658.1 635.526 669.683C637.246 671.769 638.466 674.251 639.083 676.924C639.699 679.596 639.697 682.383 639.075 685.055C638.904 688.177 637.848 691.177 636.04 693.676C629.741 704.518 622.209 714.531 613.604 723.496C599.597 738.067 579.17 755.77 557.855 752.346C531.825 748.169 522.836 716.162 519.825 693.797C518.331 682.651 521.692 666.988 532.338 660.989Z" fill="white"/>
<path opacity="0.5" d="M635.365 276.813C649.372 280.358 664.407 275.404 677.153 269.333C691.743 262.392 704.939 252.645 716.047 240.605C722.483 233.701 728.124 226.04 732.856 217.778C736.685 210.979 739.066 203.718 737.525 195.923C736.612 188.397 724.405 176.641 718.569 172.999C722.07 183.927 725.362 212.363 715.347 226.278C704.771 240.962 690.554 250.707 675.379 260.421C666.228 265.132 655.769 269.916 645.473 270.11C640.52 270.127 635.614 269.112 631.044 267.127C626.473 265.142 622.33 262.226 618.859 258.551C610.91 250.138 604.015 240.714 598.338 230.503C600.086 235.738 602.16 240.849 604.548 245.802C610.992 259.425 620.33 273.049 635.365 276.813Z" fill="url(#paint9_linear_0_1)"/>
<path d="M714.526 180.683C706.169 169.099 673.508 160.381 647.431 162.834C637.042 163.805 618.506 165.554 611.339 171.989C612.089 171.579 612.87 171.229 613.673 170.945C618.258 169.387 623.045 168.568 627.867 168.517C634.031 168.055 640.217 167.788 646.38 167.715C660.761 167.545 693.819 171.066 710.301 184.325C712.701 186.288 714.789 188.632 716.487 191.271C717.478 192.691 718.061 194.376 718.168 196.127C718.79 193.437 718.784 190.632 718.15 187.945C717.516 185.258 716.274 182.768 714.526 180.683Z" fill="white"/>
<path opacity="0.5" d="M714.526 180.683C706.169 169.099 673.508 160.381 647.431 162.834C637.042 163.805 618.506 165.554 611.339 171.989C612.089 171.579 612.87 171.229 613.673 170.945C618.258 169.387 623.045 168.568 627.867 168.517C634.031 168.055 640.217 167.788 646.38 167.715C660.761 167.545 693.819 171.066 710.301 184.325C712.701 186.288 714.789 188.632 716.487 191.271C717.478 192.691 718.061 194.376 718.168 196.127C718.79 193.437 718.784 190.632 718.15 187.945C717.516 185.258 716.274 182.768 714.526 180.683Z" fill="url(#paint10_linear_0_1)"/>
<path d="M642.621 273.739C652.917 273.545 663.236 269.368 672.387 264.657C688.183 256.492 701.92 244.591 712.495 229.907C722.51 215.992 732.946 196.2 726.199 179.056C717.024 168.153 697.367 158.876 652.146 156.011C642.755 155.896 633.375 156.709 624.132 158.439C616.948 159.287 609.998 161.606 603.681 165.263C591.331 173.204 588.343 188.745 589.113 202.83C589.76 213.605 591.858 224.232 595.346 234.399C601.071 244.557 608.005 253.924 615.984 262.277C619.466 265.938 623.616 268.837 628.19 270.806C632.764 272.774 637.671 273.771 642.621 273.739ZM611.338 171.989C618.505 165.554 637.018 163.806 647.431 162.834C673.508 160.406 706.168 169.1 714.526 180.683C716.246 182.769 717.466 185.251 718.083 187.924C718.699 190.596 718.697 193.383 718.075 196.055C717.904 199.177 716.848 202.177 715.04 204.676C708.741 215.518 701.209 225.531 692.604 234.496C678.597 249.067 658.17 266.77 636.855 263.346C610.825 259.169 601.836 227.162 598.825 204.797C597.331 193.651 600.692 177.988 611.338 171.989Z" fill="white"/>
<path opacity="0.5" d="M795.365 680.813C809.372 684.358 824.407 679.404 837.153 673.333C851.743 666.392 864.939 656.645 876.047 644.605C882.483 637.701 888.124 630.04 892.856 621.778C896.685 614.979 899.066 607.718 897.525 599.923C896.612 592.397 884.405 580.641 878.569 576.999C882.07 587.927 885.362 616.363 875.347 630.278C864.771 644.962 850.554 654.707 835.379 664.421C826.228 669.132 815.769 673.916 805.473 674.11C800.52 674.127 795.614 673.112 791.044 671.127C786.473 669.142 782.33 666.226 778.859 662.551C770.91 654.138 764.015 644.714 758.338 634.503C760.086 639.738 762.16 644.849 764.548 649.802C770.992 663.425 780.33 677.049 795.365 680.813Z" fill="url(#paint11_linear_0_1)"/>
<path d="M874.526 584.683C866.169 573.099 833.508 564.381 807.431 566.834C797.042 567.805 778.506 569.554 771.339 575.989C772.089 575.579 772.87 575.229 773.673 574.945C778.258 573.387 783.045 572.568 787.867 572.517C794.031 572.055 800.217 571.788 806.38 571.715C820.761 571.545 853.819 575.066 870.301 588.325C872.701 590.288 874.789 592.632 876.487 595.271C877.478 596.691 878.061 598.376 878.168 600.127C878.79 597.437 878.784 594.632 878.15 591.945C877.516 589.258 876.274 586.768 874.526 584.683Z" fill="white"/>
<path opacity="0.5" d="M874.526 584.683C866.169 573.099 833.508 564.381 807.431 566.834C797.042 567.805 778.506 569.554 771.339 575.989C772.089 575.579 772.87 575.229 773.673 574.945C778.258 573.387 783.045 572.568 787.867 572.517C794.031 572.055 800.217 571.788 806.38 571.715C820.761 571.545 853.819 575.066 870.301 588.325C872.701 590.288 874.789 592.632 876.487 595.271C877.478 596.691 878.061 598.376 878.168 600.127C878.79 597.437 878.784 594.632 878.15 591.945C877.516 589.258 876.274 586.768 874.526 584.683Z" fill="url(#paint12_linear_0_1)"/>
<path d="M802.621 677.739C812.917 677.545 823.236 673.368 832.387 668.657C848.183 660.492 861.92 648.591 872.495 633.907C882.51 619.992 892.946 600.2 886.199 583.056C877.024 572.153 857.367 562.876 812.146 560.011C802.755 559.896 793.375 560.709 784.132 562.439C776.948 563.287 769.998 565.606 763.681 569.263C751.331 577.204 748.343 592.745 749.113 606.83C749.76 617.605 751.858 628.232 755.346 638.399C761.071 648.557 768.005 657.924 775.984 666.277C779.466 669.938 783.616 672.837 788.19 674.806C792.764 676.774 797.671 677.771 802.621 677.739ZM771.338 575.989C778.505 569.554 797.018 567.806 807.431 566.834C833.508 564.406 866.168 573.1 874.526 584.683C876.246 586.769 877.466 589.251 878.083 591.924C878.699 594.596 878.697 597.383 878.075 600.055C877.904 603.177 876.848 606.177 875.04 608.676C868.741 619.518 861.209 629.531 852.604 638.496C838.597 653.067 818.17 670.77 796.855 667.346C770.825 663.169 761.836 631.162 758.825 608.797C757.331 597.651 760.692 581.988 771.338 575.989Z" fill="white"/>
<path opacity="0.5" d="M570.365 941.813C584.372 945.358 599.407 940.404 612.153 934.333C626.743 927.392 639.939 917.645 651.047 905.605C657.483 898.701 663.124 891.04 667.856 882.778C671.685 875.979 674.066 868.718 672.525 860.923C671.612 853.397 659.405 841.641 653.569 837.999C657.07 848.927 660.362 877.363 650.347 891.278C639.771 905.962 625.554 915.707 610.379 925.421C601.228 930.132 590.769 934.916 580.473 935.11C575.52 935.127 570.614 934.112 566.044 932.127C561.473 930.142 557.33 927.226 553.859 923.551C545.91 915.138 539.015 905.714 533.338 895.503C535.086 900.738 537.16 905.849 539.548 910.802C545.992 924.425 555.33 938.049 570.365 941.813Z" fill="url(#paint13_linear_0_1)"/>
<path d="M649.526 845.683C641.169 834.099 608.508 825.381 582.431 827.834C572.042 828.805 553.506 830.554 546.339 836.989C547.089 836.579 547.87 836.229 548.673 835.945C553.258 834.387 558.045 833.568 562.867 833.517C569.031 833.055 575.217 832.788 581.38 832.715C595.761 832.545 628.819 836.066 645.301 849.325C647.701 851.288 649.789 853.632 651.487 856.271C652.478 857.691 653.061 859.376 653.168 861.127C653.79 858.437 653.784 855.632 653.15 852.945C652.516 850.258 651.274 847.768 649.526 845.683Z" fill="white"/>
<path opacity="0.5" d="M649.526 845.683C641.169 834.099 608.508 825.381 582.431 827.834C572.042 828.805 553.506 830.554 546.339 836.989C547.089 836.579 547.87 836.229 548.673 835.945C553.258 834.387 558.045 833.568 562.867 833.517C569.031 833.055 575.217 832.788 581.38 832.715C595.761 832.545 628.819 836.066 645.301 849.325C647.701 851.288 649.789 853.632 651.487 856.271C652.478 857.691 653.061 859.376 653.168 861.127C653.79 858.437 653.784 855.632 653.15 852.945C652.516 850.258 651.274 847.768 649.526 845.683Z" fill="url(#paint14_linear_0_1)"/>
<path d="M577.621 938.739C587.917 938.545 598.236 934.368 607.387 929.657C623.183 921.492 636.92 909.591 647.495 894.907C657.51 880.992 667.946 861.2 661.199 844.056C652.024 833.153 632.367 823.876 587.146 821.011C577.755 820.896 568.375 821.709 559.132 823.439C551.948 824.287 544.998 826.606 538.681 830.263C526.331 838.204 523.343 853.745 524.113 867.83C524.76 878.605 526.858 889.232 530.346 899.399C536.071 909.557 543.005 918.924 550.984 927.277C554.466 930.938 558.616 933.837 563.19 935.806C567.764 937.774 572.671 938.771 577.621 938.739ZM546.338 836.989C553.505 830.554 572.018 828.806 582.431 827.834C608.508 825.406 641.168 834.1 649.526 845.683C651.246 847.769 652.466 850.251 653.083 852.924C653.699 855.596 653.697 858.383 653.075 861.055C652.904 864.177 651.848 867.177 650.04 869.676C643.741 880.518 636.209 890.531 627.604 899.496C613.597 914.067 593.17 931.77 571.855 928.346C545.825 924.169 536.836 892.162 533.825 869.797C532.331 858.651 535.692 842.988 546.338 836.989Z" fill="white"/>
<path d="M202.674 357.402C193.013 354.866 183.335 358.496 181.541 365.33C181.074 367.111 181.16 368.988 181.798 370.91L183.839 377.062L177.419 377.951C169.299 379.076 163.274 383.511 161.695 389.525C159.246 398.855 167.75 409.201 180.653 412.588C187.735 414.447 194.992 413.861 200.564 410.979L204.705 408.837L207.423 412.624C210.945 417.531 216.825 421.359 223.556 423.126C236.526 426.53 249.082 421.668 251.545 412.285C252.875 407.218 250.968 401.597 246.313 396.863L241.365 391.832L247.518 388.379C249.495 387.269 252.035 385.246 252.911 381.909C254.705 375.076 248.059 367.16 238.398 364.624C232.44 363.06 226.315 363.75 222.011 366.469L217.8 369.129L214.814 365.142C212.116 361.54 207.691 358.719 202.674 357.402ZM170.278 430.301C159.574 427.491 150.315 421.57 144.207 413.628C137.782 405.276 135.551 395.696 137.925 386.654C140.752 375.885 149.779 367.686 162.055 364.378C161.83 361.681 162.055 358.991 162.732 356.409C166.712 341.248 185.21 332.92 203.966 337.844C211.32 339.774 217.832 343.476 222.728 348.447C230.353 345.083 239.541 344.488 248.621 346.871C267.378 351.795 279.399 368.136 275.419 383.297C274.234 387.812 271.705 391.873 268.111 395.134C273.981 403.206 276.021 412.47 273.712 421.266C271.33 430.34 264.657 437.614 254.923 441.749C245.667 445.682 234.651 446.294 223.906 443.473C214.23 440.933 205.804 435.912 199.747 429.149C190.891 432.513 180.395 432.957 170.278 430.301Z" fill="#339900"/>
<path d="M222.812 421.536C214.523 419.36 207.773 414.683 203.668 408.963C197.176 412.321 188.604 413.281 179.909 410.999C164.105 406.85 153.895 393.576 157.104 381.35C159.319 372.913 167.348 367.182 177.304 365.802C176.369 362.984 176.194 360.033 176.95 357.154C179.534 347.311 191.944 342.039 204.669 345.379C211.141 347.078 216.444 350.68 219.756 355.103C225.118 351.716 232.696 350.581 240.393 352.601C253.117 355.942 261.338 366.629 258.753 376.473C257.648 380.684 254.741 384.054 250.784 386.275C256.544 392.132 259.272 399.669 257.387 406.848C254.164 419.127 238.684 425.703 222.812 421.536ZM260.866 387.374C265.812 384.598 269.447 380.385 270.828 375.121C274.058 362.817 263.783 349.457 247.877 345.282C238.256 342.756 228.784 344.174 222.082 348.409C217.941 342.88 211.313 338.378 203.223 336.254C187.317 332.079 171.805 338.668 168.574 350.973C167.63 354.572 167.848 358.26 169.017 361.783C156.571 363.507 146.536 370.671 143.767 381.217C139.755 396.5 152.518 413.092 172.273 418.279C183.142 421.132 193.857 419.931 201.971 415.734C207.103 422.883 215.541 428.73 225.902 431.45C245.742 436.658 265.092 428.439 269.121 413.091C271.477 404.116 268.066 394.695 260.866 387.374Z" fill="#72EF43"/>
<path d="M438.674 279.402C429.013 276.866 419.335 280.496 417.541 287.33C417.074 289.111 417.16 290.988 417.798 292.91L419.839 299.062L413.419 299.951C405.299 301.076 399.274 305.511 397.695 311.525C395.246 320.855 403.75 331.201 416.653 334.588C423.735 336.447 430.992 335.861 436.564 332.979L440.705 330.837L443.423 334.624C446.945 339.531 452.825 343.359 459.556 345.126C472.526 348.53 485.082 343.668 487.545 334.285C488.875 329.218 486.968 323.597 482.313 318.863L477.365 313.832L483.518 310.379C485.495 309.269 488.035 307.246 488.911 303.909C490.705 297.076 484.059 289.16 474.398 286.624C468.44 285.06 462.315 285.75 458.011 288.469L453.8 291.129L450.814 287.142C448.116 283.54 443.691 280.719 438.674 279.402ZM406.278 352.301C395.574 349.491 386.315 343.57 380.207 335.628C373.782 327.276 371.551 317.696 373.925 308.654C376.752 297.885 385.779 289.686 398.055 286.378C397.83 283.681 398.055 280.991 398.732 278.409C402.712 263.248 421.21 254.92 439.966 259.844C447.32 261.774 453.832 265.476 458.728 270.447C466.353 267.083 475.541 266.488 484.621 268.871C503.378 273.795 515.399 290.136 511.419 305.297C510.234 309.812 507.705 313.873 504.111 317.134C509.981 325.206 512.021 334.47 509.712 343.266C507.33 352.34 500.657 359.614 490.923 363.749C481.667 367.682 470.651 368.294 459.906 365.473C450.23 362.933 441.804 357.912 435.747 351.149C426.891 354.513 416.395 354.957 406.278 352.301Z" fill="#339900"/>
<path d="M458.812 343.536C450.523 341.36 443.773 336.683 439.668 330.963C433.176 334.321 424.604 335.281 415.909 332.999C400.105 328.85 389.895 315.576 393.104 303.35C395.319 294.913 403.348 289.182 413.304 287.802C412.369 284.984 412.194 282.033 412.95 279.154C415.534 269.311 427.944 264.039 440.669 267.379C447.141 269.078 452.444 272.68 455.756 277.103C461.118 273.716 468.696 272.581 476.393 274.601C489.117 277.942 497.338 288.629 494.753 298.473C493.648 302.684 490.741 306.054 486.784 308.275C492.544 314.132 495.272 321.669 493.387 328.848C490.164 341.127 474.684 347.703 458.812 343.536ZM496.866 309.374C501.812 306.598 505.447 302.385 506.828 297.121C510.058 284.817 499.783 271.457 483.877 267.282C474.256 264.756 464.784 266.174 458.082 270.409C453.941 264.88 447.313 260.378 439.223 258.254C423.317 254.079 407.805 260.668 404.574 272.973C403.63 276.572 403.848 280.26 405.017 283.783C392.571 285.507 382.536 292.671 379.767 303.217C375.755 318.5 388.518 335.092 408.273 340.279C419.142 343.132 429.857 341.931 437.971 337.734C443.103 344.883 451.541 350.73 461.902 353.45C481.742 358.658 501.092 350.439 505.121 335.091C507.477 326.116 504.066 316.695 496.866 309.374Z" fill="#72EF43"/>
<path d="M537.674 555.402C528.013 552.866 518.335 556.496 516.541 563.33C516.074 565.111 516.16 566.988 516.798 568.91L518.839 575.062L512.419 575.951C504.299 577.076 498.274 581.511 496.695 587.525C494.246 596.855 502.75 607.201 515.653 610.588C522.735 612.447 529.992 611.861 535.564 608.979L539.705 606.837L542.423 610.624C545.945 615.531 551.825 619.359 558.556 621.126C571.526 624.53 584.082 619.668 586.545 610.285C587.875 605.218 585.968 599.597 581.313 594.863L576.365 589.832L582.518 586.379C584.495 585.269 587.035 583.246 587.911 579.909C589.705 573.076 583.059 565.16 573.398 562.624C567.44 561.06 561.315 561.75 557.011 564.469L552.8 567.129L549.814 563.142C547.116 559.54 542.691 556.719 537.674 555.402ZM505.278 628.301C494.574 625.491 485.315 619.57 479.207 611.628C472.782 603.276 470.551 593.696 472.925 584.654C475.752 573.885 484.779 565.686 497.055 562.378C496.83 559.681 497.055 556.991 497.732 554.409C501.712 539.248 520.21 530.92 538.966 535.844C546.32 537.774 552.832 541.476 557.728 546.447C565.353 543.083 574.541 542.488 583.621 544.871C602.378 549.795 614.399 566.136 610.419 581.297C609.234 585.812 606.705 589.873 603.111 593.134C608.981 601.206 611.021 610.47 608.712 619.266C606.33 628.34 599.657 635.614 589.923 639.749C580.667 643.682 569.651 644.294 558.906 641.473C549.23 638.933 540.804 633.912 534.747 627.149C525.891 630.513 515.395 630.957 505.278 628.301Z" fill="#339900"/>
<path d="M557.812 619.536C549.523 617.36 542.773 612.683 538.668 606.963C532.176 610.321 523.604 611.281 514.909 608.999C499.105 604.85 488.895 591.576 492.104 579.35C494.319 570.913 502.348 565.182 512.304 563.802C511.369 560.984 511.194 558.033 511.95 555.154C514.534 545.311 526.944 540.039 539.669 543.379C546.141 545.078 551.444 548.68 554.756 553.103C560.118 549.716 567.696 548.581 575.393 550.601C588.117 553.942 596.338 564.629 593.753 574.473C592.648 578.684 589.741 582.054 585.784 584.275C591.544 590.132 594.272 597.669 592.387 604.848C589.164 617.127 573.684 623.703 557.812 619.536ZM595.866 585.374C600.812 582.598 604.447 578.385 605.828 573.121C609.058 560.817 598.783 547.457 582.877 543.282C573.256 540.756 563.784 542.174 557.082 546.409C552.941 540.88 546.313 536.378 538.223 534.254C522.317 530.079 506.805 536.668 503.574 548.973C502.63 552.572 502.848 556.26 504.017 559.783C491.571 561.507 481.536 568.671 478.767 579.217C474.755 594.5 487.518 611.092 507.273 616.279C518.142 619.132 528.857 617.931 536.971 613.734C542.103 620.883 550.541 626.73 560.902 629.45C580.742 634.658 600.092 626.439 604.121 611.091C606.477 602.116 603.066 592.695 595.866 585.374Z" fill="#72EF43"/>
<path d="M335.674 415.989C326.013 413.453 316.335 417.083 314.541 423.917C314.074 425.698 314.16 427.575 314.798 429.497L316.839 435.649L310.419 436.538C302.299 437.663 296.274 442.098 294.695 448.112C292.246 457.442 300.75 467.788 313.653 471.175C320.735 473.034 327.992 472.448 333.564 469.566L337.705 467.424L340.423 471.211C343.945 476.118 349.825 479.946 356.556 481.713C369.526 485.117 382.082 480.255 384.545 470.872C385.875 465.805 383.968 460.184 379.313 455.45L374.365 450.419L380.518 446.966C382.495 445.856 385.035 443.833 385.911 440.496C387.705 433.663 381.059 425.747 371.398 423.211C365.44 421.647 359.315 422.337 355.011 425.056L350.8 427.716L347.814 423.729C345.116 420.127 340.691 417.306 335.674 415.989ZM303.278 488.888C292.574 486.078 283.315 480.157 277.207 472.215C270.782 463.863 268.551 454.283 270.925 445.241C273.752 434.472 282.779 426.273 295.055 422.965C294.83 420.268 295.055 417.578 295.732 414.996C299.712 399.835 318.21 391.507 336.966 396.431C344.32 398.361 350.832 402.063 355.728 407.034C363.353 403.67 372.541 403.075 381.621 405.458C400.378 410.382 412.399 426.723 408.419 441.884C407.234 446.399 404.705 450.46 401.111 453.721C406.981 461.793 409.021 471.057 406.712 479.853C404.33 488.927 397.657 496.201 387.923 500.336C378.667 504.269 367.651 504.881 356.906 502.06C347.23 499.52 338.804 494.499 332.747 487.736C323.891 491.1 313.395 491.544 303.278 488.888Z" fill="#339900"/>
<path d="M335.674 415.989C326.013 413.453 316.335 417.083 314.541 423.917C314.074 425.698 314.16 427.575 314.798 429.497L316.839 435.649L310.419 436.538C302.299 437.663 296.274 442.098 294.695 448.112C292.246 457.442 300.75 467.788 313.653 471.175C320.735 473.034 327.992 472.448 333.564 469.566L337.705 467.424L340.423 471.211C343.945 476.118 349.825 479.946 356.556 481.713C369.526 485.117 382.082 480.255 384.545 470.872C385.875 465.805 383.968 460.184 379.313 455.45L374.365 450.419L380.518 446.966C382.495 445.856 385.035 443.833 385.911 440.496C387.705 433.663 381.059 425.747 371.398 423.211C365.44 421.647 359.315 422.337 355.011 425.056L350.8 427.716L347.814 423.729C345.116 420.127 340.691 417.306 335.674 415.989ZM303.278 488.888C292.574 486.078 283.315 480.157 277.207 472.215C270.782 463.863 268.551 454.283 270.925 445.241C273.752 434.472 282.779 426.273 295.055 422.965C294.83 420.268 295.055 417.578 295.732 414.996C299.712 399.835 318.21 391.507 336.966 396.431C344.32 398.361 350.832 402.063 355.728 407.034C363.353 403.67 372.541 403.075 381.621 405.458C400.378 410.382 412.399 426.723 408.419 441.884C407.234 446.399 404.705 450.46 401.111 453.721C406.981 461.793 409.021 471.057 406.712 479.853C404.33 488.927 397.657 496.201 387.923 500.336C378.667 504.269 367.651 504.881 356.906 502.06C347.23 499.52 338.804 494.499 332.747 487.736C323.891 491.1 313.395 491.544 303.278 488.888Z" fill="#339900"/>
<path d="M355.812 480.536C347.523 478.36 340.773 473.683 336.668 467.963C330.176 471.321 321.604 472.281 312.909 469.999C297.105 465.85 286.895 452.576 290.104 440.35C292.319 431.913 300.348 426.182 310.304 424.802C309.369 421.984 309.194 419.033 309.95 416.154C312.534 406.311 324.944 401.039 337.669 404.379C344.141 406.078 349.444 409.68 352.756 414.103C358.118 410.716 365.696 409.581 373.393 411.601C386.117 414.942 394.338 425.629 391.753 435.473C390.648 439.684 387.741 443.054 383.784 445.275C389.544 451.132 392.272 458.669 390.387 465.848C387.164 478.127 371.684 484.703 355.812 480.536ZM393.866 446.374C398.812 443.598 402.447 439.385 403.828 434.121C407.058 421.817 396.783 408.457 380.877 404.282C371.256 401.756 361.784 403.174 355.082 407.409C350.941 401.88 344.313 397.378 336.223 395.254C320.317 391.079 304.805 397.668 301.574 409.973C300.63 413.572 300.848 417.26 302.017 420.783C289.571 422.507 279.536 429.671 276.767 440.217C272.755 455.5 285.518 472.092 305.273 477.279C316.142 480.132 326.857 478.931 334.971 474.734C340.103 481.883 348.541 487.73 358.902 490.45C378.742 495.658 398.092 487.439 402.121 472.091C404.477 463.116 401.066 453.695 393.866 446.374Z" fill="#72EF43"/>
<path d="M372.674 758.989C363.013 756.453 353.335 760.083 351.541 766.917C351.074 768.698 351.16 770.575 351.798 772.497L353.839 778.649L347.419 779.538C339.299 780.663 333.274 785.098 331.695 791.112C329.246 800.442 337.75 810.788 350.653 814.175C357.735 816.034 364.992 815.448 370.564 812.566L374.705 810.424L377.423 814.211C380.945 819.118 386.825 822.946 393.556 824.713C406.526 828.117 419.082 823.255 421.545 813.872C422.875 808.805 420.968 803.184 416.313 798.45L411.365 793.419L417.518 789.966C419.495 788.856 422.035 786.833 422.911 783.496C424.705 776.663 418.059 768.747 408.398 766.211C402.44 764.647 396.315 765.337 392.011 768.056L387.8 770.716L384.814 766.729C382.116 763.127 377.691 760.306 372.674 758.989ZM340.278 831.888C329.574 829.078 320.315 823.157 314.207 815.215C307.782 806.863 305.551 797.283 307.925 788.241C310.752 777.472 319.779 769.273 332.055 765.965C331.83 763.268 332.055 760.578 332.732 757.996C336.712 742.835 355.21 734.507 373.966 739.431C381.32 741.361 387.832 745.063 392.728 750.034C400.353 746.67 409.541 746.075 418.621 748.458C437.378 753.382 449.399 769.723 445.419 784.884C444.234 789.399 441.705 793.46 438.111 796.721C443.981 804.793 446.021 814.057 443.712 822.853C441.33 831.927 434.657 839.201 424.923 843.336C415.667 847.269 404.651 847.881 393.906 845.06C384.23 842.52 375.804 837.499 369.747 830.736C360.891 834.1 350.395 834.544 340.278 831.888Z" fill="#339900"/>
<path d="M392.812 823.536C384.523 821.36 377.773 816.683 373.668 810.963C367.176 814.321 358.604 815.281 349.909 812.999C334.105 808.85 323.895 795.576 327.104 783.35C329.319 774.913 337.348 769.182 347.304 767.802C346.369 764.984 346.194 762.033 346.95 759.154C349.534 749.311 361.944 744.039 374.669 747.379C381.141 749.078 386.444 752.68 389.756 757.103C395.118 753.716 402.696 752.581 410.393 754.601C423.117 757.942 431.338 768.629 428.753 778.473C427.648 782.684 424.741 786.054 420.784 788.275C426.544 794.132 429.272 801.669 427.387 808.848C424.164 821.127 408.684 827.703 392.812 823.536ZM430.866 789.374C435.812 786.598 439.447 782.385 440.828 777.121C444.058 764.817 433.783 751.457 417.877 747.282C408.256 744.756 398.784 746.174 392.082 750.409C387.941 744.88 381.313 740.378 373.223 738.254C357.317 734.079 341.805 740.668 338.574 752.973C337.63 756.572 337.848 760.26 339.017 763.783C326.571 765.507 316.536 772.671 313.767 783.217C309.755 798.5 322.518 815.092 342.273 820.279C353.142 823.132 363.857 821.931 371.971 817.734C377.103 824.883 385.541 830.73 395.902 833.45C415.742 838.658 435.092 830.439 439.121 815.091C441.477 806.116 438.066 796.695 430.866 789.374Z" fill="#72EF43"/>
<path d="M722.674 746.989C713.013 744.453 703.335 748.083 701.541 754.917C701.074 756.698 701.16 758.575 701.798 760.497L703.839 766.649L697.419 767.538C689.299 768.663 683.274 773.098 681.695 779.112C679.246 788.442 687.75 798.788 700.653 802.175C707.735 804.034 714.992 803.448 720.564 800.566L724.705 798.424L727.423 802.211C730.945 807.118 736.825 810.946 743.556 812.713C756.526 816.117 769.082 811.255 771.545 801.872C772.875 796.805 770.968 791.184 766.313 786.45L761.365 781.419L767.518 777.966C769.495 776.856 772.035 774.833 772.911 771.496C774.705 764.663 768.059 756.747 758.398 754.211C752.44 752.647 746.315 753.337 742.011 756.056L737.8 758.716L734.814 754.729C732.116 751.127 727.691 748.306 722.674 746.989ZM690.278 819.888C679.574 817.078 670.315 811.157 664.207 803.215C657.782 794.863 655.551 785.283 657.925 776.241C660.752 765.472 669.779 757.273 682.055 753.965C681.83 751.268 682.055 748.578 682.732 745.996C686.712 730.835 705.21 722.507 723.966 727.431C731.32 729.361 737.832 733.063 742.728 738.034C750.353 734.67 759.541 734.075 768.621 736.458C787.378 741.382 799.399 757.723 795.419 772.884C794.234 777.399 791.705 781.46 788.111 784.721C793.981 792.793 796.021 802.057 793.712 810.853C791.33 819.927 784.657 827.201 774.923 831.336C765.667 835.269 754.651 835.881 743.906 833.06C734.23 830.52 725.804 825.499 719.747 818.736C710.891 822.1 700.395 822.544 690.278 819.888Z" fill="#339900"/>
<path d="M742.812 811.536C734.523 809.36 727.773 804.683 723.668 798.963C717.176 802.321 708.604 803.281 699.909 800.999C684.105 796.85 673.895 783.576 677.104 771.35C679.319 762.913 687.348 757.182 697.304 755.802C696.369 752.984 696.194 750.033 696.95 747.154C699.534 737.311 711.944 732.039 724.669 735.379C731.141 737.078 736.444 740.68 739.756 745.103C745.118 741.716 752.696 740.581 760.393 742.601C773.117 745.942 781.338 756.629 778.753 766.473C777.648 770.684 774.741 774.054 770.784 776.275C776.544 782.132 779.272 789.669 777.387 796.848C774.164 809.127 758.684 815.703 742.812 811.536ZM780.866 777.374C785.812 774.598 789.447 770.385 790.828 765.121C794.058 752.817 783.783 739.457 767.877 735.282C758.256 732.756 748.784 734.174 742.082 738.409C737.941 732.88 731.313 728.378 723.223 726.254C707.317 722.079 691.805 728.668 688.574 740.973C687.63 744.572 687.848 748.26 689.017 751.783C676.571 753.507 666.536 760.671 663.767 771.217C659.755 786.5 672.518 803.092 692.273 808.279C703.142 811.132 713.857 809.931 721.971 805.734C727.103 812.883 735.541 818.73 745.902 821.45C765.742 826.658 785.092 818.439 789.121 803.091C791.477 794.116 788.066 784.695 780.866 777.374Z" fill="#72EF43"/>
<path d="M792.674 509.989C783.013 507.453 773.335 511.083 771.541 517.917C771.074 519.698 771.16 521.575 771.798 523.497L773.839 529.649L767.419 530.538C759.299 531.663 753.274 536.098 751.695 542.112C749.246 551.442 757.75 561.788 770.653 565.175C777.735 567.034 784.992 566.448 790.564 563.566L794.705 561.424L797.423 565.211C800.945 570.118 806.825 573.946 813.556 575.713C826.526 579.117 839.082 574.255 841.545 564.872C842.875 559.805 840.968 554.184 836.313 549.45L831.365 544.419L837.518 540.966C839.495 539.856 842.035 537.833 842.911 534.496C844.705 527.663 838.059 519.747 828.398 517.211C822.44 515.647 816.315 516.337 812.011 519.056L807.8 521.716L804.814 517.729C802.116 514.127 797.691 511.306 792.674 509.989ZM760.278 582.888C749.574 580.078 740.315 574.157 734.207 566.215C727.782 557.863 725.551 548.283 727.925 539.241C730.752 528.472 739.779 520.273 752.055 516.965C751.83 514.268 752.055 511.578 752.732 508.996C756.712 493.835 775.21 485.507 793.966 490.431C801.32 492.361 807.832 496.063 812.728 501.034C820.353 497.67 829.541 497.075 838.621 499.458C857.378 504.382 869.399 520.723 865.419 535.884C864.234 540.399 861.705 544.46 858.111 547.721C863.981 555.793 866.021 565.057 863.712 573.853C861.33 582.927 854.657 590.201 844.923 594.336C835.667 598.269 824.651 598.881 813.906 596.06C804.23 593.52 795.804 588.499 789.747 581.736C780.891 585.1 770.395 585.544 760.278 582.888Z" fill="#339900"/>
<path d="M812.812 574.536C804.523 572.36 797.773 567.683 793.668 561.963C787.176 565.321 778.604 566.281 769.909 563.999C754.105 559.85 743.895 546.576 747.104 534.35C749.319 525.913 757.348 520.182 767.304 518.802C766.369 515.984 766.194 513.033 766.95 510.154C769.534 500.311 781.944 495.039 794.669 498.379C801.141 500.078 806.444 503.68 809.756 508.103C815.118 504.716 822.696 503.581 830.393 505.601C843.117 508.942 851.338 519.629 848.753 529.473C847.648 533.684 844.741 537.054 840.784 539.275C846.544 545.132 849.272 552.669 847.387 559.848C844.164 572.127 828.684 578.703 812.812 574.536ZM850.866 540.374C855.812 537.598 859.447 533.385 860.828 528.121C864.058 515.817 853.783 502.457 837.877 498.282C828.256 495.756 818.784 497.174 812.082 501.409C807.941 495.88 801.313 491.378 793.223 489.254C777.317 485.079 761.805 491.668 758.574 503.973C757.63 507.572 757.848 511.26 759.017 514.783C746.571 516.507 736.536 523.671 733.767 534.217C729.755 549.5 742.518 566.092 762.273 571.279C773.142 574.132 783.857 572.931 791.971 568.734C797.103 575.883 805.541 581.73 815.902 584.45C835.742 589.658 855.092 581.439 859.121 566.091C861.477 557.116 858.066 547.695 850.866 540.374Z" fill="#72EF43"/>
<path d="M196.674 568.989C187.013 566.453 177.335 570.083 175.541 576.917C175.074 578.698 175.16 580.575 175.798 582.497L177.839 588.649L171.419 589.538C163.299 590.663 157.274 595.098 155.695 601.112C153.246 610.442 161.75 620.788 174.653 624.175C181.735 626.034 188.992 625.448 194.564 622.566L198.705 620.424L201.423 624.211C204.945 629.118 210.825 632.946 217.556 634.713C230.526 638.117 243.082 633.255 245.545 623.872C246.875 618.805 244.968 613.184 240.313 608.45L235.365 603.419L241.518 599.966C243.495 598.856 246.035 596.833 246.911 593.496C248.705 586.663 242.059 578.747 232.398 576.211C226.44 574.647 220.315 575.337 216.011 578.056L211.8 580.716L208.814 576.729C206.116 573.127 201.691 570.306 196.674 568.989ZM164.278 641.888C153.574 639.078 144.315 633.157 138.207 625.215C131.782 616.863 129.551 607.283 131.925 598.241C134.752 587.472 143.779 579.273 156.055 575.965C155.83 573.268 156.055 570.578 156.732 567.996C160.712 552.835 179.21 544.507 197.966 549.431C205.32 551.361 211.832 555.063 216.728 560.034C224.353 556.67 233.541 556.075 242.621 558.458C261.378 563.382 273.399 579.723 269.419 594.884C268.234 599.399 265.705 603.46 262.111 606.721C267.981 614.793 270.021 624.057 267.712 632.853C265.33 641.927 258.657 649.201 248.923 653.336C239.667 657.269 228.651 657.881 217.906 655.06C208.23 652.52 199.804 647.499 193.747 640.736C184.891 644.1 174.395 644.544 164.278 641.888Z" fill="#339900"/>
<path d="M216.812 633.536C208.523 631.36 201.773 626.683 197.668 620.963C191.176 624.321 182.604 625.281 173.909 622.999C158.105 618.85 147.895 605.576 151.104 593.35C153.319 584.913 161.348 579.182 171.304 577.802C170.369 574.984 170.194 572.033 170.95 569.154C173.534 559.311 185.944 554.039 198.669 557.379C205.141 559.078 210.444 562.68 213.756 567.103C219.118 563.716 226.696 562.581 234.393 564.601C247.117 567.942 255.338 578.629 252.753 588.473C251.648 592.684 248.741 596.054 244.784 598.275C250.544 604.132 253.272 611.669 251.387 618.848C248.164 631.127 232.684 637.703 216.812 633.536ZM254.866 599.374C259.812 596.598 263.447 592.385 264.828 587.121C268.058 574.817 257.783 561.457 241.877 557.282C232.256 554.756 222.784 556.174 216.082 560.409C211.941 554.88 205.313 550.378 197.223 548.254C181.317 544.079 165.805 550.668 162.574 562.973C161.63 566.572 161.848 570.26 163.017 573.783C150.571 575.507 140.536 582.671 137.767 593.217C133.755 608.5 146.518 625.092 166.273 630.279C177.142 633.132 187.857 631.931 195.971 627.734C201.103 634.883 209.541 640.73 219.902 643.45C239.742 648.658 259.092 640.439 263.121 625.091C265.477 616.116 262.066 606.695 254.866 599.374Z" fill="#72EF43"/>
<path d="M680.674 308.402C671.013 305.866 661.335 309.496 659.541 316.33C659.074 318.111 659.16 319.988 659.798 321.91L661.839 328.062L655.419 328.951C647.299 330.076 641.274 334.511 639.695 340.525C637.246 349.855 645.75 360.201 658.653 363.588C665.735 365.447 672.992 364.861 678.564 361.979L682.705 359.837L685.423 363.624C688.945 368.531 694.825 372.359 701.556 374.126C714.526 377.53 727.082 372.668 729.545 363.285C730.875 358.218 728.968 352.597 724.313 347.863L719.365 342.832L725.518 339.379C727.495 338.269 730.035 336.246 730.911 332.909C732.705 326.076 726.059 318.16 716.398 315.624C710.44 314.06 704.315 314.75 700.011 317.469L695.8 320.129L692.814 316.142C690.116 312.54 685.691 309.719 680.674 308.402ZM648.278 381.301C637.574 378.491 628.315 372.57 622.207 364.628C615.782 356.276 613.551 346.696 615.925 337.654C618.752 326.885 627.779 318.686 640.055 315.378C639.83 312.681 640.055 309.991 640.732 307.409C644.712 292.248 663.21 283.92 681.966 288.844C689.32 290.774 695.832 294.476 700.728 299.447C708.353 296.083 717.541 295.488 726.621 297.871C745.378 302.795 757.399 319.136 753.419 334.297C752.234 338.812 749.705 342.873 746.111 346.134C751.981 354.206 754.021 363.47 751.712 372.266C749.33 381.34 742.657 388.614 732.923 392.749C723.667 396.682 712.651 397.294 701.906 394.473C692.23 391.933 683.804 386.912 677.747 380.149C668.891 383.513 658.395 383.957 648.278 381.301Z" fill="#339900"/>
<path d="M700.812 372.536C692.523 370.36 685.773 365.683 681.668 359.963C675.176 363.321 666.604 364.281 657.909 361.999C642.105 357.85 631.895 344.576 635.104 332.35C637.319 323.913 645.348 318.182 655.304 316.802C654.369 313.984 654.194 311.033 654.95 308.154C657.534 298.311 669.944 293.039 682.669 296.379C689.141 298.078 694.444 301.68 697.756 306.103C703.118 302.716 710.696 301.581 718.393 303.601C731.117 306.942 739.338 317.629 736.753 327.473C735.648 331.684 732.741 335.054 728.784 337.275C734.544 343.132 737.272 350.669 735.387 357.848C732.164 370.127 716.684 376.703 700.812 372.536ZM738.866 338.374C743.812 335.598 747.447 331.385 748.828 326.121C752.058 313.817 741.783 300.457 725.877 296.282C716.256 293.756 706.784 295.174 700.082 299.409C695.941 293.88 689.313 289.378 681.223 287.254C665.317 283.079 649.805 289.668 646.574 301.973C645.63 305.572 645.848 309.26 647.017 312.783C634.571 314.507 624.536 321.671 621.767 332.217C617.755 347.5 630.518 364.092 650.273 369.279C661.142 372.132 671.857 370.931 679.971 366.734C685.103 373.883 693.541 379.73 703.902 382.45C723.742 387.658 743.092 379.439 747.121 364.091C749.477 355.116 746.066 345.695 738.866 338.374Z" fill="#72EF43"/>
<path d="M700.812 372.536C692.523 370.36 685.773 365.683 681.668 359.963C675.176 363.321 666.604 364.281 657.909 361.999C642.105 357.85 631.895 344.576 635.104 332.35C637.319 323.913 645.348 318.182 655.304 316.802C654.369 313.984 654.194 311.033 654.95 308.154C657.534 298.311 669.944 293.039 682.669 296.379C689.141 298.078 694.444 301.68 697.756 306.103C703.118 302.716 710.696 301.581 718.393 303.601C731.117 306.942 739.338 317.629 736.753 327.473C735.648 331.684 732.741 335.054 728.784 337.275C734.544 343.132 737.272 350.669 735.387 357.848C732.164 370.127 716.684 376.703 700.812 372.536ZM738.866 338.374C743.812 335.598 747.447 331.385 748.828 326.121C752.058 313.817 741.783 300.457 725.877 296.282C716.256 293.756 706.784 295.174 700.082 299.409C695.941 293.88 689.313 289.378 681.223 287.254C665.317 283.079 649.805 289.668 646.574 301.973C645.63 305.572 645.848 309.26 647.017 312.783C634.571 314.507 624.536 321.671 621.767 332.217C617.755 347.5 630.518 364.092 650.273 369.279C661.142 372.132 671.857 370.931 679.971 366.734C685.103 373.883 693.541 379.73 703.902 382.45C723.742 387.658 743.092 379.439 747.121 364.091C749.477 355.116 746.066 345.695 738.866 338.374Z" fill="#72EF43"/>
<defs>
<radialGradient id="paint0_radial_0_1" cx="0" cy="0" r="1" gradientUnits="userSpaceOnUse" gradientTransform="translate(543 543) scale(543)">
<stop stop-color="#F7E3D9"/>
<stop offset="0.604167" stop-color="#E7804A"/>
<stop offset="0.84" stop-color="#DF5209"/>
<stop offset="0.86" stop-color="#E0550A"/>
<stop offset="0.87" stop-color="#E15F0D"/>
<stop offset="0.89" stop-color="#E46F12"/>
<stop offset="0.9" stop-color="#E8861A"/>
<stop offset="0.92" stop-color="#EDA423"/>
<stop offset="0.93" stop-color="#F2BF2C"/>
<stop offset="0.94" stop-color="#EDB429"/>
<stop offset="0.96" stop-color="#DF9823"/>
<stop offset="0.98" stop-color="#CA6918"/>
<stop offset="0.99" stop-color="#BD4E11"/>
</radialGradient>
<linearGradient id="paint1_linear_0_1" x1="403.864" y1="287.642" x2="577.136" y2="287.642" gradientUnits="userSpaceOnUse">
<stop stop-color="#EA4E65"/>
<stop offset="0.31" stop-color="#EA5565"/>
<stop offset="0.75" stop-color="#EA6865"/>
<stop offset="1" stop-color="#EA7665"/>
</linearGradient>
<linearGradient id="paint2_linear_0_1" x1="431.339" y1="240.25" x2="538.612" y2="240.25" gradientUnits="userSpaceOnUse">
<stop stop-color="#EA4E65"/>
<stop offset="0.31" stop-color="#EA5565"/>
<stop offset="0.75" stop-color="#EA6865"/>
<stop offset="1" stop-color="#EA7665"/>
</linearGradient>
<linearGradient id="paint3_linear_0_1" x1="324.864" y1="624.642" x2="498.136" y2="624.642" gradientUnits="userSpaceOnUse">
<stop stop-color="#EA4E65"/>
<stop offset="0.31" stop-color="#EA5565"/>
<stop offset="0.75" stop-color="#EA6865"/>
<stop offset="1" stop-color="#EA7665"/>
</linearGradient>
<linearGradient id="paint4_linear_0_1" x1="352.339" y1="577.25" x2="459.612" y2="577.25" gradientUnits="userSpaceOnUse">
<stop stop-color="#EA4E65"/>
<stop offset="0.31" stop-color="#EA5565"/>
<stop offset="0.75" stop-color="#EA6865"/>
<stop offset="1" stop-color="#EA7665"/>
</linearGradient>
<linearGradient id="paint5_linear_0_1" x1="508.864" y1="508.642" x2="682.136" y2="508.642" gradientUnits="userSpaceOnUse">
<stop stop-color="#EA4E65"/>
<stop offset="0.31" stop-color="#EA5565"/>
<stop offset="0.75" stop-color="#EA6865"/>
<stop offset="1" stop-color="#EA7665"/>
</linearGradient>
<linearGradient id="paint6_linear_0_1" x1="536.339" y1="461.25" x2="643.612" y2="461.25" gradientUnits="userSpaceOnUse">
<stop stop-color="#EA4E65"/>
<stop offset="0.31" stop-color="#EA5565"/>
<stop offset="0.75" stop-color="#EA6865"/>
<stop offset="1" stop-color="#EA7665"/>
</linearGradient>
<linearGradient id="paint7_linear_0_1" x1="504.864" y1="715.642" x2="678.136" y2="715.642" gradientUnits="userSpaceOnUse">
<stop stop-color="#EA4E65"/>
<stop offset="0.31" stop-color="#EA5565"/>
<stop offset="0.75" stop-color="#EA6865"/>
<stop offset="1" stop-color="#EA7665"/>
</linearGradient>
<linearGradient id="paint8_linear_0_1" x1="532.339" y1="668.25" x2="639.612" y2="668.25" gradientUnits="userSpaceOnUse">
<stop stop-color="#EA4E65"/>
<stop offset="0.31" stop-color="#EA5565"/>
<stop offset="0.75" stop-color="#EA6865"/>
<stop offset="1" stop-color="#EA7665"/>
</linearGradient>
<linearGradient id="paint9_linear_0_1" x1="583.864" y1="226.642" x2="757.136" y2="226.642" gradientUnits="userSpaceOnUse">
<stop stop-color="#EA4E65"/>
<stop offset="0.31" stop-color="#EA5565"/>
<stop offset="0.75" stop-color="#EA6865"/>
<stop offset="1" stop-color="#EA7665"/>
</linearGradient>
<linearGradient id="paint10_linear_0_1" x1="611.339" y1="179.25" x2="718.612" y2="179.25" gradientUnits="userSpaceOnUse">
<stop stop-color="#EA4E65"/>
<stop offset="0.31" stop-color="#EA5565"/>
<stop offset="0.75" stop-color="#EA6865"/>
<stop offset="1" stop-color="#EA7665"/>
</linearGradient>
<linearGradient id="paint11_linear_0_1" x1="743.864" y1="630.642" x2="917.136" y2="630.642" gradientUnits="userSpaceOnUse">
<stop stop-color="#EA4E65"/>
<stop offset="0.31" stop-color="#EA5565"/>
<stop offset="0.75" stop-color="#EA6865"/>
<stop offset="1" stop-color="#EA7665"/>
</linearGradient>
<linearGradient id="paint12_linear_0_1" x1="771.339" y1="583.25" x2="878.612" y2="583.25" gradientUnits="userSpaceOnUse">
<stop stop-color="#EA4E65"/>
<stop offset="0.31" stop-color="#EA5565"/>
<stop offset="0.75" stop-color="#EA6865"/>
<stop offset="1" stop-color="#EA7665"/>
</linearGradient>
<linearGradient id="paint13_linear_0_1" x1="518.864" y1="891.642" x2="692.136" y2="891.642" gradientUnits="userSpaceOnUse">
<stop stop-color="#EA4E65"/>
<stop offset="0.31" stop-color="#EA5565"/>
<stop offset="0.75" stop-color="#EA6865"/>
<stop offset="1" stop-color="#EA7665"/>
</linearGradient>
<linearGradient id="paint14_linear_0_1" x1="546.339" y1="844.25" x2="653.612" y2="844.25" gradientUnits="userSpaceOnUse">
<stop stop-color="#EA4E65"/>
<stop offset="0.31" stop-color="#EA5565"/>
<stop offset="0.75" stop-color="#EA6865"/>
<stop offset="1" stop-color="#EA7665"/>
</linearGradient>
</defs>
</svg>
