<svg width="1086" height="1086" viewBox="0 0 1086 1086" fill="none" xmlns="http://www.w3.org/2000/svg">
<rect x="603" y="380" width="287" height="284" fill="#EA210C"/>
<path d="M543 1086C842.891 1086 1086 842.891 1086 543C1086 243.109 842.891 0 543 0C243.109 0 0 243.109 0 543C0 842.891 243.109 1086 543 1086Z" fill="url(#paint0_radial_0_1)"/>
<path fill-rule="evenodd" clip-rule="evenodd" d="M999.025 449.522C1009.58 457.805 1016.25 471.294 1017.02 486.257C1017.96 504.703 1018.9 523.149 1019.84 541.595L1019.88 542.345L1019.97 544.036C1020.77 559.811 1021.58 575.586 1022.38 591.361C1023.37 610.718 1024.06 631.182 1017.13 649.523C1013.37 659.46 1009.41 668.686 1003.47 677.33C999.355 683.313 995.043 689.138 990.73 694.962C987.498 699.574 984.5 704.286 981.95 709.33C983.525 711.768 985.082 714.213 986.172 716.905L986.195 716.961C990.701 728.095 992.677 732.976 993.604 745.057C994.067 751.086 993.243 757.342 991.862 763.177C988.48 777.456 980.555 791.072 972.478 802.989C956.365 826.765 938.361 846.215 916.392 863.864C897.158 879.318 875.396 890.803 852.607 899.19C843.112 902.684 833.429 905.551 823.748 908.416L823.747 908.417L823.746 908.417C812.122 911.858 800.5 915.298 789.21 919.824C776.401 926.223 764.557 934.396 752.89 942.907C751.582 943.861 750.275 944.818 748.968 945.776C736.737 954.731 724.436 963.738 711.002 970.557C693.617 979.38 675.494 986.735 656.613 991.03C621.146 999.098 584.818 1000.67 548.665 999.776C473.549 997.916 397.111 995.309 323.664 977.155C320.237 976.308 317.027 974.974 314.067 973.239C307.425 973.513 301.392 970.448 294.776 966.13L286.102 960.469C274.243 952.729 262.385 944.989 250.526 937.25C246.578 934.673 242.595 932.164 238.607 929.651C228.87 923.516 219.102 917.362 209.739 910.159C192.829 897.151 180.205 878.512 168.993 855.771C165.468 848.62 162.244 841.155 159.02 833.69C156.433 827.698 153.845 821.707 151.102 815.878C144.566 804.284 136.978 794.324 129.387 784.361L129.387 784.36C122.04 774.717 114.691 765.07 108.29 753.936C91.8736 725.376 79.4584 693.426 71.6427 657.367C64.7968 625.786 61.4908 590.574 63.6609 557.388C66.1611 519.138 72.1155 481.288 80.6763 445.109C91.3933 399.82 106 358.505 127.735 323.084C146.007 293.311 168.41 268.076 192.208 249.322C218.515 228.589 246.832 213.451 275.813 204.035C292.389 198.652 309.148 194.912 325.968 191.754C332.67 190.496 339.406 189.647 346.142 188.799L346.142 188.799L346.145 188.799C349.798 188.338 353.45 187.878 357.096 187.353C360.758 179.26 364.442 171.222 368.785 163.72C375.509 152.11 383.288 142.566 391.485 133.401C405.605 117.613 422.656 106.219 439.844 100.908C447.455 98.5565 454.765 98.5565 461.771 102.593L482.546 87.7446C493.67 79.7937 505.578 71.6516 519.428 70.0503C526.932 69.1826 534.097 68.7309 541.748 69.9899C547.044 70.8615 552.33 71.9414 557.615 73.0231C561.723 73.7414 565.792 74.2457 569.87 74.2888C570.662 72.1943 571.464 70.1115 572.611 68.2881L572.635 68.2498C577.379 60.7092 579.458 57.4038 586.27 52.2077C589.67 49.6139 593.746 47.9058 597.805 46.7745C607.739 44.0067 619.188 44.9088 629.688 46.5574C650.635 49.8463 669.799 56.1706 689.555 66.1519C706.854 74.8904 722.848 87.0112 737.428 101.06C743.503 106.913 749.282 113.141 755.06 119.368C761.999 126.846 768.935 134.322 776.38 141.144C785.578 148.412 795.43 154.293 805.408 159.915C806.526 160.545 807.646 161.173 808.766 161.802C819.247 167.683 829.787 173.598 839.5 181.182C852.068 190.996 864.071 201.913 874.568 214.539C894.287 238.258 910.496 265.044 925.16 292.616C952.163 343.392 979.254 395.17 999.025 449.522Z" fill="#EA210C"/>
<defs>
<radialGradient id="paint0_radial_0_1" cx="0" cy="0" r="1" gradientUnits="userSpaceOnUse" gradientTransform="translate(543 543) scale(543)">
<stop stop-color="#F7E3D9"/>
<stop offset="0.604167" stop-color="#E7804A"/>
<stop offset="0.84" stop-color="#DF5209"/>
<stop offset="0.86" stop-color="#E0550A"/>
<stop offset="0.87" stop-color="#E15F0D"/>
<stop offset="0.89" stop-color="#E46F12"/>
<stop offset="0.9" stop-color="#E8861A"/>
<stop offset="0.92" stop-color="#EDA423"/>
<stop offset="0.93" stop-color="#F2BF2C"/>
<stop offset="0.94" stop-color="#EDB429"/>
<stop offset="0.96" stop-color="#DF9823"/>
<stop offset="0.98" stop-color="#CA6918"/>
<stop offset="0.99" stop-color="#BD4E11"/>
</radialGradient>
</defs>
</svg>
