<svg width="1086" height="1086" viewBox="0 0 1086 1086" fill="none" xmlns="http://www.w3.org/2000/svg">
<rect x="603" y="380" width="287" height="284" fill="#EA210C"/>
<path d="M543 1086C842.891 1086 1086 842.891 1086 543C1086 243.109 842.891 0 543 0C243.109 0 0 243.109 0 543C0 842.891 243.109 1086 543 1086Z" fill="url(#paint0_radial_4_3045)"/>
<path fill-rule="evenodd" clip-rule="evenodd" d="M999.025 448.522C1009.58 456.805 1016.25 470.294 1017.02 485.257C1017.96 503.703 1018.9 522.149 1019.84 540.595L1019.88 541.345L1019.97 543.036C1020.77 558.811 1021.58 574.586 1022.38 590.361C1023.37 609.718 1024.06 630.182 1017.13 648.523C1013.37 658.46 1009.41 667.686 1003.47 676.33C999.355 682.313 995.043 688.138 990.73 693.962C987.498 698.574 984.5 703.286 981.95 708.33C983.525 710.768 985.082 713.213 986.172 715.905L986.195 715.961C990.701 727.095 992.677 731.976 993.604 744.057C994.067 750.086 993.243 756.342 991.862 762.177C988.48 776.456 980.555 790.072 972.478 801.989C956.365 825.765 938.361 845.215 916.392 862.864C897.158 878.318 875.396 889.803 852.607 898.19C843.112 901.684 833.429 904.551 823.748 907.416L823.747 907.417L823.746 907.417C812.122 910.858 800.5 914.298 789.21 918.824C776.401 925.223 764.557 933.396 752.89 941.907C751.582 942.861 750.275 943.818 748.968 944.776C736.737 953.731 724.436 962.738 711.002 969.557C693.617 978.38 675.494 985.735 656.613 990.03C621.146 998.098 584.818 999.671 548.665 998.776C473.549 996.916 397.111 994.309 323.664 976.155C320.237 975.308 317.027 973.974 314.067 972.239C307.425 972.513 301.392 969.448 294.776 965.13L286.102 959.469C274.243 951.729 262.385 943.989 250.526 936.25C246.578 933.673 242.595 931.164 238.607 928.651C228.87 922.516 219.102 916.362 209.739 909.159C192.829 896.151 180.205 877.512 168.993 854.771C165.468 847.62 162.244 840.155 159.02 832.69C156.433 826.698 153.845 820.707 151.102 814.878C144.566 803.284 136.978 793.324 129.387 783.361L129.387 783.36C122.04 773.717 114.691 764.071 108.29 752.936C91.8736 724.376 79.4584 692.426 71.6427 656.367C64.7968 624.787 61.4908 589.574 63.6609 556.388C66.1611 518.138 72.1155 480.288 80.6763 444.109C91.3933 398.82 106 357.505 127.735 322.084C146.007 292.311 168.41 267.076 192.208 248.322C218.515 227.589 246.832 212.451 275.813 203.035C292.389 197.652 309.148 193.912 325.968 190.754C332.67 189.496 339.406 188.647 346.142 187.799L346.142 187.799L346.145 187.799C349.798 187.338 353.45 186.878 357.096 186.353C360.758 178.26 364.442 170.222 368.785 162.72C375.509 151.11 383.288 141.566 391.485 132.401C405.605 116.613 422.656 105.219 439.844 99.9079C447.455 97.5565 454.765 97.5565 461.771 101.593L482.546 86.7446C493.67 78.7937 505.578 70.6516 519.428 69.0503C526.932 68.1826 534.097 67.7309 541.748 68.9899C547.044 69.8615 552.33 70.9414 557.615 72.0231C561.723 72.7414 565.792 73.2457 569.87 73.2888C570.662 71.1943 571.464 69.1115 572.611 67.2881L572.635 67.2498C577.379 59.7093 579.458 56.4038 586.27 51.2077C589.67 48.6139 593.746 46.9059 597.805 45.7745C607.739 43.0067 619.188 43.9088 629.688 45.5574C650.635 48.8463 669.799 55.1706 689.555 65.1519C706.854 73.8904 722.848 86.0112 737.428 100.06C743.503 105.913 749.282 112.141 755.06 118.368C761.999 125.846 768.935 133.322 776.38 140.144C785.578 147.412 795.43 153.293 805.408 158.915C806.526 159.545 807.646 160.173 808.766 160.802C819.247 166.683 829.787 172.598 839.5 180.182C852.068 189.996 864.071 200.913 874.568 213.539C894.287 237.258 910.496 264.044 925.16 291.616C952.163 342.392 979.254 394.17 999.025 448.522Z" fill="#EA210C"/>
<path d="M765.18 588.641C766.27 592.779 768.564 596.502 771.77 599.337C774.976 602.172 778.951 603.993 783.192 604.569C787.433 605.145 791.75 604.451 795.596 602.574C799.443 600.696 802.646 597.721 804.801 594.023C806.957 590.325 807.967 586.071 807.704 581.799C807.442 577.527 805.919 573.429 803.327 570.023C800.735 566.617 797.192 564.055 793.145 562.663C789.097 561.271 784.728 561.11 780.59 562.201C777.841 562.924 775.262 564.182 773 565.902C770.737 567.622 768.836 569.772 767.405 572.227C765.974 574.683 765.041 577.396 764.659 580.213C764.277 583.029 764.454 585.893 765.18 588.641Z" fill="url(#paint1_linear_4_3045)"/>
<path d="M798.118 597.171C805.891 590.532 806.811 578.849 800.172 571.075C793.532 563.302 781.849 562.382 774.075 569.021C766.302 575.66 765.382 587.344 772.021 595.118C778.66 602.891 790.344 603.811 798.118 597.171Z" fill="url(#paint2_radial_4_3045)"/>
<path d="M788.829 567.971C785.509 567.541 783.449 568.971 783.989 571.601C783.989 571.751 787.369 581.081 788.259 583.871C788.559 585.231 791.039 591.441 792.499 594.921C793.499 597.221 798.249 591.841 798.989 590.711C804.539 582.191 798.359 569.191 788.829 567.971Z" fill="url(#paint3_linear_4_3045)"/>
<path d="M788.439 596.361L787.939 594.421L787.799 594.491C783.349 595.491 778.409 590.731 777.799 586.491C777.229 582.691 777.599 576.351 781.529 574.351C781.563 574.219 781.645 574.105 781.759 574.031C781.489 573.191 781.319 572.631 781.309 572.601C780.159 570.181 777.659 570.271 775.259 572.601C768.399 579.261 771.209 593.401 780.759 596.891C781.989 597.341 789.049 598.781 788.439 596.361Z" fill="url(#paint4_linear_4_3045)"/>
<path d="M777.459 586.431C778.459 590.611 782.139 595.791 787.799 594.531L787.939 594.461C786.989 590.801 785.689 586.081 785.209 585.021C784.469 582.891 782.529 576.661 781.659 573.891C776.929 576.501 776.419 582.011 777.459 586.431Z" fill="url(#paint5_linear_4_3045)"/>
<path d="M795.579 580.231C797.529 587.721 793.85 591.701 791.75 593.111C789.75 589.331 785.429 575.741 784.479 573.001C788.499 571.121 794.499 576.071 795.579 580.231Z" fill="url(#paint6_linear_4_3045)"/>
<path d="M778.459 578.331C777.529 577.467 776.443 576.788 775.259 576.331C774.994 576.266 774.714 576.309 774.48 576.451C774.247 576.592 774.079 576.821 774.014 577.086C773.949 577.351 773.992 577.631 774.134 577.865C774.275 578.098 774.504 578.266 774.769 578.331C775.983 578.608 777.245 578.608 778.459 578.331Z" fill="#FFBE08"/>
<path d="M777.759 581.481C776.601 580.984 775.359 580.709 774.099 580.671C773.825 580.696 773.571 580.829 773.395 581.041C773.219 581.253 773.134 581.526 773.159 581.801C773.184 582.075 773.318 582.328 773.529 582.505C773.741 582.681 774.015 582.766 774.289 582.741C775.526 582.586 776.712 582.156 777.759 581.481Z" fill="#FFBE08"/>
<path d="M777.669 585.571C777.669 585.571 775.019 585.281 773.929 585.801C773.673 585.899 773.467 586.095 773.355 586.345C773.244 586.595 773.236 586.88 773.334 587.136C773.432 587.392 773.628 587.598 773.878 587.71C774.129 587.821 774.413 587.829 774.669 587.731C775.821 587.25 776.848 586.511 777.669 585.571Z" fill="#FFBE08"/>
<path d="M779.519 576.031C778.573 575.751 777.669 575.348 776.829 574.831C775.829 574.021 776.899 571.941 778.259 573.191C778.655 573.55 778.972 573.989 779.189 574.478C779.406 574.967 779.518 575.496 779.519 576.031Z" fill="#FFBE08"/>
<path d="M780.739 591.881C779.917 592.009 779.136 592.328 778.459 592.811C777.309 593.721 778.459 594.881 779.519 594.031C780.161 593.476 780.592 592.716 780.739 591.881Z" fill="#FFBE08"/>
<path d="M778.579 588.941C777.576 589.056 776.605 589.365 775.719 589.851C775.52 590.016 775.388 590.248 775.347 590.503C775.305 590.758 775.358 591.019 775.495 591.239C775.631 591.458 775.842 591.621 776.09 591.697C776.337 591.772 776.603 591.756 776.839 591.651C777.979 591.101 778.579 588.941 778.579 588.941Z" fill="#FFBE08"/>
<path d="M776.159 577.261C775.991 577.073 775.759 576.956 775.509 576.932C775.259 576.908 775.009 576.979 774.809 577.131C774.757 577.184 774.722 577.252 774.712 577.326C774.701 577.4 774.714 577.475 774.749 577.541C774.877 577.762 775.086 577.926 775.331 577.999C775.577 578.071 775.841 578.047 776.069 577.931C776.359 577.811 776.359 577.431 776.159 577.261Z" fill="white"/>
<path d="M778.429 574.191C778.39 573.941 778.257 573.716 778.059 573.561C777.861 573.405 777.611 573.33 777.359 573.351C777.209 573.351 777.129 573.521 777.099 573.661C777.098 573.909 777.189 574.15 777.356 574.335C777.522 574.519 777.752 574.636 777.999 574.661C778.289 574.751 778.459 574.431 778.429 574.191Z" fill="white"/>
<path d="M775.359 581.431C775.174 581.259 774.931 581.164 774.679 581.164C774.427 581.164 774.184 581.259 773.999 581.431C773.953 581.488 773.929 581.558 773.929 581.631C773.929 581.704 773.953 581.774 773.999 581.831C774.145 582.039 774.365 582.184 774.613 582.236C774.862 582.288 775.122 582.243 775.339 582.111C775.579 581.941 775.519 581.591 775.359 581.431Z" fill="white"/>
<path d="M775.009 586.011C774.764 586.009 774.526 586.098 774.341 586.26C774.157 586.422 774.039 586.647 774.009 586.891C774.011 586.963 774.037 587.032 774.082 587.088C774.127 587.144 774.19 587.183 774.259 587.201C774.507 587.267 774.771 587.235 774.996 587.113C775.221 586.99 775.391 586.785 775.469 586.541C775.529 586.261 775.249 586.031 775.009 586.011Z" fill="white"/>
<path d="M776.729 589.941C776.484 589.939 776.246 590.028 776.062 590.19C775.877 590.352 775.759 590.577 775.729 590.821C775.73 590.894 775.754 590.966 775.799 591.024C775.845 591.082 775.908 591.123 775.979 591.141C776.227 591.204 776.49 591.169 776.713 591.045C776.936 590.92 777.103 590.715 777.18 590.471C777.24 590.191 776.969 589.971 776.729 589.941Z" fill="white"/>
<path d="M790.919 574.841C790.919 574.841 791.919 572.361 792.859 571.631C793.067 571.45 793.338 571.36 793.613 571.38C793.888 571.4 794.144 571.528 794.324 571.736C794.504 571.944 794.595 572.215 794.575 572.49C794.555 572.765 794.427 573.02 794.219 573.201C793.257 573.989 792.129 574.55 790.919 574.841Z" fill="#FFBE08"/>
<path d="M792.969 577.321C792.969 577.321 794.699 575.321 795.859 574.941C796.114 574.839 796.399 574.842 796.651 574.95C796.903 575.058 797.102 575.261 797.204 575.516C797.306 575.77 797.303 576.055 797.195 576.307C797.087 576.56 796.884 576.759 796.629 576.861C795.46 577.29 794.208 577.448 792.969 577.321Z" fill="#FFBE08"/>
<path d="M794.919 580.921C794.919 580.921 797.139 579.431 798.359 579.431C798.632 579.403 798.905 579.485 799.118 579.658C799.331 579.832 799.466 580.082 799.494 580.356C799.522 580.629 799.44 580.902 799.267 581.115C799.093 581.328 798.842 581.463 798.569 581.491C797.325 581.58 796.077 581.385 794.919 580.921Z" fill="#FFBE08"/>
<path d="M788.919 573.281C789.631 572.602 790.25 571.832 790.759 570.991C791.319 569.791 789.389 568.441 788.759 570.181C788.569 570.68 788.484 571.214 788.512 571.748C788.539 572.281 788.678 572.804 788.919 573.281Z" fill="#FFBE08"/>
<path d="M793.609 590.831C794.4 590.916 795.161 591.176 795.839 591.591C796.469 592.091 795.839 593.511 794.929 592.751C794.357 592.212 793.907 591.557 793.609 590.831Z" fill="#FFBE08"/>
<path d="M795.069 587.941C795.861 587.677 796.703 587.602 797.529 587.721C798.959 588.011 798.439 589.581 797.129 589.301C796.307 589.098 795.579 588.618 795.069 587.941Z" fill="#FFBE08"/>
<path d="M795.649 584.331C796.607 583.97 797.627 583.804 798.649 583.841C798.92 583.877 799.165 584.015 799.336 584.228C799.507 584.44 799.589 584.71 799.566 584.982C799.543 585.253 799.416 585.505 799.212 585.686C799.008 585.866 798.742 585.961 798.469 585.951C797.169 585.981 795.649 584.331 795.649 584.331Z" fill="#FFBE08"/>
<path d="M792.469 572.841C792.533 572.596 792.687 572.385 792.9 572.249C793.114 572.114 793.371 572.064 793.619 572.111C793.687 572.135 793.745 572.18 793.786 572.239C793.827 572.298 793.849 572.369 793.849 572.441C793.849 572.706 793.744 572.96 793.556 573.148C793.369 573.335 793.114 573.441 792.849 573.441C792.559 573.431 792.419 573.071 792.469 572.841Z" fill="white"/>
<path d="M789.049 571.141C788.969 570.901 788.982 570.641 789.086 570.411C789.19 570.181 789.377 569.998 789.609 569.901C789.681 569.885 789.756 569.892 789.824 569.921C789.892 569.949 789.95 569.998 789.989 570.061C790.118 570.282 790.156 570.545 790.097 570.794C790.037 571.044 789.884 571.261 789.669 571.401C789.612 571.432 789.55 571.449 789.485 571.453C789.42 571.456 789.356 571.445 789.296 571.42C789.237 571.395 789.184 571.357 789.141 571.308C789.098 571.26 789.067 571.203 789.049 571.141Z" fill="white"/>
<path d="M795.079 576.171C795.161 575.932 795.331 575.734 795.553 575.615C795.776 575.497 796.035 575.466 796.279 575.531C796.347 575.558 796.404 575.607 796.442 575.671C796.48 575.734 796.497 575.807 796.489 575.881C796.456 576.135 796.327 576.368 796.128 576.53C795.929 576.692 795.675 576.771 795.419 576.751C795.119 576.741 795.009 576.431 795.079 576.171Z" fill="white"/>
<path d="M797.489 580.101C797.707 579.976 797.963 579.938 798.208 579.993C798.452 580.049 798.667 580.194 798.809 580.401C798.841 580.467 798.85 580.542 798.836 580.614C798.822 580.686 798.784 580.752 798.729 580.801C798.544 580.975 798.299 581.072 798.044 581.072C797.79 581.072 797.545 580.975 797.359 580.801C797.309 580.751 797.272 580.69 797.251 580.623C797.23 580.556 797.226 580.485 797.239 580.416C797.252 580.347 797.281 580.282 797.325 580.227C797.368 580.172 797.425 580.129 797.489 580.101Z" fill="white"/>
<path d="M797.759 584.431C797.978 584.307 798.235 584.27 798.48 584.328C798.724 584.385 798.938 584.533 799.079 584.741C799.112 584.805 799.122 584.879 799.107 584.95C799.093 585.02 799.055 585.084 798.999 585.131C798.814 585.305 798.569 585.402 798.314 585.402C798.06 585.402 797.815 585.305 797.629 585.131C797.579 585.081 797.542 585.02 797.521 584.953C797.5 584.886 797.496 584.815 797.509 584.746C797.522 584.677 797.551 584.612 797.595 584.557C797.638 584.502 797.695 584.459 797.759 584.431Z" fill="white"/>
<path d="M797.009 588.211C797.081 588.165 797.16 588.134 797.244 588.119C797.328 588.104 797.413 588.106 797.496 588.124C797.579 588.143 797.657 588.178 797.727 588.227C797.796 588.276 797.854 588.339 797.899 588.411C797.921 588.455 797.928 588.505 797.919 588.554C797.91 588.603 797.886 588.647 797.849 588.681C797.789 588.743 797.716 588.792 797.637 588.826C797.557 588.859 797.471 588.877 797.384 588.877C797.298 588.877 797.212 588.859 797.132 588.826C797.052 588.792 796.98 588.743 796.919 588.681C796.779 588.521 796.869 588.301 797.009 588.211Z" fill="white"/>
<path d="M795.039 591.621C795.21 591.634 795.369 591.713 795.481 591.842C795.593 591.972 795.65 592.14 795.639 592.311C795.631 592.359 795.606 592.402 795.57 592.435C795.534 592.467 795.488 592.487 795.439 592.491C795.354 592.503 795.268 592.499 795.185 592.477C795.102 592.456 795.024 592.418 794.956 592.365C794.887 592.313 794.831 592.248 794.788 592.173C794.746 592.098 794.719 592.016 794.709 591.931C794.669 591.731 794.869 591.611 795.039 591.621Z" fill="white"/>
<path d="M793.169 596.731C792.565 596.58 792.008 596.281 791.547 595.863C791.087 595.444 790.737 594.918 790.529 594.331C789.599 590.831 788.079 586.731 787.119 583.841C786.839 583.001 786.549 582.171 786.259 581.341C785.979 580.341 785.689 579.341 785.369 578.341C784.799 576.591 784.009 574.951 783.369 573.231C782.489 570.921 783.099 568.741 783.369 566.321C782.629 566.171 782.239 567.521 782.159 568.231C781.964 567.539 781.536 566.935 780.949 566.521C780.949 566.931 780.899 568.051 780.949 568.461C780.725 568.181 780.423 567.974 780.081 567.867C779.739 567.76 779.373 567.758 779.029 567.861C779.249 568.331 781.159 569.381 781.929 571.031C782.815 573.215 783.541 575.461 784.099 577.751C786.179 585.041 789.329 592.751 790.019 594.861C790.231 596.076 790.19 597.322 789.899 598.521C790.659 598.221 790.949 597.161 790.999 597.051C791.156 597.61 791.512 598.094 791.999 598.411C792.079 597.886 791.988 597.349 791.739 596.881C792.221 596.953 792.713 596.901 793.169 596.731Z" fill="url(#paint7_radial_4_3045)"/>
<path opacity="0.5" d="M793.69 584.301C792.7 582.388 791.436 580.629 789.94 579.081C789.42 578.621 788.46 577.841 787.69 577.081C786.92 576.321 786.2 575.621 786.69 575.441C787.622 575.197 788.613 575.318 789.46 575.781C792.18 577.061 794.14 581.161 794.13 584.181C794.1 584.641 793.86 584.701 793.69 584.301Z" fill="url(#paint8_radial_4_3045)"/>
<path d="M775.819 569.121C771.869 571.121 769.469 576.711 769.139 580.651C769.049 581.651 769.569 581.651 769.789 580.831C770.859 576.701 772.689 572.981 776.039 570.361C777.159 569.481 776.499 568.781 775.819 569.121Z" fill="white"/>
<path d="M803.499 583.121C803.409 582.231 802.499 582.461 802.499 583.031C802.499 584.831 802.669 588.111 798.409 594.031C798.239 594.271 797.959 595.031 798.879 594.291C800.614 592.703 801.903 590.69 802.619 588.451C803.239 586.743 803.537 584.936 803.499 583.121Z" fill="white"/>
<path d="M766.919 591.851C765.002 587.56 764.525 582.765 765.559 578.181C766.765 573.357 769.425 569.021 773.179 565.761C765.179 571.041 761.819 582.231 765.939 592.011C769.779 601.141 780.619 606.361 790.249 604.371C781.999 605.241 771.049 600.601 766.919 591.851Z" fill="#A50000"/>
<path d="M751.689 457.487C754.259 466.859 759.664 475.287 767.22 481.707C774.776 488.127 784.144 492.25 794.138 493.554C804.133 494.859 814.306 493.286 823.37 489.036C832.435 484.785 839.984 478.047 845.063 469.674C850.142 461.301 852.522 451.669 851.904 441.996C851.286 432.323 847.696 423.043 841.588 415.33C835.481 407.617 827.13 401.818 817.592 398.665C808.054 395.513 797.758 395.148 788.005 397.619C781.527 399.256 775.449 402.104 770.118 405.999C764.787 409.895 760.307 414.762 756.934 420.322C753.561 425.882 751.362 432.026 750.462 438.403C749.562 444.78 749.979 451.265 751.689 457.487Z" fill="url(#paint9_linear_4_3045)"/>
<path d="M805.099 506.822C823.27 491.812 825.419 465.396 809.9 447.822C794.381 430.247 767.071 428.168 748.9 443.178C730.73 458.189 728.581 484.604 744.1 502.179C759.619 519.753 786.929 521.832 805.099 506.822Z" fill="url(#paint10_radial_4_3045)"/>
<path d="M783.466 441.17C775.738 440.204 770.942 443.417 772.199 449.327C772.199 449.664 780.068 470.629 782.139 476.899C782.838 479.955 788.611 493.909 792.01 501.729C794.337 506.897 805.395 494.808 807.117 492.268C820.037 473.123 805.651 443.912 783.466 441.17Z" fill="url(#paint11_linear_4_3045)"/>
<path d="M782.912 504.903L781.737 500.505L781.407 500.664C770.943 502.931 759.326 492.14 757.891 482.527C756.551 473.913 757.421 459.54 766.663 455.006C766.742 454.707 766.935 454.448 767.204 454.281C766.569 452.376 766.169 451.107 766.146 451.039C763.441 445.553 757.562 445.757 751.918 451.039C735.787 466.137 742.394 498.193 764.852 506.104C767.745 507.125 784.347 510.389 782.912 504.903Z" fill="url(#paint12_linear_4_3045)"/>
<path d="M781.031 452.292C783.318 461.722 791.735 473.409 804.68 470.566L805 470.408C802.827 462.151 799.854 451.502 798.756 449.11C797.064 444.305 792.627 430.25 790.637 424C779.819 429.889 778.653 442.32 781.031 452.292Z" fill="url(#paint13_linear_4_3045)"/>
<path d="M822.721 438.5C827.239 455.655 818.712 464.771 813.846 468C809.212 459.343 799.201 428.217 797 421.941C806.315 417.635 820.218 428.972 822.721 438.5Z" fill="url(#paint14_linear_4_3045)"/>
<path d="M759 464.535C756.921 462.605 754.494 461.089 751.848 460.066C751.256 459.921 750.63 460.017 750.108 460.334C749.586 460.65 749.211 461.161 749.066 461.753C748.921 462.346 749.017 462.972 749.334 463.494C749.65 464.015 750.161 464.39 750.753 464.535C753.467 465.155 756.286 465.155 759 464.535Z" fill="#FFBE08"/>
<path d="M758 471.562C755.232 470.605 752.266 470.075 749.256 470C748.6 470.049 747.995 470.306 747.574 470.714C747.153 471.123 746.95 471.65 747.01 472.179C747.071 472.709 747.389 473.197 747.895 473.537C748.401 473.877 749.054 474.04 749.71 473.992C752.664 473.694 755.497 472.864 758 471.562Z" fill="#FFBE08"/>
<path d="M757 480.21C757 480.21 750.982 479.456 748.507 480.807C747.926 481.062 747.457 481.571 747.203 482.222C746.95 482.872 746.933 483.611 747.156 484.276C747.378 484.941 747.823 485.478 748.392 485.768C748.96 486.058 749.606 486.077 750.187 485.822C752.803 484.572 755.134 482.652 757 480.21Z" fill="#FFBE08"/>
<path d="M762 459C759.545 458.395 757.198 457.52 755.018 456.4C752.423 454.645 755.2 450.138 758.73 452.846C759.758 453.625 760.58 454.575 761.144 455.635C761.707 456.695 761.998 457.841 762 459Z" fill="#FFBE08"/>
<path d="M764 495C762.212 495.263 760.514 495.914 759.041 496.901C756.54 498.761 759.041 501.133 761.347 499.395C762.742 498.26 763.679 496.708 764 495Z" fill="#FFBE08"/>
<path d="M759 488C756.837 488.289 754.742 489.061 752.833 490.273C752.404 490.686 752.119 491.264 752.03 491.901C751.941 492.539 752.054 493.192 752.348 493.74C752.643 494.288 753.099 494.694 753.632 494.883C754.165 495.072 754.739 495.031 755.248 494.768C757.706 493.395 759 488 759 488Z" fill="#FFBE08"/>
<path d="M753.647 461.899C753.226 461.394 752.643 461.078 752.014 461.013C751.385 460.948 750.757 461.139 750.254 461.549C750.122 461.692 750.036 461.876 750.009 462.075C749.982 462.274 750.015 462.477 750.103 462.654C750.425 463.252 750.949 463.694 751.566 463.89C752.184 464.085 752.848 464.02 753.421 463.706C754.15 463.382 754.15 462.358 753.647 461.899Z" fill="white"/>
<path d="M758.992 454.904C758.903 454.342 758.606 453.834 758.159 453.482C757.713 453.13 757.151 452.961 756.585 453.008C756.248 453.008 756.068 453.392 756 453.708C755.997 454.269 756.203 454.812 756.578 455.229C756.952 455.647 757.468 455.909 758.025 455.965C758.677 456.168 759.06 455.446 758.992 454.904Z" fill="white"/>
<path d="M751.732 471.488C751.379 471.175 750.915 471 750.433 471C749.951 471 749.487 471.175 749.134 471.488C749.047 471.592 749 471.721 749 471.854C749 471.987 749.047 472.116 749.134 472.22C749.413 472.601 749.833 472.866 750.308 472.962C750.784 473.057 751.279 472.975 751.694 472.732C752.152 472.421 752.037 471.781 751.732 471.488Z" fill="white"/>
<path d="M751.043 482C750.541 481.997 750.056 482.142 749.679 482.408C749.302 482.673 749.06 483.04 749 483.438C749.005 483.556 749.057 483.669 749.149 483.76C749.241 483.852 749.368 483.916 749.511 483.945C750.017 484.053 750.556 484.001 751.016 483.801C751.477 483.6 751.823 483.265 751.983 482.866C752.106 482.409 751.534 482.033 751.043 482Z" fill="white"/>
<path d="M755.057 490C754.552 489.996 754.063 490.212 753.683 490.608C753.304 491.004 753.061 491.551 753 492.145C753 492.325 753.051 492.499 753.144 492.64C753.237 492.782 753.367 492.882 753.514 492.925C754.024 493.079 754.564 492.995 755.023 492.691C755.482 492.387 755.825 491.887 755.983 491.292C756.106 490.61 755.551 490.073 755.057 490Z" fill="white"/>
<path d="M788 456C788 456 790.46 450.988 792.772 449.513C793.285 449.148 793.952 448.966 794.628 449.006C795.304 449.045 795.933 449.304 796.376 449.725C796.82 450.146 797.042 450.694 796.993 451.249C796.945 451.805 796.63 452.321 796.118 452.686C793.751 454.279 790.976 455.412 788 456Z" fill="#FFBE08"/>
<path d="M793 461.898C793 461.898 797.015 457.092 799.706 456.179C800.297 455.933 800.958 455.941 801.543 456.2C802.129 456.459 802.591 456.949 802.828 457.561C803.064 458.172 803.057 458.857 802.807 459.463C802.557 460.069 802.084 460.547 801.493 460.792C798.78 461.825 795.875 462.203 793 461.898Z" fill="#FFBE08"/>
<path d="M798 469.867C798 469.867 802.847 467.01 805.51 467.01C806.107 466.957 806.703 467.114 807.168 467.446C807.632 467.779 807.928 468.26 807.988 468.784C808.049 469.307 807.87 469.831 807.492 470.239C807.113 470.647 806.565 470.906 805.969 470.959C803.252 471.132 800.527 470.758 798 469.867Z" fill="#FFBE08"/>
<path d="M783.876 453C785.389 451.446 786.703 449.683 787.786 447.757C788.976 445.009 784.875 441.918 783.536 445.902C783.131 447.046 782.952 448.268 783.011 449.49C783.069 450.712 783.364 451.908 783.876 453Z" fill="#FFBE08"/>
<path d="M795 492C796.591 492.201 798.123 492.807 799.488 493.777C800.756 494.945 799.488 498.264 797.657 496.488C796.505 495.229 795.599 493.699 795 492Z" fill="#FFBE08"/>
<path d="M798 485.659C799.91 485.027 801.942 484.846 803.935 485.132C807.385 485.827 806.131 489.592 802.97 488.92C800.985 488.435 799.23 487.283 798 485.659Z" fill="#FFBE08"/>
<path d="M799 477.936C801.199 477.255 803.54 476.94 805.887 477.01C806.507 477.078 807.072 477.339 807.464 477.741C807.855 478.143 808.044 478.653 807.991 479.167C807.938 479.68 807.647 480.157 807.178 480.498C806.709 480.839 806.099 481.018 805.474 480.999C802.489 481.056 799 477.936 799 477.936Z" fill="#FFBE08"/>
<path d="M792.021 451.664C792.16 451.119 792.492 450.649 792.953 450.347C793.413 450.045 793.967 449.935 794.504 450.038C794.65 450.093 794.776 450.193 794.864 450.324C794.953 450.456 795.001 450.612 795 450.773C795 451.364 794.773 451.93 794.368 452.348C793.963 452.766 793.414 453 792.842 453C792.216 452.978 791.914 452.176 792.021 451.664Z" fill="white"/>
<path d="M784.092 448.199C783.95 447.586 783.973 446.917 784.157 446.328C784.342 445.739 784.673 445.272 785.086 445.021C785.214 444.981 785.347 444.999 785.468 445.073C785.589 445.146 785.691 445.271 785.761 445.431C785.989 445.999 786.057 446.673 785.951 447.312C785.846 447.951 785.574 448.507 785.193 448.865C785.092 448.945 784.98 448.99 784.866 448.999C784.751 449.007 784.637 448.979 784.531 448.914C784.426 448.85 784.331 448.753 784.255 448.629C784.179 448.505 784.124 448.358 784.092 448.199Z" fill="white"/>
<path d="M798.043 459.608C798.215 459.038 798.57 458.565 799.036 458.281C799.503 457.998 800.045 457.926 800.556 458.079C800.699 458.145 800.819 458.263 800.899 458.413C800.978 458.564 801.012 458.74 800.996 458.915C800.928 459.523 800.657 460.078 800.24 460.465C799.823 460.852 799.291 461.041 798.755 460.993C798.126 460.969 797.896 460.229 798.043 459.608Z" fill="white"/>
<path d="M803.64 468.24C804.18 468.014 804.817 467.945 805.424 468.045C806.031 468.146 806.564 468.409 806.917 468.783C806.996 468.904 807.019 469.039 806.984 469.17C806.948 469.301 806.855 469.419 806.719 469.508C806.258 469.824 805.65 470 805.018 470C804.386 470 803.778 469.824 803.317 469.508C803.193 469.419 803.101 469.309 803.049 469.187C802.997 469.066 802.986 468.937 803.018 468.812C803.05 468.686 803.123 468.569 803.232 468.469C803.34 468.369 803.48 468.291 803.64 468.24Z" fill="white"/>
<path d="M804.48 478.235C804.887 478.011 805.365 477.944 805.82 478.048C806.275 478.153 806.674 478.421 806.936 478.798C806.996 478.916 807.015 479.049 806.988 479.178C806.961 479.307 806.89 479.423 806.787 479.507C806.442 479.824 805.986 480 805.512 480C805.039 480 804.583 479.824 804.238 479.507C804.145 479.417 804.076 479.307 804.037 479.185C803.998 479.063 803.99 478.934 804.013 478.809C804.037 478.683 804.092 478.565 804.174 478.465C804.255 478.365 804.36 478.286 804.48 478.235Z" fill="white"/>
<path d="M802.448 486.266C802.647 486.146 802.87 486.065 803.103 486.026C803.337 485.987 803.576 485.992 803.808 486.041C804.039 486.089 804.258 486.18 804.451 486.308C804.645 486.436 804.809 486.599 804.934 486.787C804.995 486.902 805.014 487.033 804.989 487.16C804.964 487.287 804.896 487.402 804.794 487.49C804.625 487.652 804.423 487.78 804.2 487.867C803.977 487.955 803.737 488 803.495 488C803.253 488 803.014 487.955 802.79 487.867C802.567 487.78 802.365 487.652 802.196 487.49C801.805 487.073 802.056 486.5 802.448 486.266Z" fill="white"/>
<path d="M797.716 494.002C798.08 494.031 798.419 494.212 798.659 494.507C798.899 494.801 799.021 495.185 798.997 495.574C798.979 495.683 798.926 495.783 798.849 495.857C798.772 495.931 798.674 495.976 798.57 495.984C798.389 496.013 798.204 496.003 798.026 495.954C797.849 495.905 797.682 495.818 797.537 495.699C797.392 495.58 797.27 495.431 797.18 495.261C797.089 495.09 797.032 494.902 797.011 494.708C796.926 494.252 797.353 493.979 797.716 494.002Z" fill="white"/>
<path d="M794 505.944C792.548 505.602 791.208 504.926 790.1 503.977C788.992 503.028 788.151 501.835 787.652 500.505C785.416 492.573 781.761 483.281 779.453 476.731C778.779 474.828 778.082 472.947 777.385 471.066C776.711 468.799 776.014 466.533 775.245 464.267C773.874 460.301 771.975 456.584 770.436 452.686C768.32 447.451 769.786 442.511 770.436 437.026C768.656 436.686 767.718 439.746 767.526 441.355C767.056 439.787 766.029 438.419 764.617 437.48C764.617 438.409 764.496 440.947 764.617 441.876C764.078 441.242 763.351 440.774 762.529 440.532C761.706 440.29 760.826 440.284 760 440.516C760.529 441.582 765.122 443.961 766.973 447.701C769.104 452.65 770.848 457.74 772.191 462.93C777.192 479.451 784.767 496.924 786.426 501.706C786.934 504.46 786.835 507.283 786.137 510C787.965 509.32 788.662 506.918 788.782 506.669C789.159 507.938 790.014 509.033 791.187 509.751C791.379 508.562 791.16 507.346 790.562 506.284C791.72 506.447 792.903 506.33 794 505.944Z" fill="url(#paint15_radial_4_3045)"/>
<path opacity="0.5" d="M794.958 477.396C792.613 473.053 789.622 469.061 786.077 465.544C784.845 464.5 782.571 462.729 780.748 461.003C778.924 459.278 777.219 457.689 778.379 457.28C780.589 456.726 782.936 457.002 784.94 458.052C791.382 460.958 796.024 470.267 796 477.124C795.929 478.168 795.36 478.304 794.958 477.396Z" fill="url(#paint16_radial_4_3045)"/>
<path d="M753.029 443.198C743.566 447.717 737.815 460.348 737.025 469.251C736.809 471.511 738.055 471.511 738.582 469.658C741.146 460.326 745.53 451.92 753.556 446C756.24 444.012 754.658 442.43 753.029 443.198Z" fill="white"/>
<path d="M841.992 445.327C841.77 443.338 839.525 443.852 839.525 445.126C839.525 449.149 839.945 456.481 829.437 469.713C829.017 470.249 828.327 471.948 830.596 470.294C834.875 466.746 838.055 462.246 839.821 457.241C841.349 453.425 842.085 449.386 841.992 445.327Z" fill="white"/>
<path d="M732.425 494.823C727.939 485.15 726.823 474.338 729.243 464.003C732.063 453.127 738.287 443.351 747.069 436C728.355 447.905 720.495 473.134 730.132 495.184C739.115 515.769 764.473 527.538 787 523.051C767.701 525.012 742.086 514.551 732.425 494.823Z" fill="#A50000"/>
<path d="M961.839 556.676L950.122 429.763C918.649 366.052 924.585 327.109 853.842 266.828L796.201 189.755C793.807 191.085 756.904 108.144 668.787 128.102L651.011 128.102L612.605 128.102C575.815 128.101 575.815 119.594 540.456 132.467L374.963 164.937C362.595 164.937 327.471 205.48 317.577 226.819C307.683 248.157 300.969 269.495 295.315 269.495C200.438 269.495 131.503 364.938 131.503 459.9C131.503 464.228 135.92 473.116 136.234 477.363C99.6407 508.896 91 558.564 91 610.685C91 684.482 115.945 751.094 181.179 775.483C187.492 864.693 283.299 951.947 374.037 951.947C403.511 951.947 444.066 976.302 468.306 963.212C499.533 995.467 543.265 995 591.683 995C659.918 995 717.641 951.671 745.365 893.983C750.557 894.456 817.231 879.015 822.548 879.015C917.426 879.015 994.339 802.033 994.339 707.071C994.339 697.553 995.826 668.552 994.339 659.454C979.498 556.676 968.472 577.213 961.839 556.676Z" fill="#F4ED76"/>
<defs>
<radialGradient id="paint0_radial_4_3045" cx="0" cy="0" r="1" gradientUnits="userSpaceOnUse" gradientTransform="translate(543 543) scale(543)">
<stop stop-color="#F7E3D9"/>
<stop offset="0.604167" stop-color="#E7804A"/>
<stop offset="0.84" stop-color="#DF5209"/>
<stop offset="0.86" stop-color="#E0550A"/>
<stop offset="0.87" stop-color="#E15F0D"/>
<stop offset="0.89" stop-color="#E46F12"/>
<stop offset="0.9" stop-color="#E8861A"/>
<stop offset="0.92" stop-color="#EDA423"/>
<stop offset="0.93" stop-color="#F2BF2C"/>
<stop offset="0.94" stop-color="#EDB429"/>
<stop offset="0.96" stop-color="#DF9823"/>
<stop offset="0.98" stop-color="#CA6918"/>
<stop offset="0.99" stop-color="#BD4E11"/>
</radialGradient>
<linearGradient id="paint1_linear_4_3045" x1="764.46" y1="583.121" x2="807.75" y2="583.121" gradientUnits="userSpaceOnUse">
<stop stop-color="#D60000"/>
<stop offset="0.56" stop-color="#E50D14"/>
<stop offset="1" stop-color="#ED141F"/>
</linearGradient>
<radialGradient id="paint2_radial_4_3045" cx="0" cy="0" r="1" gradientUnits="userSpaceOnUse" gradientTransform="translate(786.077 583.125) scale(18.52 18.52)">
<stop stop-color="#FF7878"/>
<stop offset="0.24" stop-color="#FF7272"/>
<stop offset="0.56" stop-color="#FF6060"/>
<stop offset="0.93" stop-color="#FF4444"/>
<stop offset="1" stop-color="#FF3E3E"/>
</radialGradient>
<linearGradient id="paint3_linear_4_3045" x1="783.899" y1="581.691" x2="801.079" y2="581.691" gradientUnits="userSpaceOnUse">
<stop stop-color="#D60000"/>
<stop offset="0.56" stop-color="#E50D14"/>
<stop offset="1" stop-color="#ED141F"/>
</linearGradient>
<linearGradient id="paint4_linear_4_3045" x1="771.429" y1="584.271" x2="788.479" y2="584.271" gradientUnits="userSpaceOnUse">
<stop stop-color="#D60000"/>
<stop offset="0.56" stop-color="#E50D14"/>
<stop offset="1" stop-color="#ED141F"/>
</linearGradient>
<linearGradient id="paint5_linear_4_3045" x1="777.009" y1="584.261" x2="787.939" y2="584.261" gradientUnits="userSpaceOnUse">
<stop stop-color="#D60000"/>
<stop offset="0.99" stop-color="#A50000"/>
</linearGradient>
<linearGradient id="paint6_linear_4_3045" x1="784.479" y1="582.851" x2="796.129" y2="582.851" gradientUnits="userSpaceOnUse">
<stop stop-color="#D60000"/>
<stop offset="0.99" stop-color="#A50000"/>
</linearGradient>
<radialGradient id="paint7_radial_4_3045" cx="0" cy="0" r="1" gradientUnits="userSpaceOnUse" gradientTransform="translate(786.059 582.461) scale(12.45 12.45)">
<stop stop-color="#FFC086"/>
<stop offset="0.5" stop-color="#FFB064"/>
<stop offset="0.99" stop-color="#FF9E3E"/>
</radialGradient>
<radialGradient id="paint8_radial_4_3045" cx="0" cy="0" r="1" gradientUnits="userSpaceOnUse" gradientTransform="translate(793.731 580.559) rotate(136.614) scale(4.28917)">
<stop stop-color="#FF7878"/>
<stop offset="0.24" stop-color="#FF7272"/>
<stop offset="0.56" stop-color="#FF6060"/>
<stop offset="0.93" stop-color="#FF4444"/>
<stop offset="1" stop-color="#FF3E3E"/>
</radialGradient>
<linearGradient id="paint9_linear_4_3045" x1="749.992" y1="444.988" x2="852.011" y2="444.988" gradientUnits="userSpaceOnUse">
<stop stop-color="#D60000"/>
<stop offset="0.56" stop-color="#E50D14"/>
<stop offset="1" stop-color="#ED141F"/>
</linearGradient>
<radialGradient id="paint10_radial_4_3045" cx="0" cy="0" r="1" gradientUnits="userSpaceOnUse" gradientTransform="translate(776.954 475.066) scale(43.2902 41.871)">
<stop stop-color="#FF7878"/>
<stop offset="0.24" stop-color="#FF7272"/>
<stop offset="0.56" stop-color="#FF6060"/>
<stop offset="0.93" stop-color="#FF4444"/>
<stop offset="1" stop-color="#FF3E3E"/>
</radialGradient>
<linearGradient id="paint11_linear_4_3045" x1="771.99" y1="472" x2="811.983" y2="472" gradientUnits="userSpaceOnUse">
<stop stop-color="#D60000"/>
<stop offset="0.56" stop-color="#E50D14"/>
<stop offset="1" stop-color="#ED141F"/>
</linearGradient>
<linearGradient id="paint12_linear_4_3045" x1="742.912" y1="477.495" x2="783.006" y2="477.495" gradientUnits="userSpaceOnUse">
<stop stop-color="#D60000"/>
<stop offset="0.56" stop-color="#E50D14"/>
<stop offset="1" stop-color="#ED141F"/>
</linearGradient>
<linearGradient id="paint13_linear_4_3045" x1="780.002" y1="447.396" x2="805" y2="447.396" gradientUnits="userSpaceOnUse">
<stop stop-color="#D60000"/>
<stop offset="0.99" stop-color="#A50000"/>
</linearGradient>
<linearGradient id="paint14_linear_4_3045" x1="797" y1="444.501" x2="823.995" y2="444.501" gradientUnits="userSpaceOnUse">
<stop stop-color="#D60000"/>
<stop offset="0.99" stop-color="#A50000"/>
</linearGradient>
<radialGradient id="paint15_radial_4_3045" cx="0" cy="0" r="1" gradientUnits="userSpaceOnUse" gradientTransform="translate(776.904 473.604) scale(29.9363 28.215)">
<stop stop-color="#FFC086"/>
<stop offset="0.5" stop-color="#FFB064"/>
<stop offset="0.99" stop-color="#FF9E3E"/>
</radialGradient>
<radialGradient id="paint16_radial_4_3045" cx="0" cy="0" r="1" gradientUnits="userSpaceOnUse" gradientTransform="translate(795.056 468.901) rotate(137.819) scale(9.96236 9.92991)">
<stop stop-color="#FF7878"/>
<stop offset="0.24" stop-color="#FF7272"/>
<stop offset="0.56" stop-color="#FF6060"/>
<stop offset="0.93" stop-color="#FF4444"/>
<stop offset="1" stop-color="#FF3E3E"/>
</radialGradient>
</defs>
</svg>
