<svg width="1086" height="1086" viewBox="0 0 1086 1086" fill="none" xmlns="http://www.w3.org/2000/svg">
<path d="M543 1086C842.891 1086 1086 842.891 1086 543C1086 243.109 842.891 0 543 0C243.109 0 0 243.109 0 543C0 842.891 243.109 1086 543 1086Z" fill="url(#paint0_radial_0_1)"/>
<path fill-rule="evenodd" clip-rule="evenodd" d="M999.025 431.522C1009.58 439.805 1016.25 453.294 1017.02 468.257C1017.96 486.703 1018.9 505.149 1019.84 523.595L1019.88 524.345L1019.97 526.036C1020.77 541.811 1021.58 557.586 1022.38 573.361C1023.37 592.718 1024.06 613.182 1017.13 631.523C1013.37 641.46 1009.41 650.686 1003.47 659.33C999.355 665.313 995.043 671.138 990.73 676.962C987.498 681.574 984.5 686.286 981.95 691.33C983.525 693.768 985.082 696.213 986.172 698.905L986.195 698.961C990.701 710.095 992.677 714.976 993.604 727.057C994.067 733.086 993.243 739.342 991.862 745.177C988.48 759.456 980.555 773.072 972.478 784.989C956.365 808.765 938.361 828.215 916.392 845.864C897.158 861.318 875.396 872.803 852.607 881.19C843.112 884.684 833.429 887.551 823.748 890.416L823.747 890.417L823.746 890.417C812.122 893.858 800.5 897.298 789.21 901.824C776.401 908.223 764.557 916.396 752.89 924.907C751.582 925.861 750.275 926.818 748.968 927.776C736.737 936.731 724.436 945.738 711.002 952.557C693.617 961.38 675.494 968.735 656.613 973.03C621.146 981.098 584.818 982.671 548.665 981.776C473.549 979.916 397.111 977.309 323.664 959.155C320.237 958.308 317.027 956.974 314.067 955.239C307.425 955.513 301.392 952.448 294.776 948.13L286.102 942.469C274.243 934.729 262.385 926.989 250.526 919.25C246.578 916.673 242.595 914.164 238.607 911.651C228.87 905.516 219.102 899.362 209.739 892.159C192.829 879.151 180.205 860.512 168.993 837.771C165.468 830.62 162.244 823.155 159.02 815.69C156.433 809.698 153.845 803.707 151.102 797.878C144.566 786.284 136.978 776.324 129.387 766.361L129.387 766.36C122.04 756.717 114.691 747.071 108.29 735.936C91.8736 707.376 79.4584 675.426 71.6427 639.367C64.7968 607.787 61.4908 572.574 63.6609 539.388C66.1611 501.138 72.1155 463.288 80.6763 427.109C91.3933 381.82 106 340.505 127.735 305.084C146.007 275.311 168.41 250.076 192.208 231.322C218.515 210.589 246.832 195.451 275.813 186.035C292.389 180.652 309.148 176.912 325.968 173.754C332.67 172.496 339.406 171.647 346.142 170.799L346.142 170.799L346.145 170.799C349.798 170.338 353.45 169.878 357.096 169.353C360.758 161.26 364.442 153.222 368.785 145.72C375.509 134.11 383.288 124.566 391.485 115.401C405.605 99.6133 422.656 88.2194 439.844 82.9079C447.455 80.5565 454.765 80.5565 461.771 84.5931L482.546 69.7446C493.67 61.7937 505.578 53.6516 519.428 52.0503C526.932 51.1826 534.097 50.7309 541.748 51.9899C547.044 52.8615 552.33 53.9414 557.615 55.0231C561.723 55.7414 565.792 56.2457 569.87 56.2888C570.662 54.1943 571.464 52.1115 572.611 50.2881L572.635 50.2498C577.379 42.7093 579.458 39.4038 586.27 34.2077C589.67 31.6139 593.746 29.9059 597.805 28.7745C607.739 26.0067 619.188 26.9088 629.688 28.5574C650.635 31.8463 669.799 38.1706 689.555 48.1519C706.854 56.8904 722.848 69.0112 737.428 83.0596C743.503 88.9127 749.282 95.1412 755.06 101.368C761.999 108.846 768.935 116.322 776.38 123.144C785.578 130.412 795.43 136.293 805.408 141.915C806.526 142.545 807.646 143.173 808.766 143.802C819.247 149.683 829.787 155.598 839.5 163.182C852.068 172.996 864.071 183.913 874.568 196.539C894.287 220.258 910.496 247.044 925.16 274.616C952.163 325.392 979.254 377.17 999.025 431.522Z" fill="#EA210C"/>
<path d="M960.839 543.676L949.122 416.763C917.649 353.052 923.585 314.109 852.842 253.828L795.201 176.755C792.807 178.085 755.904 95.1437 667.787 115.102L650.011 115.102L611.605 115.102C574.815 115.101 574.815 106.594 539.456 119.467L373.963 151.937C361.595 151.937 326.471 192.48 316.577 213.819C306.683 235.157 299.969 256.495 294.315 256.495C199.438 256.495 130.503 351.938 130.503 446.9C130.503 451.228 134.92 460.116 135.234 464.363C98.6407 495.896 90 545.564 90 597.685C90 671.482 114.945 738.094 180.179 762.483C186.492 851.693 282.299 938.947 373.037 938.947C402.511 938.947 443.066 963.302 467.306 950.212C498.533 982.467 542.265 982 590.683 982C658.918 982 716.641 938.671 744.365 880.983C749.557 881.456 816.231 866.015 821.548 866.015C916.426 866.015 993.339 789.033 993.339 694.071C993.339 684.553 994.826 655.552 993.339 646.454C978.498 543.676 967.472 564.213 960.839 543.676Z" fill="#F4ED76"/>
<defs>
<radialGradient id="paint0_radial_0_1" cx="0" cy="0" r="1" gradientUnits="userSpaceOnUse" gradientTransform="translate(543 543) scale(543)">
<stop stop-color="#F7E3D9"/>
<stop offset="0.604167" stop-color="#E7804A"/>
<stop offset="0.84" stop-color="#DF5209"/>
<stop offset="0.86" stop-color="#E0550A"/>
<stop offset="0.87" stop-color="#E15F0D"/>
<stop offset="0.89" stop-color="#E46F12"/>
<stop offset="0.9" stop-color="#E8861A"/>
<stop offset="0.92" stop-color="#EDA423"/>
<stop offset="0.93" stop-color="#F2BF2C"/>
<stop offset="0.94" stop-color="#EDB429"/>
<stop offset="0.96" stop-color="#DF9823"/>
<stop offset="0.98" stop-color="#CA6918"/>
<stop offset="0.99" stop-color="#BD4E11"/>
</radialGradient>
</defs>
</svg>
